<?xml version="1.0" encoding="utf-8" standalone="no"?>
<!DOCTYPE svg PUBLIC "-//W3C//DTD SVG 1.1//EN"
  "http://www.w3.org/Graphics/SVG/1.1/DTD/svg11.dtd">
<svg xmlns:xlink="http://www.w3.org/1999/xlink" width="460.8pt" height="345.6pt" viewBox="0 0 460.8 345.6" xmlns="http://www.w3.org/2000/svg" version="1.1">
 <metadata>
  <rdf:RDF xmlns:dc="http://purl.org/dc/elements/1.1/" xmlns:cc="http://creativecommons.org/ns#" xmlns:rdf="http://www.w3.org/1999/02/22-rdf-syntax-ns#">
   <cc:Work>
    <dc:type rdf:resource="http://purl.org/dc/dcmitype/StillImage"/>
    <dc:date>2023-12-13T15:21:33.186881</dc:date>
    <dc:format>image/svg+xml</dc:format>
    <dc:creator>
     <cc:Agent>
      <dc:title>Matplotlib v3.7.1, https://matplotlib.org/</dc:title>
     </cc:Agent>
    </dc:creator>
   </cc:Work>
  </rdf:RDF>
 </metadata>
 <defs>
  <style type="text/css">*{stroke-linejoin: round; stroke-linecap: butt}</style>
 </defs>
 <g id="figure_1">
  <g id="patch_1">
   <path d="M 0 345.6 
L 460.8 345.6 
L 460.8 0 
L 0 0 
z
" style="fill: #ffffff"/>
  </g>
  <g id="axes_1">
   <g id="patch_2">
    <path d="M 50.87 136.381572 
L 450 136.381572 
L 450 12.278277 
L 50.87 12.278277 
z
" style="fill: #ffffff"/>
   </g>
   <g id="matplotlib.axis_1">
    <g id="xtick_1">
     <g id="line2d_1">
      <defs>
       <path id="m890358b471" d="M 0 0 
L 0 3.5 
" style="stroke: #000000; stroke-width: 0.8"/>
      </defs>
      <g>
       <use xlink:href="#m890358b471" x="69.012273" y="136.381572" style="stroke: #000000; stroke-width: 0.8"/>
      </g>
     </g>
     <g id="text_1">
      <!-- 0 -->
      <g transform="translate(65.831023 150.980009) scale(0.1 -0.1)">
       <defs>
        <path id="DejaVuSans-30" d="M 2034 4250 
Q 1547 4250 1301 3770 
Q 1056 3291 1056 2328 
Q 1056 1369 1301 889 
Q 1547 409 2034 409 
Q 2525 409 2770 889 
Q 3016 1369 3016 2328 
Q 3016 3291 2770 3770 
Q 2525 4250 2034 4250 
z
M 2034 4750 
Q 2819 4750 3233 4129 
Q 3647 3509 3647 2328 
Q 3647 1150 3233 529 
Q 2819 -91 2034 -91 
Q 1250 -91 836 529 
Q 422 1150 422 2328 
Q 422 3509 836 4129 
Q 1250 4750 2034 4750 
z
" transform="scale(0.015625)"/>
       </defs>
       <use xlink:href="#DejaVuSans-30"/>
      </g>
     </g>
    </g>
    <g id="xtick_2">
     <g id="line2d_2">
      <g>
       <use xlink:href="#m890358b471" x="129.486515" y="136.381572" style="stroke: #000000; stroke-width: 0.8"/>
      </g>
     </g>
     <g id="text_2">
      <!-- 10 -->
      <g transform="translate(123.124015 150.980009) scale(0.1 -0.1)">
       <defs>
        <path id="DejaVuSans-31" d="M 794 531 
L 1825 531 
L 1825 4091 
L 703 3866 
L 703 4441 
L 1819 4666 
L 2450 4666 
L 2450 531 
L 3481 531 
L 3481 0 
L 794 0 
L 794 531 
z
" transform="scale(0.015625)"/>
       </defs>
       <use xlink:href="#DejaVuSans-31"/>
       <use xlink:href="#DejaVuSans-30" x="63.623047"/>
      </g>
     </g>
    </g>
    <g id="xtick_3">
     <g id="line2d_3">
      <g>
       <use xlink:href="#m890358b471" x="189.960758" y="136.381572" style="stroke: #000000; stroke-width: 0.8"/>
      </g>
     </g>
     <g id="text_3">
      <!-- 20 -->
      <g transform="translate(183.598258 150.980009) scale(0.1 -0.1)">
       <defs>
        <path id="DejaVuSans-32" d="M 1228 531 
L 3431 531 
L 3431 0 
L 469 0 
L 469 531 
Q 828 903 1448 1529 
Q 2069 2156 2228 2338 
Q 2531 2678 2651 2914 
Q 2772 3150 2772 3378 
Q 2772 3750 2511 3984 
Q 2250 4219 1831 4219 
Q 1534 4219 1204 4116 
Q 875 4013 500 3803 
L 500 4441 
Q 881 4594 1212 4672 
Q 1544 4750 1819 4750 
Q 2544 4750 2975 4387 
Q 3406 4025 3406 3419 
Q 3406 3131 3298 2873 
Q 3191 2616 2906 2266 
Q 2828 2175 2409 1742 
Q 1991 1309 1228 531 
z
" transform="scale(0.015625)"/>
       </defs>
       <use xlink:href="#DejaVuSans-32"/>
       <use xlink:href="#DejaVuSans-30" x="63.623047"/>
      </g>
     </g>
    </g>
    <g id="xtick_4">
     <g id="line2d_4">
      <g>
       <use xlink:href="#m890358b471" x="250.435" y="136.381572" style="stroke: #000000; stroke-width: 0.8"/>
      </g>
     </g>
     <g id="text_4">
      <!-- 30 -->
      <g transform="translate(244.0725 150.980009) scale(0.1 -0.1)">
       <defs>
        <path id="DejaVuSans-33" d="M 2597 2516 
Q 3050 2419 3304 2112 
Q 3559 1806 3559 1356 
Q 3559 666 3084 287 
Q 2609 -91 1734 -91 
Q 1441 -91 1130 -33 
Q 819 25 488 141 
L 488 750 
Q 750 597 1062 519 
Q 1375 441 1716 441 
Q 2309 441 2620 675 
Q 2931 909 2931 1356 
Q 2931 1769 2642 2001 
Q 2353 2234 1838 2234 
L 1294 2234 
L 1294 2753 
L 1863 2753 
Q 2328 2753 2575 2939 
Q 2822 3125 2822 3475 
Q 2822 3834 2567 4026 
Q 2313 4219 1838 4219 
Q 1578 4219 1281 4162 
Q 984 4106 628 3988 
L 628 4550 
Q 988 4650 1302 4700 
Q 1616 4750 1894 4750 
Q 2613 4750 3031 4423 
Q 3450 4097 3450 3541 
Q 3450 3153 3228 2886 
Q 3006 2619 2597 2516 
z
" transform="scale(0.015625)"/>
       </defs>
       <use xlink:href="#DejaVuSans-33"/>
       <use xlink:href="#DejaVuSans-30" x="63.623047"/>
      </g>
     </g>
    </g>
    <g id="xtick_5">
     <g id="line2d_5">
      <g>
       <use xlink:href="#m890358b471" x="310.909242" y="136.381572" style="stroke: #000000; stroke-width: 0.8"/>
      </g>
     </g>
     <g id="text_5">
      <!-- 40 -->
      <g transform="translate(304.546742 150.980009) scale(0.1 -0.1)">
       <defs>
        <path id="DejaVuSans-34" d="M 2419 4116 
L 825 1625 
L 2419 1625 
L 2419 4116 
z
M 2253 4666 
L 3047 4666 
L 3047 1625 
L 3713 1625 
L 3713 1100 
L 3047 1100 
L 3047 0 
L 2419 0 
L 2419 1100 
L 313 1100 
L 313 1709 
L 2253 4666 
z
" transform="scale(0.015625)"/>
       </defs>
       <use xlink:href="#DejaVuSans-34"/>
       <use xlink:href="#DejaVuSans-30" x="63.623047"/>
      </g>
     </g>
    </g>
    <g id="xtick_6">
     <g id="line2d_6">
      <g>
       <use xlink:href="#m890358b471" x="371.383485" y="136.381572" style="stroke: #000000; stroke-width: 0.8"/>
      </g>
     </g>
     <g id="text_6">
      <!-- 50 -->
      <g transform="translate(365.020985 150.980009) scale(0.1 -0.1)">
       <defs>
        <path id="DejaVuSans-35" d="M 691 4666 
L 3169 4666 
L 3169 4134 
L 1269 4134 
L 1269 2991 
Q 1406 3038 1543 3061 
Q 1681 3084 1819 3084 
Q 2600 3084 3056 2656 
Q 3513 2228 3513 1497 
Q 3513 744 3044 326 
Q 2575 -91 1722 -91 
Q 1428 -91 1123 -41 
Q 819 9 494 109 
L 494 744 
Q 775 591 1075 516 
Q 1375 441 1709 441 
Q 2250 441 2565 725 
Q 2881 1009 2881 1497 
Q 2881 1984 2565 2268 
Q 2250 2553 1709 2553 
Q 1456 2553 1204 2497 
Q 953 2441 691 2322 
L 691 4666 
z
" transform="scale(0.015625)"/>
       </defs>
       <use xlink:href="#DejaVuSans-35"/>
       <use xlink:href="#DejaVuSans-30" x="63.623047"/>
      </g>
     </g>
    </g>
    <g id="xtick_7">
     <g id="line2d_7">
      <g>
       <use xlink:href="#m890358b471" x="431.857727" y="136.381572" style="stroke: #000000; stroke-width: 0.8"/>
      </g>
     </g>
     <g id="text_7">
      <!-- 60 -->
      <g transform="translate(425.495227 150.980009) scale(0.1 -0.1)">
       <defs>
        <path id="DejaVuSans-36" d="M 2113 2584 
Q 1688 2584 1439 2293 
Q 1191 2003 1191 1497 
Q 1191 994 1439 701 
Q 1688 409 2113 409 
Q 2538 409 2786 701 
Q 3034 994 3034 1497 
Q 3034 2003 2786 2293 
Q 2538 2584 2113 2584 
z
M 3366 4563 
L 3366 3988 
Q 3128 4100 2886 4159 
Q 2644 4219 2406 4219 
Q 1781 4219 1451 3797 
Q 1122 3375 1075 2522 
Q 1259 2794 1537 2939 
Q 1816 3084 2150 3084 
Q 2853 3084 3261 2657 
Q 3669 2231 3669 1497 
Q 3669 778 3244 343 
Q 2819 -91 2113 -91 
Q 1303 -91 875 529 
Q 447 1150 447 2328 
Q 447 3434 972 4092 
Q 1497 4750 2381 4750 
Q 2619 4750 2861 4703 
Q 3103 4656 3366 4563 
z
" transform="scale(0.015625)"/>
       </defs>
       <use xlink:href="#DejaVuSans-36"/>
       <use xlink:href="#DejaVuSans-30" x="63.623047"/>
      </g>
     </g>
    </g>
    <g id="text_8">
     <!-- Time (s) -->
     <g transform="translate(230.106094 164.658134) scale(0.1 -0.1)">
      <defs>
       <path id="DejaVuSans-54" d="M -19 4666 
L 3928 4666 
L 3928 4134 
L 2272 4134 
L 2272 0 
L 1638 0 
L 1638 4134 
L -19 4134 
L -19 4666 
z
" transform="scale(0.015625)"/>
       <path id="DejaVuSans-69" d="M 603 3500 
L 1178 3500 
L 1178 0 
L 603 0 
L 603 3500 
z
M 603 4863 
L 1178 4863 
L 1178 4134 
L 603 4134 
L 603 4863 
z
" transform="scale(0.015625)"/>
       <path id="DejaVuSans-6d" d="M 3328 2828 
Q 3544 3216 3844 3400 
Q 4144 3584 4550 3584 
Q 5097 3584 5394 3201 
Q 5691 2819 5691 2113 
L 5691 0 
L 5113 0 
L 5113 2094 
Q 5113 2597 4934 2840 
Q 4756 3084 4391 3084 
Q 3944 3084 3684 2787 
Q 3425 2491 3425 1978 
L 3425 0 
L 2847 0 
L 2847 2094 
Q 2847 2600 2669 2842 
Q 2491 3084 2119 3084 
Q 1678 3084 1418 2786 
Q 1159 2488 1159 1978 
L 1159 0 
L 581 0 
L 581 3500 
L 1159 3500 
L 1159 2956 
Q 1356 3278 1631 3431 
Q 1906 3584 2284 3584 
Q 2666 3584 2933 3390 
Q 3200 3197 3328 2828 
z
" transform="scale(0.015625)"/>
       <path id="DejaVuSans-65" d="M 3597 1894 
L 3597 1613 
L 953 1613 
Q 991 1019 1311 708 
Q 1631 397 2203 397 
Q 2534 397 2845 478 
Q 3156 559 3463 722 
L 3463 178 
Q 3153 47 2828 -22 
Q 2503 -91 2169 -91 
Q 1331 -91 842 396 
Q 353 884 353 1716 
Q 353 2575 817 3079 
Q 1281 3584 2069 3584 
Q 2775 3584 3186 3129 
Q 3597 2675 3597 1894 
z
M 3022 2063 
Q 3016 2534 2758 2815 
Q 2500 3097 2075 3097 
Q 1594 3097 1305 2825 
Q 1016 2553 972 2059 
L 3022 2063 
z
" transform="scale(0.015625)"/>
       <path id="DejaVuSans-20" transform="scale(0.015625)"/>
       <path id="DejaVuSans-28" d="M 1984 4856 
Q 1566 4138 1362 3434 
Q 1159 2731 1159 2009 
Q 1159 1288 1364 580 
Q 1569 -128 1984 -844 
L 1484 -844 
Q 1016 -109 783 600 
Q 550 1309 550 2009 
Q 550 2706 781 3412 
Q 1013 4119 1484 4856 
L 1984 4856 
z
" transform="scale(0.015625)"/>
       <path id="DejaVuSans-73" d="M 2834 3397 
L 2834 2853 
Q 2591 2978 2328 3040 
Q 2066 3103 1784 3103 
Q 1356 3103 1142 2972 
Q 928 2841 928 2578 
Q 928 2378 1081 2264 
Q 1234 2150 1697 2047 
L 1894 2003 
Q 2506 1872 2764 1633 
Q 3022 1394 3022 966 
Q 3022 478 2636 193 
Q 2250 -91 1575 -91 
Q 1294 -91 989 -36 
Q 684 19 347 128 
L 347 722 
Q 666 556 975 473 
Q 1284 391 1588 391 
Q 1994 391 2212 530 
Q 2431 669 2431 922 
Q 2431 1156 2273 1281 
Q 2116 1406 1581 1522 
L 1381 1569 
Q 847 1681 609 1914 
Q 372 2147 372 2553 
Q 372 3047 722 3315 
Q 1072 3584 1716 3584 
Q 2034 3584 2315 3537 
Q 2597 3491 2834 3397 
z
" transform="scale(0.015625)"/>
       <path id="DejaVuSans-29" d="M 513 4856 
L 1013 4856 
Q 1481 4119 1714 3412 
Q 1947 2706 1947 2009 
Q 1947 1309 1714 600 
Q 1481 -109 1013 -844 
L 513 -844 
Q 928 -128 1133 580 
Q 1338 1288 1338 2009 
Q 1338 2731 1133 3434 
Q 928 4138 513 4856 
z
" transform="scale(0.015625)"/>
      </defs>
      <use xlink:href="#DejaVuSans-54"/>
      <use xlink:href="#DejaVuSans-69" x="57.958984"/>
      <use xlink:href="#DejaVuSans-6d" x="85.742188"/>
      <use xlink:href="#DejaVuSans-65" x="183.154297"/>
      <use xlink:href="#DejaVuSans-20" x="244.677734"/>
      <use xlink:href="#DejaVuSans-28" x="276.464844"/>
      <use xlink:href="#DejaVuSans-73" x="315.478516"/>
      <use xlink:href="#DejaVuSans-29" x="367.578125"/>
     </g>
    </g>
   </g>
   <g id="matplotlib.axis_2">
    <g id="ytick_1">
     <g id="line2d_8">
      <defs>
       <path id="m135f8862b7" d="M 0 0 
L -3.5 0 
" style="stroke: #000000; stroke-width: 0.8"/>
      </defs>
      <g>
       <use xlink:href="#m135f8862b7" x="50.87" y="130.065274" style="stroke: #000000; stroke-width: 0.8"/>
      </g>
     </g>
     <g id="text_9">
      <!-- 0.5 -->
      <g transform="translate(27.966875 133.864493) scale(0.1 -0.1)">
       <defs>
        <path id="DejaVuSans-2e" d="M 684 794 
L 1344 794 
L 1344 0 
L 684 0 
L 684 794 
z
" transform="scale(0.015625)"/>
       </defs>
       <use xlink:href="#DejaVuSans-30"/>
       <use xlink:href="#DejaVuSans-2e" x="63.623047"/>
       <use xlink:href="#DejaVuSans-35" x="95.410156"/>
      </g>
     </g>
    </g>
    <g id="ytick_2">
     <g id="line2d_9">
      <g>
       <use xlink:href="#m135f8862b7" x="50.87" y="101.255078" style="stroke: #000000; stroke-width: 0.8"/>
      </g>
     </g>
     <g id="text_10">
      <!-- 1.0 -->
      <g transform="translate(27.966875 105.054297) scale(0.1 -0.1)">
       <use xlink:href="#DejaVuSans-31"/>
       <use xlink:href="#DejaVuSans-2e" x="63.623047"/>
       <use xlink:href="#DejaVuSans-30" x="95.410156"/>
      </g>
     </g>
    </g>
    <g id="ytick_3">
     <g id="line2d_10">
      <g>
       <use xlink:href="#m135f8862b7" x="50.87" y="72.444882" style="stroke: #000000; stroke-width: 0.8"/>
      </g>
     </g>
     <g id="text_11">
      <!-- 1.5 -->
      <g transform="translate(27.966875 76.244101) scale(0.1 -0.1)">
       <use xlink:href="#DejaVuSans-31"/>
       <use xlink:href="#DejaVuSans-2e" x="63.623047"/>
       <use xlink:href="#DejaVuSans-35" x="95.410156"/>
      </g>
     </g>
    </g>
    <g id="ytick_4">
     <g id="line2d_11">
      <g>
       <use xlink:href="#m135f8862b7" x="50.87" y="43.634687" style="stroke: #000000; stroke-width: 0.8"/>
      </g>
     </g>
     <g id="text_12">
      <!-- 2.0 -->
      <g transform="translate(27.966875 47.433905) scale(0.1 -0.1)">
       <use xlink:href="#DejaVuSans-32"/>
       <use xlink:href="#DejaVuSans-2e" x="63.623047"/>
       <use xlink:href="#DejaVuSans-30" x="95.410156"/>
      </g>
     </g>
    </g>
    <g id="ytick_5">
     <g id="line2d_12">
      <g>
       <use xlink:href="#m135f8862b7" x="50.87" y="14.824491" style="stroke: #000000; stroke-width: 0.8"/>
      </g>
     </g>
     <g id="text_13">
      <!-- 2.5 -->
      <g transform="translate(27.966875 18.623709) scale(0.1 -0.1)">
       <use xlink:href="#DejaVuSans-32"/>
       <use xlink:href="#DejaVuSans-2e" x="63.623047"/>
       <use xlink:href="#DejaVuSans-35" x="95.410156"/>
      </g>
     </g>
    </g>
    <g id="text_14">
     <!-- Pressure (kPa) -->
     <g transform="translate(21.887188 109.914299) rotate(-90) scale(0.1 -0.1)">
      <defs>
       <path id="DejaVuSans-50" d="M 1259 4147 
L 1259 2394 
L 2053 2394 
Q 2494 2394 2734 2622 
Q 2975 2850 2975 3272 
Q 2975 3691 2734 3919 
Q 2494 4147 2053 4147 
L 1259 4147 
z
M 628 4666 
L 2053 4666 
Q 2838 4666 3239 4311 
Q 3641 3956 3641 3272 
Q 3641 2581 3239 2228 
Q 2838 1875 2053 1875 
L 1259 1875 
L 1259 0 
L 628 0 
L 628 4666 
z
" transform="scale(0.015625)"/>
       <path id="DejaVuSans-72" d="M 2631 2963 
Q 2534 3019 2420 3045 
Q 2306 3072 2169 3072 
Q 1681 3072 1420 2755 
Q 1159 2438 1159 1844 
L 1159 0 
L 581 0 
L 581 3500 
L 1159 3500 
L 1159 2956 
Q 1341 3275 1631 3429 
Q 1922 3584 2338 3584 
Q 2397 3584 2469 3576 
Q 2541 3569 2628 3553 
L 2631 2963 
z
" transform="scale(0.015625)"/>
       <path id="DejaVuSans-75" d="M 544 1381 
L 544 3500 
L 1119 3500 
L 1119 1403 
Q 1119 906 1312 657 
Q 1506 409 1894 409 
Q 2359 409 2629 706 
Q 2900 1003 2900 1516 
L 2900 3500 
L 3475 3500 
L 3475 0 
L 2900 0 
L 2900 538 
Q 2691 219 2414 64 
Q 2138 -91 1772 -91 
Q 1169 -91 856 284 
Q 544 659 544 1381 
z
M 1991 3584 
L 1991 3584 
z
" transform="scale(0.015625)"/>
       <path id="DejaVuSans-6b" d="M 581 4863 
L 1159 4863 
L 1159 1991 
L 2875 3500 
L 3609 3500 
L 1753 1863 
L 3688 0 
L 2938 0 
L 1159 1709 
L 1159 0 
L 581 0 
L 581 4863 
z
" transform="scale(0.015625)"/>
       <path id="DejaVuSans-61" d="M 2194 1759 
Q 1497 1759 1228 1600 
Q 959 1441 959 1056 
Q 959 750 1161 570 
Q 1363 391 1709 391 
Q 2188 391 2477 730 
Q 2766 1069 2766 1631 
L 2766 1759 
L 2194 1759 
z
M 3341 1997 
L 3341 0 
L 2766 0 
L 2766 531 
Q 2569 213 2275 61 
Q 1981 -91 1556 -91 
Q 1019 -91 701 211 
Q 384 513 384 1019 
Q 384 1609 779 1909 
Q 1175 2209 1959 2209 
L 2766 2209 
L 2766 2266 
Q 2766 2663 2505 2880 
Q 2244 3097 1772 3097 
Q 1472 3097 1187 3025 
Q 903 2953 641 2809 
L 641 3341 
Q 956 3463 1253 3523 
Q 1550 3584 1831 3584 
Q 2591 3584 2966 3190 
Q 3341 2797 3341 1997 
z
" transform="scale(0.015625)"/>
      </defs>
      <use xlink:href="#DejaVuSans-50"/>
      <use xlink:href="#DejaVuSans-72" x="58.552734"/>
      <use xlink:href="#DejaVuSans-65" x="97.416016"/>
      <use xlink:href="#DejaVuSans-73" x="158.939453"/>
      <use xlink:href="#DejaVuSans-73" x="211.039062"/>
      <use xlink:href="#DejaVuSans-75" x="263.138672"/>
      <use xlink:href="#DejaVuSans-72" x="326.517578"/>
      <use xlink:href="#DejaVuSans-65" x="365.380859"/>
      <use xlink:href="#DejaVuSans-20" x="426.904297"/>
      <use xlink:href="#DejaVuSans-28" x="458.691406"/>
      <use xlink:href="#DejaVuSans-6b" x="497.705078"/>
      <use xlink:href="#DejaVuSans-50" x="555.615234"/>
      <use xlink:href="#DejaVuSans-61" x="611.417969"/>
      <use xlink:href="#DejaVuSans-29" x="672.697266"/>
     </g>
    </g>
   </g>
   <g id="line2d_13">
    <path d="M 69.012273 62.091218 
L 69.416783 62.935267 
L 69.821293 62.653917 
L 70.225803 64.060665 
L 71.034823 47.461041 
L 71.439333 55.338829 
L 71.843843 48.305089 
L 72.652863 51.118585 
L 73.057373 55.620178 
L 73.461883 53.088032 
L 73.866393 53.650731 
L 74.270903 57.589625 
L 74.675412 51.399935 
L 75.079922 56.464227 
L 75.484432 51.681284 
L 75.888942 50.837235 
L 76.293452 69.124957 
L 76.697962 59.277723 
L 77.102472 63.779316 
L 77.506982 55.057479 
L 77.911492 60.68447 
L 78.316002 48.305089 
L 78.720512 58.996373 
L 79.125022 47.74239 
L 79.529532 67.71821 
L 79.934042 54.49478 
L 80.338552 45.210244 
L 80.743062 53.088032 
L 81.147572 58.152324 
L 81.552082 45.491594 
L 81.956592 53.088032 
L 82.361102 50.555886 
L 82.765612 52.806682 
L 83.170122 45.491594 
L 83.574632 55.057479 
L 83.979142 54.21343 
L 84.383652 55.620178 
L 84.788162 58.996373 
L 85.192672 65.748763 
L 85.597182 48.02374 
L 86.001692 56.745576 
L 86.406202 60.96582 
L 86.810712 46.335642 
L 87.215222 60.121771 
L 87.619732 54.776129 
L 88.024242 69.406307 
L 88.428752 53.932081 
L 88.833262 53.088032 
L 89.237772 55.338829 
L 89.642282 56.182877 
L 90.046792 52.243983 
L 90.451302 56.745576 
L 90.855812 57.870975 
L 91.260322 58.433674 
L 91.664832 54.776129 
L 92.069342 56.464227 
L 92.473852 59.840422 
L 92.878362 52.525333 
L 93.282872 53.088032 
L 93.687382 59.277723 
L 94.091892 57.308276 
L 94.496402 51.399935 
L 94.900912 51.962634 
L 95.305422 50.555886 
L 95.709932 52.806682 
L 96.114442 52.243983 
L 96.518952 50.555886 
L 96.923462 58.715023 
L 97.327972 57.870975 
L 97.732482 53.088032 
L 98.946011 49.149138 
L 99.350521 52.243983 
L 99.755031 65.467413 
L 100.159541 57.308276 
L 100.564051 51.399935 
L 100.968561 65.748763 
L 101.373071 55.057479 
L 101.777581 52.806682 
L 102.182091 53.369382 
L 102.586601 48.586439 
L 102.991111 59.559072 
L 103.395621 58.715023 
L 103.800131 52.806682 
L 104.204641 57.026926 
L 104.609151 56.182877 
L 105.013661 62.372568 
L 105.418171 55.338829 
L 105.822681 52.525333 
L 106.227191 55.901528 
L 106.631701 58.152324 
L 107.036211 55.901528 
L 107.440721 50.274536 
L 107.845231 59.277723 
L 108.249741 56.745576 
L 108.654251 62.935267 
L 109.058761 53.369382 
L 109.463271 57.026926 
L 109.867781 49.993187 
L 110.272291 60.68447 
L 110.676801 53.088032 
L 111.081311 55.338829 
L 111.485821 44.366195 
L 111.890331 43.240797 
L 112.294841 41.5527 
L 112.699351 41.27135 
L 113.103861 41.834049 
L 113.508371 39.864602 
L 113.912881 39.301903 
L 114.317391 36.769757 
L 114.721901 37.332456 
L 115.530921 39.301903 
L 115.935431 43.803496 
L 116.339941 42.396748 
L 116.744451 49.993187 
L 117.148961 40.708651 
L 117.553471 47.461041 
L 117.957981 57.589625 
L 118.362491 52.806682 
L 118.767001 59.559072 
L 119.171511 58.715023 
L 119.576021 55.620178 
L 119.980531 51.118585 
L 120.385041 50.837235 
L 120.789551 62.372568 
L 121.194061 58.996373 
L 121.59857 57.026926 
L 122.00308 51.681284 
L 122.8121 55.901528 
L 123.21661 49.430488 
L 123.62112 62.091218 
L 124.02563 57.026926 
L 124.43014 55.338829 
L 124.83465 51.962634 
L 125.23916 49.711837 
L 125.64367 52.525333 
L 126.04818 57.026926 
L 126.45269 56.464227 
L 126.8572 55.620178 
L 127.26171 62.091218 
L 127.66622 47.179691 
L 128.07073 62.091218 
L 128.47524 57.589625 
L 128.87975 48.867788 
L 129.28426 37.332456 
L 129.68877 47.74239 
L 130.09328 46.054293 
L 130.49779 49.993187 
L 130.9023 55.901528 
L 131.30681 50.837235 
L 132.11583 54.776129 
L 132.52034 66.592811 
L 132.92485 58.715023 
L 133.32936 64.060665 
L 133.73387 79.534892 
L 134.13838 73.345201 
L 134.54289 69.969006 
L 134.9474 75.314648 
L 135.35191 70.250356 
L 135.75642 68.280909 
L 136.16093 65.186063 
L 136.56544 68.562258 
L 136.96995 68.562258 
L 137.37446 65.467413 
L 137.77897 60.403121 
L 138.18348 58.433674 
L 138.58799 63.779316 
L 138.9925 60.96582 
L 139.39701 73.345201 
L 139.80152 61.528519 
L 140.20603 64.904714 
L 140.61054 62.372568 
L 141.01505 58.152324 
L 141.41956 64.623364 
L 141.82407 63.216617 
L 142.22858 69.124957 
L 142.63309 62.091218 
L 143.0376 62.935267 
L 143.44211 68.562258 
L 143.84662 61.528519 
L 144.25113 65.748763 
L 145.060149 48.867788 
L 145.464659 45.491594 
L 145.869169 63.497966 
L 146.273679 56.745576 
L 146.678189 46.335642 
L 147.082699 66.311462 
L 147.487209 47.74239 
L 147.891719 59.840422 
L 148.700739 47.179691 
L 149.105249 66.592811 
L 149.509759 53.088032 
L 149.914269 52.243983 
L 150.318779 59.277723 
L 150.723289 55.338829 
L 151.127799 57.870975 
L 151.532309 51.399935 
L 151.936819 55.901528 
L 152.341329 52.525333 
L 152.745839 53.650731 
L 153.150349 58.996373 
L 153.554859 56.182877 
L 153.959369 49.711837 
L 154.363879 64.060665 
L 154.768389 49.711837 
L 155.172899 55.057479 
L 155.577409 54.21343 
L 155.981919 52.525333 
L 156.386429 61.24717 
L 156.790939 50.555886 
L 157.195449 66.874161 
L 157.599959 45.491594 
L 158.408979 53.369382 
L 158.813489 46.898342 
L 159.217999 59.277723 
L 159.622509 47.461041 
L 160.431529 54.21343 
L 160.836039 52.525333 
L 161.240549 66.030112 
L 162.049569 50.837235 
L 162.454079 49.430488 
L 162.858589 49.711837 
L 163.263099 54.776129 
L 163.667609 42.959448 
L 164.072119 52.806682 
L 164.476629 44.084846 
L 164.881139 53.650731 
L 165.285649 46.335642 
L 165.690159 53.932081 
L 166.094669 47.74239 
L 166.499179 53.088032 
L 166.903689 65.186063 
L 167.308199 58.152324 
L 167.712709 57.026926 
L 168.117219 57.870975 
L 168.521728 57.308276 
L 168.926238 55.620178 
L 169.330748 56.182877 
L 169.735258 54.21343 
L 170.139768 64.904714 
L 170.544278 53.088032 
L 170.948788 66.311462 
L 171.353298 53.932081 
L 171.757808 63.497966 
L 172.162318 51.681284 
L 172.971338 54.776129 
L 173.375848 54.21343 
L 173.780358 49.711837 
L 174.184868 55.338829 
L 174.589378 53.088032 
L 174.993888 54.776129 
L 175.398398 48.586439 
L 175.802908 58.996373 
L 176.207418 65.748763 
L 176.611928 48.586439 
L 177.016438 40.990001 
L 177.420948 44.928895 
L 178.229968 39.864602 
L 178.634478 46.054293 
L 179.038988 37.051107 
L 179.443498 35.08166 
L 179.848008 39.864602 
L 180.252518 34.237611 
L 180.657028 42.959448 
L 181.061538 28.61062 
L 181.466048 41.834049 
L 181.870558 41.27135 
L 182.275068 40.990001 
L 182.679578 44.084846 
L 183.488598 55.620178 
L 183.893108 62.372568 
L 184.297618 53.369382 
L 184.702128 50.555886 
L 185.106638 54.21343 
L 185.511148 43.522147 
L 185.915658 57.589625 
L 186.320168 48.02374 
L 186.724678 60.68447 
L 187.129188 52.243983 
L 187.533698 47.461041 
L 187.938208 55.057479 
L 188.342718 46.335642 
L 188.747228 50.555886 
L 189.151738 48.02374 
L 189.556248 60.96582 
L 189.960758 52.243983 
L 190.365268 47.179691 
L 190.769778 48.02374 
L 191.174288 56.745576 
L 191.578798 55.338829 
L 191.983307 56.464227 
L 192.387817 54.49478 
L 192.792327 51.118585 
L 193.196837 49.149138 
L 193.601347 50.274536 
L 194.005857 51.962634 
L 194.410367 41.27135 
L 194.814877 58.715023 
L 195.219387 46.616992 
L 195.623897 49.430488 
L 196.028407 42.959448 
L 196.432917 49.993187 
L 196.837427 51.962634 
L 197.241937 53.369382 
L 197.646447 54.21343 
L 198.050957 63.779316 
L 198.455467 54.776129 
L 198.859977 75.595998 
L 199.264487 64.623364 
L 199.668997 67.999559 
L 200.073507 80.37894 
L 200.478017 71.094404 
L 200.882527 71.657104 
L 201.287037 69.969006 
L 201.691547 65.186063 
L 202.096057 65.467413 
L 202.500567 62.372568 
L 202.905077 68.280909 
L 203.309587 65.748763 
L 203.714097 56.745576 
L 204.118607 63.216617 
L 204.523117 62.935267 
L 204.927627 60.403121 
L 205.736647 67.43686 
L 206.141157 57.870975 
L 206.545667 59.559072 
L 206.950177 69.969006 
L 207.354687 59.840422 
L 207.759197 56.464227 
L 208.163707 55.057479 
L 208.568217 69.687657 
L 208.972727 60.68447 
L 209.377237 57.308276 
L 209.781747 58.433674 
L 210.590767 53.369382 
L 210.995277 53.088032 
L 211.399787 44.647545 
L 211.804297 52.806682 
L 212.208807 48.867788 
L 212.613317 53.088032 
L 213.017827 51.681284 
L 213.422337 54.49478 
L 213.826847 48.586439 
L 214.231357 56.182877 
L 214.635867 61.528519 
L 215.040377 55.338829 
L 215.444886 52.806682 
L 215.849396 57.308276 
L 216.253906 54.776129 
L 216.658416 55.338829 
L 217.062926 57.308276 
L 217.467436 51.681284 
L 217.871946 52.525333 
L 218.276456 58.152324 
L 218.680966 53.650731 
L 219.085476 53.650731 
L 219.489986 58.433674 
L 219.894496 50.837235 
L 220.703516 48.305089 
L 221.108026 63.216617 
L 221.512536 50.274536 
L 221.917046 58.715023 
L 222.321556 49.149138 
L 222.726066 48.305089 
L 223.130576 54.21343 
L 223.535086 46.898342 
L 223.939596 48.02374 
L 224.344106 46.335642 
L 225.153126 55.620178 
L 225.557636 51.399935 
L 225.962146 61.24717 
L 226.366656 50.837235 
L 226.771166 44.366195 
L 227.175676 50.837235 
L 227.580186 49.149138 
L 227.984696 43.240797 
L 228.389206 48.305089 
L 228.793716 50.274536 
L 229.198226 51.118585 
L 229.602736 52.525333 
L 230.007246 45.772943 
L 230.411756 51.118585 
L 230.816266 50.274536 
L 231.220776 59.277723 
L 231.625286 63.779316 
L 232.029796 64.623364 
L 232.434306 55.901528 
L 232.838816 56.182877 
L 233.243326 58.152324 
L 233.647836 55.338829 
L 234.052346 58.715023 
L 234.456856 48.586439 
L 234.861366 48.586439 
L 235.265876 57.870975 
L 235.670386 55.338829 
L 236.074896 54.49478 
L 236.479406 54.49478 
L 236.883916 50.837235 
L 237.288426 62.935267 
L 237.692936 59.277723 
L 238.097446 53.088032 
L 238.501956 52.243983 
L 238.906465 50.555886 
L 239.310975 58.152324 
L 240.119995 50.555886 
L 240.524505 59.840422 
L 240.929015 47.461041 
L 241.738035 58.433674 
L 242.142545 55.620178 
L 242.547055 42.959448 
L 242.951565 52.243983 
L 243.356075 41.834049 
L 243.760585 38.457854 
L 244.165095 37.332456 
L 244.569605 29.173319 
L 244.974115 35.08166 
L 245.378625 33.112213 
L 245.783135 34.80031 
L 246.187645 46.054293 
L 246.592155 37.051107 
L 246.996665 45.772943 
L 247.401175 41.27135 
L 247.805685 41.834049 
L 248.614705 47.74239 
L 249.019215 48.02374 
L 249.423725 58.715023 
L 249.828235 47.461041 
L 250.232745 54.776129 
L 250.637255 64.904714 
L 251.041765 53.369382 
L 251.446275 52.806682 
L 251.850785 56.745576 
L 252.255295 51.962634 
L 252.659805 54.21343 
L 253.468825 42.959448 
L 253.873335 54.49478 
L 254.277845 50.555886 
L 254.682355 49.711837 
L 255.491375 57.308276 
L 255.895885 48.586439 
L 256.300395 48.586439 
L 256.704905 58.996373 
L 257.109415 46.054293 
L 257.513925 53.369382 
L 257.918435 56.182877 
L 258.322945 53.088032 
L 258.727455 51.118585 
L 259.131965 57.308276 
L 259.536475 47.74239 
L 259.940985 49.993187 
L 260.345495 46.616992 
L 260.750005 44.928895 
L 261.154515 45.210244 
L 261.559025 50.555886 
L 261.963535 49.711837 
L 262.368044 63.216617 
L 262.772554 61.24717 
L 263.177064 47.74239 
L 263.986084 61.528519 
L 264.390594 60.403121 
L 264.795104 62.091218 
L 265.199614 75.595998 
L 265.604124 68.843608 
L 266.008634 73.345201 
L 266.413144 61.24717 
L 266.817654 65.748763 
L 267.222164 62.653917 
L 267.626674 63.497966 
L 268.031184 61.809869 
L 268.435694 61.528519 
L 268.840204 65.186063 
L 269.244714 58.152324 
L 269.649224 61.24717 
L 270.053734 58.715023 
L 270.458244 49.149138 
L 270.862754 57.589625 
L 271.267264 57.026926 
L 271.671774 57.870975 
L 272.076284 61.809869 
L 272.480794 58.152324 
L 272.885304 60.121771 
L 273.289814 51.681284 
L 273.694324 58.433674 
L 274.098834 58.715023 
L 274.503344 61.24717 
L 274.907854 61.809869 
L 275.312364 58.433674 
L 275.716874 50.837235 
L 276.121384 54.49478 
L 276.525894 50.274536 
L 276.930404 51.118585 
L 277.739424 62.372568 
L 278.143934 44.928895 
L 278.548444 43.522147 
L 278.952954 48.305089 
L 279.357464 51.681284 
L 279.761974 57.026926 
L 280.570994 45.210244 
L 280.975504 62.653917 
L 281.380014 48.02374 
L 281.784524 54.21343 
L 282.189034 53.369382 
L 282.998054 52.806682 
L 283.402564 48.305089 
L 283.807074 46.054293 
L 284.211584 53.369382 
L 284.616094 50.555886 
L 285.020604 49.711837 
L 285.829623 54.21343 
L 286.234133 50.555886 
L 286.638643 50.274536 
L 287.043153 51.962634 
L 287.447663 47.74239 
L 288.256683 57.589625 
L 288.661193 46.616992 
L 289.065703 50.837235 
L 289.470213 46.616992 
L 289.874723 59.277723 
L 290.279233 55.901528 
L 290.683743 59.277723 
L 291.088253 59.277723 
L 291.492763 44.647545 
L 291.897273 47.179691 
L 292.301783 55.338829 
L 292.706293 58.433674 
L 293.110803 40.990001 
L 293.515313 49.993187 
L 293.919823 49.993187 
L 294.324333 44.084846 
L 294.728843 49.993187 
L 295.133353 45.210244 
L 295.537863 56.182877 
L 296.346883 45.772943 
L 296.751393 51.118585 
L 297.155903 43.240797 
L 297.560413 49.430488 
L 297.964923 49.711837 
L 298.369433 59.840422 
L 298.773943 54.776129 
L 299.178453 62.653917 
L 299.582963 55.620178 
L 299.987473 52.806682 
L 300.391983 54.49478 
L 300.796493 62.935267 
L 301.201003 52.806682 
L 301.605513 45.772943 
L 302.010023 50.555886 
L 302.414533 52.243983 
L 302.819043 51.681284 
L 303.223553 44.647545 
L 303.628063 54.21343 
L 304.032573 47.179691 
L 304.437083 51.962634 
L 304.841593 47.461041 
L 305.246103 57.870975 
L 305.650613 53.369382 
L 306.055123 51.681284 
L 306.459633 52.525333 
L 306.864143 52.243983 
L 307.268653 53.650731 
L 307.673163 53.650731 
L 308.077673 47.179691 
L 308.482183 50.837235 
L 308.886693 46.616992 
L 309.291202 38.176505 
L 309.695712 36.769757 
L 310.100222 42.959448 
L 310.504732 34.80031 
L 310.909242 33.956261 
L 311.313752 34.51896 
L 311.718262 34.237611 
L 312.122772 44.928895 
L 312.527282 35.644359 
L 312.931792 49.430488 
L 313.336302 41.5527 
L 313.740812 43.522147 
L 314.145322 46.335642 
L 314.549832 59.840422 
L 314.954342 60.403121 
L 315.358852 68.843608 
L 315.763362 47.179691 
L 316.572382 60.121771 
L 316.976892 39.864602 
L 317.381402 46.616992 
L 317.785912 56.745576 
L 318.190422 50.837235 
L 318.594932 49.149138 
L 318.999442 46.054293 
L 319.403952 56.182877 
L 319.808462 42.396748 
L 320.212972 48.586439 
L 320.617482 42.678098 
L 321.021992 64.904714 
L 321.426502 51.681284 
L 321.831012 48.02374 
L 322.235522 61.528519 
L 323.044542 46.898342 
L 323.449052 62.091218 
L 323.853562 51.962634 
L 324.258072 53.932081 
L 324.662582 50.555886 
L 325.067092 44.084846 
L 325.471602 50.837235 
L 325.876112 36.207058 
L 326.685132 49.711837 
L 327.089642 42.959448 
L 327.494152 55.338829 
L 327.898662 59.840422 
L 328.303172 53.088032 
L 328.707682 54.21343 
L 329.112192 50.837235 
L 329.516702 56.182877 
L 329.921212 55.338829 
L 330.325722 64.060665 
L 330.730232 65.748763 
L 331.134742 60.121771 
L 331.539252 67.999559 
L 331.943762 66.592811 
L 332.348272 73.345201 
L 332.752781 64.060665 
L 333.157291 61.528519 
L 333.561801 67.43686 
L 333.966311 60.96582 
L 334.370821 63.779316 
L 334.775331 60.96582 
L 335.179841 64.060665 
L 335.584351 63.779316 
L 335.988861 57.026926 
L 336.393371 66.592811 
L 336.797881 57.870975 
L 337.202391 55.620178 
L 337.606901 60.403121 
L 338.011411 58.152324 
L 338.415921 57.870975 
L 338.820431 58.433674 
L 339.224941 56.464227 
L 339.629451 56.464227 
L 340.438471 55.338829 
L 340.842981 64.342015 
L 341.247491 54.776129 
L 341.652001 53.932081 
L 342.056511 52.525333 
L 342.461021 49.149138 
L 343.270041 58.152324 
L 343.674551 50.555886 
L 344.079061 51.399935 
L 344.483571 61.528519 
L 344.888081 42.959448 
L 345.697101 54.776129 
L 346.101611 52.806682 
L 346.506121 51.681284 
L 346.910631 51.399935 
L 347.315141 53.932081 
L 347.719651 57.870975 
L 348.124161 51.399935 
L 348.528671 51.118585 
L 348.933181 49.149138 
L 349.337691 49.149138 
L 349.742201 50.274536 
L 350.551221 44.366195 
L 350.955731 60.96582 
L 351.360241 60.96582 
L 351.764751 50.837235 
L 352.169261 53.369382 
L 352.573771 54.21343 
L 352.978281 48.867788 
L 353.382791 52.806682 
L 353.787301 46.616992 
L 354.191811 67.43686 
L 354.596321 48.305089 
L 355.000831 56.464227 
L 355.405341 46.898342 
L 355.809851 52.806682 
L 356.21436 67.43686 
L 356.61887 53.369382 
L 357.02338 49.711837 
L 357.42789 49.149138 
L 357.8324 60.68447 
L 358.23691 60.68447 
L 358.64142 43.522147 
L 359.04593 55.057479 
L 359.45044 61.24717 
L 359.85495 59.559072 
L 360.25946 51.399935 
L 361.06848 46.616992 
L 361.47299 48.02374 
L 361.8775 47.179691 
L 362.28201 58.996373 
L 362.68652 49.430488 
L 363.09103 48.867788 
L 363.49554 46.054293 
L 363.90005 52.243983 
L 364.30456 63.216617 
L 364.70907 50.837235 
L 365.11358 51.962634 
L 365.51809 51.399935 
L 365.9226 55.901528 
L 366.32711 58.996373 
L 366.73162 49.430488 
L 367.13613 53.650731 
L 367.54064 53.650731 
L 367.94515 52.806682 
L 368.75417 52.243983 
L 369.15868 52.243983 
L 369.56319 46.054293 
L 369.9677 50.837235 
L 370.37221 51.118585 
L 370.77672 49.711837 
L 371.18123 55.338829 
L 371.58574 47.461041 
L 371.99025 44.366195 
L 372.39476 51.681284 
L 372.79927 50.837235 
L 373.20378 46.335642 
L 373.60829 48.867788 
L 374.0128 45.491594 
L 374.41731 30.017367 
L 374.82182 36.488407 
L 375.22633 36.207058 
L 375.63084 33.393562 
L 376.03535 17.919336 
L 376.43986 33.393562 
L 376.84437 34.237611 
L 377.24888 34.80031 
L 377.65339 37.332456 
L 378.0579 28.32927 
L 378.46241 41.5527 
L 378.86692 40.990001 
L 379.27143 46.335642 
L 379.675939 48.867788 
L 380.080449 53.369382 
L 380.484959 50.555886 
L 380.889469 55.901528 
L 381.293979 54.21343 
L 381.698489 49.711837 
L 382.102999 48.305089 
L 382.507509 54.49478 
L 382.912019 41.5527 
L 383.316529 53.088032 
L 383.721039 53.650731 
L 384.125549 51.962634 
L 384.530059 48.02374 
L 384.934569 49.430488 
L 385.339079 66.874161 
L 385.743589 54.21343 
L 386.148099 49.711837 
L 386.552609 60.96582 
L 386.957119 51.399935 
L 387.361629 60.96582 
L 387.766139 53.650731 
L 388.170649 49.149138 
L 388.575159 54.776129 
L 388.979669 52.525333 
L 389.384179 52.525333 
L 389.788689 51.399935 
L 390.193199 46.616992 
L 390.597709 46.616992 
L 391.002219 55.620178 
L 391.406729 48.586439 
L 391.811239 36.488407 
L 392.215749 48.305089 
L 392.620259 50.837235 
L 393.024769 52.243983 
L 393.429279 47.74239 
L 393.833789 47.74239 
L 394.238299 62.935267 
L 394.642809 49.993187 
L 395.047319 54.776129 
L 395.451829 57.026926 
L 395.856339 61.809869 
L 396.665359 64.904714 
L 397.069869 63.779316 
L 397.474379 66.592811 
L 397.878889 71.938453 
L 398.283399 63.497966 
L 398.687909 58.433674 
L 399.092419 65.186063 
L 399.496929 57.589625 
L 399.901439 57.026926 
L 400.305949 57.026926 
L 400.710459 58.715023 
L 401.114969 52.243983 
L 401.519479 57.026926 
L 402.328499 54.49478 
L 402.733009 60.121771 
L 403.137518 62.372568 
L 403.542028 51.962634 
L 403.946538 52.525333 
L 404.351048 57.308276 
L 404.755558 54.49478 
L 405.160068 60.403121 
L 405.564578 53.369382 
L 405.969088 57.026926 
L 406.373598 50.274536 
L 406.778108 51.399935 
L 407.182618 48.867788 
L 407.587128 48.867788 
L 408.396148 51.962634 
L 408.800658 58.152324 
L 409.205168 50.837235 
L 409.609678 53.088032 
L 410.014188 47.461041 
L 410.418698 46.335642 
L 411.227718 53.650731 
L 411.632228 38.739204 
L 412.036738 54.49478 
L 412.441248 52.525333 
L 412.845758 53.088032 
L 413.250268 39.864602 
L 413.654778 57.870975 
L 414.059288 48.02374 
L 414.463798 51.399935 
L 414.868308 42.959448 
L 415.272818 50.837235 
L 415.677328 49.711837 
L 416.081838 50.274536 
L 416.486348 49.430488 
L 416.890858 50.274536 
L 417.295368 49.711837 
L 417.699878 49.993187 
L 418.104388 52.243983 
L 418.508898 49.430488 
L 418.913408 44.647545 
L 419.317918 51.118585 
L 419.722428 60.96582 
L 420.126938 51.962634 
L 420.531448 53.650731 
L 420.935958 58.996373 
L 421.340468 59.277723 
L 422.149488 43.240797 
L 422.553998 41.5527 
L 422.958508 54.49478 
L 423.363018 45.210244 
L 423.767528 52.806682 
L 424.172038 55.338829 
L 424.576548 55.901528 
L 424.981058 46.616992 
L 425.385568 48.02374 
L 425.790078 42.959448 
L 426.194588 51.681284 
L 426.599097 31.142766 
L 427.003607 51.399935 
L 427.408117 41.834049 
L 427.812627 44.647545 
L 428.217137 50.274536 
L 428.621647 49.711837 
L 429.026157 56.745576 
L 429.430667 46.054293 
L 429.835177 53.088032 
L 430.239687 56.745576 
L 430.644197 52.243983 
L 431.048707 55.057479 
L 431.453217 57.026926 
L 431.857727 52.806682 
L 431.857727 52.806682 
" clip-path="url(#p79471be368)" style="fill: none; stroke: #1f77b4; stroke-width: 1.5; stroke-linecap: square"/>
   </g>
   <g id="line2d_14">
    <path d="M 69.012273 59.559072 
L 70.225803 45.491594 
L 70.630313 51.681284 
L 71.034823 42.115399 
L 71.843843 63.216617 
L 72.248353 48.305089 
L 73.057373 52.525333 
L 73.461883 45.210244 
L 73.866393 57.589625 
L 74.270903 49.711837 
L 74.675412 46.335642 
L 75.079922 41.834049 
L 75.484432 48.586439 
L 75.888942 52.806682 
L 76.293452 60.68447 
L 76.697962 53.932081 
L 77.102472 53.932081 
L 77.506982 49.149138 
L 77.911492 56.745576 
L 78.316002 60.121771 
L 78.720512 48.586439 
L 79.125022 51.962634 
L 79.529532 54.21343 
L 79.934042 47.461041 
L 80.338552 56.464227 
L 80.743062 48.586439 
L 81.147572 48.305089 
L 81.552082 52.525333 
L 81.956592 39.301903 
L 82.765612 65.186063 
L 83.170122 48.867788 
L 83.574632 62.091218 
L 83.979142 55.620178 
L 84.383652 63.216617 
L 84.788162 52.806682 
L 85.597182 41.27135 
L 86.001692 54.776129 
L 86.406202 51.118585 
L 86.810712 48.586439 
L 87.215222 43.240797 
L 87.619732 47.74239 
L 88.024242 56.182877 
L 88.833262 46.616992 
L 89.237772 48.867788 
L 89.642282 62.372568 
L 90.046792 51.681284 
L 90.451302 51.399935 
L 90.855812 48.867788 
L 91.260322 70.531705 
L 91.664832 46.335642 
L 92.069342 55.057479 
L 92.473852 54.776129 
L 92.878362 53.369382 
L 93.687382 47.461041 
L 94.091892 44.928895 
L 94.496402 50.555886 
L 94.900912 47.74239 
L 95.305422 37.895155 
L 95.709932 45.772943 
L 96.114442 47.461041 
L 96.518952 53.650731 
L 97.327972 44.366195 
L 98.136991 53.650731 
L 98.541501 40.145952 
L 98.946011 64.342015 
L 99.350521 67.71821 
L 99.755031 54.21343 
L 100.159541 51.962634 
L 100.564051 51.962634 
L 100.968561 50.837235 
L 101.373071 51.399935 
L 101.777581 58.433674 
L 102.182091 50.555886 
L 102.586601 57.870975 
L 102.991111 44.366195 
L 103.395621 53.650731 
L 103.800131 53.088032 
L 104.204641 57.308276 
L 104.609151 48.586439 
L 105.013661 45.491594 
L 105.418171 49.149138 
L 105.822681 49.149138 
L 106.227191 57.870975 
L 106.631701 43.522147 
L 107.036211 56.464227 
L 107.440721 60.121771 
L 107.845231 55.901528 
L 108.249741 63.216617 
L 108.654251 51.962634 
L 109.058761 50.837235 
L 109.463271 44.647545 
L 109.867781 47.461041 
L 110.272291 46.335642 
L 110.676801 36.769757 
L 111.081311 36.488407 
L 111.485821 35.363009 
L 111.890331 17.919336 
L 112.294841 36.207058 
L 112.699351 38.739204 
L 113.508371 35.08166 
L 113.912881 37.332456 
L 114.317391 40.990001 
L 114.721901 41.5527 
L 115.935431 49.711837 
L 116.339941 55.620178 
L 116.744451 49.149138 
L 117.148961 56.464227 
L 117.553471 51.962634 
L 117.957981 50.274536 
L 118.362491 61.809869 
L 118.767001 49.711837 
L 119.171511 62.091218 
L 119.576021 56.464227 
L 119.980531 48.02374 
L 120.385041 55.338829 
L 120.789551 42.678098 
L 121.194061 52.525333 
L 121.59857 51.962634 
L 122.00308 42.959448 
L 122.40759 66.874161 
L 122.8121 46.616992 
L 123.62112 59.277723 
L 124.02563 48.02374 
L 124.43014 48.586439 
L 124.83465 48.02374 
L 125.23916 54.776129 
L 125.64367 50.274536 
L 126.04818 54.776129 
L 126.45269 47.74239 
L 126.8572 49.711837 
L 127.26171 41.5527 
L 128.07073 50.837235 
L 128.47524 35.925708 
L 128.87975 42.115399 
L 129.28426 60.96582 
L 129.68877 46.898342 
L 130.09328 46.054293 
L 130.49779 49.993187 
L 130.9023 51.118585 
L 131.30681 67.15551 
L 131.71132 55.057479 
L 132.11583 54.21343 
L 132.52034 67.71821 
L 132.92485 65.467413 
L 133.32936 62.372568 
L 133.73387 64.623364 
L 134.13838 62.091218 
L 134.54289 64.904714 
L 134.9474 61.809869 
L 135.75642 58.715023 
L 136.16093 58.433674 
L 136.56544 55.620178 
L 136.96995 56.745576 
L 137.37446 56.464227 
L 138.18348 48.305089 
L 138.58799 57.308276 
L 138.9925 56.745576 
L 139.39701 61.528519 
L 139.80152 53.088032 
L 140.20603 53.650731 
L 140.61054 59.559072 
L 141.01505 60.68447 
L 141.41956 55.338829 
L 141.82407 58.433674 
L 142.22858 63.779316 
L 142.63309 53.650731 
L 143.0376 52.525333 
L 143.44211 53.369382 
L 143.84662 44.647545 
L 144.25113 44.084846 
L 144.65564 54.776129 
L 145.060149 50.837235 
L 145.464659 53.088032 
L 145.869169 48.867788 
L 146.273679 47.461041 
L 146.678189 44.647545 
L 147.082699 49.993187 
L 147.487209 45.210244 
L 147.891719 56.464227 
L 148.296229 57.026926 
L 148.700739 50.555886 
L 149.105249 49.430488 
L 149.509759 55.338829 
L 149.914269 52.525333 
L 150.318779 48.867788 
L 150.723289 65.748763 
L 151.127799 51.681284 
L 151.532309 49.711837 
L 151.936819 54.49478 
L 152.341329 51.118585 
L 152.745839 50.555886 
L 153.150349 48.867788 
L 153.554859 62.372568 
L 153.959369 50.837235 
L 154.363879 49.149138 
L 154.768389 44.928895 
L 155.172899 48.586439 
L 155.577409 48.586439 
L 155.981919 61.528519 
L 156.386429 48.305089 
L 156.790939 57.026926 
L 157.599959 49.993187 
L 158.004469 56.182877 
L 158.408979 53.088032 
L 158.813489 55.620178 
L 159.217999 50.837235 
L 159.622509 55.057479 
L 160.027019 46.054293 
L 160.431529 48.867788 
L 160.836039 49.149138 
L 161.240549 50.555886 
L 161.645059 41.834049 
L 162.454079 53.088032 
L 162.858589 52.525333 
L 163.263099 47.461041 
L 163.667609 47.74239 
L 164.072119 47.74239 
L 164.476629 49.711837 
L 164.881139 55.338829 
L 165.285649 48.305089 
L 165.690159 60.121771 
L 166.094669 51.399935 
L 166.499179 53.088032 
L 166.903689 49.711837 
L 167.308199 61.528519 
L 167.712709 65.467413 
L 168.117219 51.118585 
L 168.521728 48.586439 
L 168.926238 51.681284 
L 169.330748 51.962634 
L 169.735258 46.616992 
L 170.139768 54.21343 
L 170.948788 48.586439 
L 171.353298 49.993187 
L 171.757808 52.806682 
L 172.162318 52.243983 
L 172.566828 42.396748 
L 173.375848 53.650731 
L 173.780358 50.555886 
L 174.184868 48.867788 
L 174.589378 59.277723 
L 174.993888 57.589625 
L 175.398398 51.962634 
L 175.802908 44.084846 
L 176.207418 42.115399 
L 176.611928 32.549513 
L 177.016438 41.27135 
L 177.420948 33.674912 
L 177.825458 35.925708 
L 178.229968 40.145952 
L 178.634478 31.705465 
L 179.038988 37.895155 
L 179.443498 29.736018 
L 179.848008 36.769757 
L 180.252518 30.580066 
L 181.061538 44.647545 
L 181.466048 42.959448 
L 181.870558 50.274536 
L 182.275068 39.864602 
L 182.679578 55.901528 
L 183.084088 43.522147 
L 183.488598 62.653917 
L 183.893108 52.525333 
L 184.297618 57.589625 
L 184.702128 45.210244 
L 185.106638 51.118585 
L 185.511148 47.74239 
L 185.915658 50.555886 
L 186.320168 51.118585 
L 186.724678 67.43686 
L 187.129188 60.96582 
L 187.533698 46.898342 
L 187.938208 45.491594 
L 188.342718 50.274536 
L 188.747228 43.522147 
L 189.151738 49.993187 
L 189.556248 44.084846 
L 189.960758 67.999559 
L 190.365268 49.430488 
L 190.769778 46.335642 
L 191.174288 55.338829 
L 191.578798 58.152324 
L 191.983307 51.118585 
L 192.387817 49.993187 
L 192.792327 42.396748 
L 193.196837 44.366195 
L 193.601347 55.338829 
L 194.005857 44.647545 
L 194.410367 38.739204 
L 195.219387 50.274536 
L 195.623897 35.644359 
L 196.432917 55.338829 
L 196.837427 39.020554 
L 197.241937 50.837235 
L 197.646447 44.366195 
L 198.455467 64.060665 
L 198.859977 61.809869 
L 199.264487 63.497966 
L 199.668997 62.091218 
L 200.073507 63.779316 
L 200.478017 58.152324 
L 200.882527 62.935267 
L 201.287037 55.338829 
L 201.691547 68.280909 
L 202.096057 62.091218 
L 202.500567 60.121771 
L 202.905077 60.96582 
L 203.309587 57.026926 
L 203.714097 55.620178 
L 204.118607 56.182877 
L 204.523117 61.809869 
L 204.927627 57.026926 
L 205.332137 56.464227 
L 205.736647 51.118585 
L 206.141157 55.901528 
L 206.545667 56.464227 
L 206.950177 53.088032 
L 207.354687 53.650731 
L 207.759197 62.935267 
L 208.163707 57.870975 
L 208.568217 54.776129 
L 208.972727 53.932081 
L 209.377237 57.870975 
L 209.781747 56.182877 
L 210.186257 48.02374 
L 210.590767 46.616992 
L 210.995277 49.711837 
L 211.399787 46.616992 
L 211.804297 42.115399 
L 212.208807 53.369382 
L 212.613317 47.461041 
L 213.017827 45.210244 
L 213.422337 46.898342 
L 213.826847 51.118585 
L 214.231357 44.084846 
L 214.635867 60.403121 
L 215.444886 42.396748 
L 215.849396 49.149138 
L 216.253906 50.837235 
L 216.658416 42.959448 
L 217.062926 51.681284 
L 217.467436 54.21343 
L 218.276456 48.305089 
L 218.680966 48.02374 
L 219.085476 52.243983 
L 219.489986 44.084846 
L 219.894496 53.650731 
L 220.299006 51.681284 
L 220.703516 48.02374 
L 221.108026 50.555886 
L 221.512536 48.586439 
L 221.917046 51.399935 
L 222.321556 46.616992 
L 222.726066 47.461041 
L 223.130576 49.430488 
L 223.535086 50.274536 
L 223.939596 56.182877 
L 224.344106 59.277723 
L 224.748616 52.243983 
L 225.153126 50.837235 
L 225.557636 46.335642 
L 225.962146 38.176505 
L 226.366656 49.430488 
L 226.771166 34.80031 
L 227.175676 53.650731 
L 227.580186 39.864602 
L 227.984696 64.342015 
L 228.389206 39.301903 
L 228.793716 51.962634 
L 229.198226 39.583253 
L 230.007246 56.745576 
L 230.411756 47.74239 
L 230.816266 55.620178 
L 231.220776 48.586439 
L 231.625286 51.681284 
L 232.029796 48.586439 
L 232.434306 54.776129 
L 232.838816 46.054293 
L 233.243326 49.993187 
L 234.052346 53.932081 
L 234.456856 47.179691 
L 234.861366 50.837235 
L 235.670386 48.867788 
L 236.074896 52.525333 
L 236.479406 48.02374 
L 236.883916 56.745576 
L 237.288426 48.867788 
L 237.692936 47.461041 
L 238.097446 52.243983 
L 238.906465 45.210244 
L 239.310975 47.179691 
L 239.715485 46.054293 
L 240.119995 55.057479 
L 240.929015 40.990001 
L 241.333525 42.396748 
L 241.738035 37.613806 
L 242.142545 37.895155 
L 242.951565 28.32927 
L 243.356075 27.485221 
L 243.760585 40.427301 
L 244.165095 22.702279 
L 244.569605 41.5527 
L 244.974115 37.051107 
L 245.378625 35.925708 
L 245.783135 35.363009 
L 246.187645 31.705465 
L 246.592155 33.393562 
L 246.996665 32.830863 
L 247.401175 47.461041 
L 247.805685 44.647545 
L 248.210195 55.057479 
L 248.614705 47.74239 
L 249.019215 46.054293 
L 249.423725 65.186063 
L 249.828235 46.898342 
L 250.232745 53.932081 
L 250.637255 46.616992 
L 251.041765 43.803496 
L 251.446275 43.522147 
L 251.850785 44.084846 
L 252.255295 47.74239 
L 252.659805 48.305089 
L 253.064315 46.335642 
L 253.468825 47.461041 
L 253.873335 51.681284 
L 254.277845 51.681284 
L 254.682355 46.898342 
L 255.086865 46.054293 
L 255.491375 52.525333 
L 255.895885 48.586439 
L 256.300395 64.904714 
L 256.704905 53.369382 
L 257.109415 61.809869 
L 257.513925 54.776129 
L 257.918435 60.68447 
L 258.322945 58.433674 
L 258.727455 57.589625 
L 259.131965 55.620178 
L 259.536475 55.620178 
L 259.940985 56.745576 
L 260.345495 56.182877 
L 260.750005 57.589625 
L 261.154515 59.840422 
L 261.559025 61.24717 
L 262.368044 66.592811 
L 262.772554 70.250356 
L 263.177064 72.501152 
L 263.986084 79.253542 
L 264.390594 83.755135 
L 265.199614 90.507525 
L 265.604124 91.914273 
L 266.008634 92.195622 
L 266.413144 91.070224 
L 266.817654 91.070224 
L 269.244714 92.758321 
L 269.649224 93.32102 
L 270.862754 94.165069 
L 271.267264 94.727768 
L 272.480794 95.571817 
L 272.885304 97.541264 
L 273.289814 96.134516 
L 273.694324 98.103963 
L 274.098834 97.822613 
L 274.503344 97.822613 
L 275.312364 94.727768 
L 275.716874 95.853167 
L 276.525894 91.914273 
L 276.930404 91.070224 
L 277.739424 93.60237 
L 278.143934 91.914273 
L 278.548444 91.070224 
L 279.357464 92.195622 
L 279.761974 93.88372 
L 280.166484 91.070224 
L 280.570994 95.853167 
L 280.975504 96.697215 
L 281.784524 99.229361 
L 282.189034 99.510711 
L 282.593544 98.948012 
L 282.998054 98.948012 
L 283.402564 99.229361 
L 283.807074 100.35476 
L 284.211584 99.510711 
L 284.616094 100.07341 
L 285.020604 100.07341 
L 287.852173 102.042857 
L 288.256683 103.449605 
L 288.661193 102.324207 
L 289.874723 103.168255 
L 290.279233 101.480158 
L 290.683743 100.917459 
L 291.088253 99.79206 
L 291.492763 96.134516 
L 291.897273 97.822613 
L 292.706293 95.290467 
L 293.110803 95.853167 
L 293.515313 95.853167 
L 293.919823 91.914273 
L 294.324333 96.697215 
L 294.728843 97.822613 
L 295.133353 98.103963 
L 295.942373 99.229361 
L 296.346883 96.978565 
L 296.751393 102.605556 
L 297.155903 105.981751 
L 297.560413 106.263101 
L 297.964923 106.8258 
L 298.369433 108.513897 
L 298.773943 109.076596 
L 299.582963 109.639295 
L 299.987473 109.357946 
L 300.391983 109.920645 
L 300.796493 109.639295 
L 301.201003 109.639295 
L 301.605513 111.608742 
L 302.010023 111.608742 
L 302.414533 110.201995 
L 302.819043 110.201995 
L 303.223553 110.483344 
L 303.628063 110.483344 
L 304.032573 112.734141 
L 304.437083 111.046043 
L 304.841593 111.608742 
L 305.246103 111.608742 
L 305.650613 111.327393 
L 306.055123 111.608742 
L 306.459633 113.29684 
L 306.864143 109.639295 
L 307.268653 107.669848 
L 308.482183 93.88372 
L 308.886693 92.476972 
L 309.291202 88.819427 
L 309.695712 87.975379 
L 310.100222 86.568631 
L 310.504732 86.84998 
L 310.909242 86.287281 
L 311.313752 87.412679 
L 311.718262 86.84998 
L 312.122772 90.226175 
L 312.931792 91.914273 
L 313.336302 97.259914 
L 313.740812 97.541264 
L 314.549832 103.168255 
L 314.954342 105.700401 
L 315.358852 106.54445 
L 315.763362 107.669848 
L 316.167872 105.419052 
L 316.976892 105.419052 
L 317.381402 107.107149 
L 317.785912 105.981751 
L 318.190422 107.388499 
L 318.594932 106.263101 
L 318.999442 106.54445 
L 319.403952 106.54445 
L 319.808462 108.232548 
L 320.212972 107.107149 
L 320.617482 108.513897 
L 321.021992 107.388499 
L 321.426502 107.388499 
L 321.831012 107.669848 
L 322.235522 109.357946 
L 322.640032 107.951198 
L 323.044542 105.137702 
L 323.449052 107.388499 
L 323.853562 106.263101 
L 324.258072 106.263101 
L 324.662582 106.54445 
L 325.067092 102.042857 
L 325.471602 100.636109 
L 325.876112 100.07341 
L 326.280622 100.07341 
L 326.685132 98.948012 
L 327.089642 101.198808 
L 327.494152 104.856353 
L 327.898662 104.012304 
L 328.303172 108.232548 
L 328.707682 107.669848 
L 329.112192 110.201995 
L 329.921212 116.954384 
L 330.325722 118.642482 
L 330.730232 120.893278 
L 331.134742 117.235734 
L 331.539252 125.394871 
L 331.943762 126.23892 
L 332.348272 123.706774 
L 332.752781 115.266287 
L 333.157291 128.771066 
L 333.561801 130.740513 
L 333.966311 122.862725 
L 334.370821 122.018676 
L 334.775331 122.862725 
L 335.179841 125.394871 
L 335.584351 114.140888 
L 335.988861 120.049229 
L 336.393371 116.954384 
L 336.797881 118.642482 
L 337.202391 116.391685 
L 337.606901 122.300026 
L 338.011411 115.828986 
L 338.415921 126.52027 
L 338.820431 118.361132 
L 339.224941 113.578189 
L 339.629451 125.676221 
L 340.033961 124.832172 
L 340.438471 114.703588 
L 340.842981 99.510711 
L 341.247491 111.327393 
L 341.652001 111.046043 
L 342.056511 110.201995 
L 342.461021 107.951198 
L 342.865531 112.734141 
L 343.270041 108.513897 
L 343.674551 107.669848 
L 344.079061 105.137702 
L 344.483571 107.669848 
L 344.888081 104.575003 
L 345.292591 105.700401 
L 345.697101 105.981751 
L 346.506121 104.856353 
L 346.910631 108.232548 
L 347.315141 107.669848 
L 348.124161 111.890092 
L 348.528671 107.669848 
L 348.933181 109.639295 
L 349.337691 106.8258 
L 349.742201 105.700401 
L 350.146711 99.79206 
L 350.551221 107.951198 
L 350.955731 103.730954 
L 351.360241 108.513897 
L 351.764751 104.856353 
L 352.169261 106.54445 
L 352.573771 103.168255 
L 352.978281 107.107149 
L 353.382791 104.856353 
L 353.787301 94.727768 
L 354.191811 96.978565 
L 354.596321 102.042857 
L 355.000831 104.856353 
L 355.405341 101.761507 
L 355.809851 103.168255 
L 356.21436 103.449605 
L 356.61887 98.385313 
L 357.02338 96.697215 
L 357.42789 86.287281 
L 357.8324 100.917459 
L 358.23691 100.07341 
L 359.04593 89.100777 
L 359.45044 90.226175 
L 359.85495 83.192436 
L 360.25946 95.290467 
L 360.66397 93.32102 
L 361.06848 91.914273 
L 361.47299 91.351573 
L 361.8775 91.914273 
L 362.28201 80.66029 
L 362.68652 100.917459 
L 363.09103 96.697215 
L 363.90005 99.79206 
L 364.30456 99.510711 
L 364.70907 104.293654 
L 365.11358 93.88372 
L 365.51809 97.541264 
L 365.9226 103.730954 
L 366.32711 91.632923 
L 366.73162 99.79206 
L 367.13613 87.13133 
L 367.54064 93.32102 
L 367.94515 101.480158 
L 368.75417 89.663476 
L 369.15868 95.853167 
L 369.56319 89.100777 
L 369.9677 97.541264 
L 370.77672 86.568631 
L 371.18123 96.697215 
L 371.58574 84.036485 
L 372.39476 91.914273 
L 372.79927 81.504338 
L 373.20378 89.100777 
L 373.60829 77.846794 
L 374.0128 69.969006 
L 374.41731 78.128144 
L 374.82182 65.467413 
L 375.22633 68.843608 
L 375.63084 64.060665 
L 376.03535 57.026926 
L 376.43986 72.782502 
L 376.84437 60.121771 
L 377.24888 78.972192 
L 377.65339 68.843608 
L 378.0579 53.088032 
L 378.46241 76.158697 
L 379.27143 65.467413 
L 379.675939 82.911086 
L 380.080449 71.375754 
L 380.484959 66.592811 
L 380.889469 74.751949 
L 381.293979 77.846794 
L 381.698489 91.351573 
L 382.507509 74.751949 
L 383.316529 67.71821 
L 383.721039 72.501152 
L 384.125549 67.999559 
L 384.530059 87.412679 
L 385.339079 74.751949 
L 386.552609 67.15551 
L 386.957119 62.935267 
L 387.361629 64.342015 
L 387.766139 62.935267 
L 388.170649 63.497966 
L 388.979669 68.843608 
L 389.384179 74.470599 
L 389.788689 71.094404 
L 390.193199 69.406307 
L 390.597709 59.559072 
L 391.002219 53.088032 
L 391.406729 58.996373 
L 391.811239 60.68447 
L 392.215749 59.840422 
L 393.024769 60.96582 
L 393.429279 61.809869 
L 393.833789 61.528519 
L 394.642809 69.687657 
L 395.047319 73.063851 
L 395.856339 92.476972 
L 396.260849 80.097591 
L 396.665359 78.972192 
L 397.069869 78.972192 
L 397.474379 89.100777 
L 397.878889 79.816241 
L 398.283399 80.097591 
L 398.687909 86.568631 
L 399.092419 76.158697 
L 399.496929 76.721396 
L 399.901439 87.412679 
L 400.305949 84.880533 
L 400.710459 71.938453 
L 401.114969 88.538078 
L 401.923989 75.595998 
L 402.328499 82.067038 
L 402.733009 72.782502 
L 403.137518 95.290467 
L 403.542028 72.501152 
L 403.946538 86.005932 
L 404.351048 77.846794 
L 404.755558 80.097591 
L 405.564578 76.721396 
L 405.969088 80.097591 
L 406.373598 70.250356 
L 406.778108 77.284095 
L 407.182618 72.782502 
L 407.587128 78.128144 
L 407.991638 69.406307 
L 408.396148 86.568631 
L 408.800658 62.091218 
L 409.205168 80.941639 
L 409.609678 66.874161 
L 410.014188 69.687657 
L 410.418698 67.71821 
L 410.823208 67.43686 
L 411.227718 63.779316 
L 411.632228 73.9079 
L 412.036738 62.372568 
L 412.441248 75.314648 
L 412.845758 60.121771 
L 413.250268 72.219803 
L 413.654778 70.250356 
L 414.059288 67.15551 
L 414.463798 84.317834 
L 414.868308 67.71821 
L 415.272818 70.250356 
L 415.677328 74.470599 
L 416.081838 60.121771 
L 416.486348 68.562258 
L 416.890858 66.592811 
L 417.295368 68.843608 
L 417.699878 70.250356 
L 418.104388 62.372568 
L 418.508898 67.71821 
L 418.913408 60.96582 
L 419.317918 68.280909 
L 419.722428 62.372568 
L 420.126938 65.186063 
L 420.531448 74.751949 
L 420.935958 60.96582 
L 421.340468 66.592811 
L 421.744978 68.843608 
L 422.149488 60.68447 
L 422.553998 66.592811 
L 422.958508 67.71821 
L 423.363018 57.026926 
L 424.172038 66.874161 
L 424.576548 52.525333 
L 424.981058 63.216617 
L 425.385568 61.809869 
L 425.790078 45.772943 
L 426.194588 55.338829 
L 426.599097 57.589625 
L 427.003607 57.308276 
L 427.408117 62.935267 
L 427.812627 58.433674 
L 428.217137 51.399935 
L 428.621647 66.311462 
L 429.026157 57.308276 
L 429.430667 64.623364 
L 429.835177 61.528519 
L 430.239687 62.935267 
L 430.644197 56.464227 
L 431.048707 62.653917 
L 431.857727 66.592811 
L 431.857727 66.592811 
" clip-path="url(#p79471be368)" style="fill: none; stroke: #ff7f0e; stroke-width: 1.5; stroke-linecap: square"/>
   </g>
   <g id="patch_3">
    <path d="M 50.87 136.381572 
L 50.87 12.278277 
" style="fill: none; stroke: #000000; stroke-width: 0.8; stroke-linejoin: miter; stroke-linecap: square"/>
   </g>
   <g id="patch_4">
    <path d="M 450 136.381572 
L 450 12.278277 
" style="fill: none; stroke: #000000; stroke-width: 0.8; stroke-linejoin: miter; stroke-linecap: square"/>
   </g>
   <g id="patch_5">
    <path d="M 50.87 136.381572 
L 450 136.381572 
" style="fill: none; stroke: #000000; stroke-width: 0.8; stroke-linejoin: miter; stroke-linecap: square"/>
   </g>
   <g id="patch_6">
    <path d="M 50.87 12.278277 
L 450 12.278277 
" style="fill: none; stroke: #000000; stroke-width: 0.8; stroke-linejoin: miter; stroke-linecap: square"/>
   </g>
   <g id="legend_1">
    <g id="patch_7">
     <path d="M 57.87 131.381572 
L 141.884062 131.381572 
Q 143.884062 131.381572 143.884062 129.381572 
L 143.884062 101.025322 
Q 143.884062 99.025322 141.884062 99.025322 
L 57.87 99.025322 
Q 55.87 99.025322 55.87 101.025322 
L 55.87 129.381572 
Q 55.87 131.381572 57.87 131.381572 
z
" style="fill: #ffffff; opacity: 0.8; stroke: #cccccc; stroke-linejoin: miter"/>
    </g>
    <g id="line2d_15">
     <path d="M 59.87 107.123759 
L 69.87 107.123759 
L 79.87 107.123759 
" style="fill: none; stroke: #1f77b4; stroke-width: 1.5; stroke-linecap: square"/>
    </g>
    <g id="text_15">
     <!-- webcam -->
     <g transform="translate(87.87 110.623759) scale(0.1 -0.1)">
      <defs>
       <path id="DejaVuSans-77" d="M 269 3500 
L 844 3500 
L 1563 769 
L 2278 3500 
L 2956 3500 
L 3675 769 
L 4391 3500 
L 4966 3500 
L 4050 0 
L 3372 0 
L 2619 2869 
L 1863 0 
L 1184 0 
L 269 3500 
z
" transform="scale(0.015625)"/>
       <path id="DejaVuSans-62" d="M 3116 1747 
Q 3116 2381 2855 2742 
Q 2594 3103 2138 3103 
Q 1681 3103 1420 2742 
Q 1159 2381 1159 1747 
Q 1159 1113 1420 752 
Q 1681 391 2138 391 
Q 2594 391 2855 752 
Q 3116 1113 3116 1747 
z
M 1159 2969 
Q 1341 3281 1617 3432 
Q 1894 3584 2278 3584 
Q 2916 3584 3314 3078 
Q 3713 2572 3713 1747 
Q 3713 922 3314 415 
Q 2916 -91 2278 -91 
Q 1894 -91 1617 61 
Q 1341 213 1159 525 
L 1159 0 
L 581 0 
L 581 4863 
L 1159 4863 
L 1159 2969 
z
" transform="scale(0.015625)"/>
       <path id="DejaVuSans-63" d="M 3122 3366 
L 3122 2828 
Q 2878 2963 2633 3030 
Q 2388 3097 2138 3097 
Q 1578 3097 1268 2742 
Q 959 2388 959 1747 
Q 959 1106 1268 751 
Q 1578 397 2138 397 
Q 2388 397 2633 464 
Q 2878 531 3122 666 
L 3122 134 
Q 2881 22 2623 -34 
Q 2366 -91 2075 -91 
Q 1284 -91 818 406 
Q 353 903 353 1747 
Q 353 2603 823 3093 
Q 1294 3584 2113 3584 
Q 2378 3584 2631 3529 
Q 2884 3475 3122 3366 
z
" transform="scale(0.015625)"/>
      </defs>
      <use xlink:href="#DejaVuSans-77"/>
      <use xlink:href="#DejaVuSans-65" x="81.787109"/>
      <use xlink:href="#DejaVuSans-62" x="143.310547"/>
      <use xlink:href="#DejaVuSans-63" x="206.787109"/>
      <use xlink:href="#DejaVuSans-61" x="261.767578"/>
      <use xlink:href="#DejaVuSans-6d" x="323.046875"/>
     </g>
    </g>
    <g id="line2d_16">
     <path d="M 59.87 121.801884 
L 69.87 121.801884 
L 79.87 121.801884 
" style="fill: none; stroke: #ff7f0e; stroke-width: 1.5; stroke-linecap: square"/>
    </g>
    <g id="text_16">
     <!-- fibrescope -->
     <g transform="translate(87.87 125.301884) scale(0.1 -0.1)">
      <defs>
       <path id="DejaVuSans-66" d="M 2375 4863 
L 2375 4384 
L 1825 4384 
Q 1516 4384 1395 4259 
Q 1275 4134 1275 3809 
L 1275 3500 
L 2222 3500 
L 2222 3053 
L 1275 3053 
L 1275 0 
L 697 0 
L 697 3053 
L 147 3053 
L 147 3500 
L 697 3500 
L 697 3744 
Q 697 4328 969 4595 
Q 1241 4863 1831 4863 
L 2375 4863 
z
" transform="scale(0.015625)"/>
       <path id="DejaVuSans-6f" d="M 1959 3097 
Q 1497 3097 1228 2736 
Q 959 2375 959 1747 
Q 959 1119 1226 758 
Q 1494 397 1959 397 
Q 2419 397 2687 759 
Q 2956 1122 2956 1747 
Q 2956 2369 2687 2733 
Q 2419 3097 1959 3097 
z
M 1959 3584 
Q 2709 3584 3137 3096 
Q 3566 2609 3566 1747 
Q 3566 888 3137 398 
Q 2709 -91 1959 -91 
Q 1206 -91 779 398 
Q 353 888 353 1747 
Q 353 2609 779 3096 
Q 1206 3584 1959 3584 
z
" transform="scale(0.015625)"/>
       <path id="DejaVuSans-70" d="M 1159 525 
L 1159 -1331 
L 581 -1331 
L 581 3500 
L 1159 3500 
L 1159 2969 
Q 1341 3281 1617 3432 
Q 1894 3584 2278 3584 
Q 2916 3584 3314 3078 
Q 3713 2572 3713 1747 
Q 3713 922 3314 415 
Q 2916 -91 2278 -91 
Q 1894 -91 1617 61 
Q 1341 213 1159 525 
z
M 3116 1747 
Q 3116 2381 2855 2742 
Q 2594 3103 2138 3103 
Q 1681 3103 1420 2742 
Q 1159 2381 1159 1747 
Q 1159 1113 1420 752 
Q 1681 391 2138 391 
Q 2594 391 2855 752 
Q 3116 1113 3116 1747 
z
" transform="scale(0.015625)"/>
      </defs>
      <use xlink:href="#DejaVuSans-66"/>
      <use xlink:href="#DejaVuSans-69" x="35.205078"/>
      <use xlink:href="#DejaVuSans-62" x="62.988281"/>
      <use xlink:href="#DejaVuSans-72" x="126.464844"/>
      <use xlink:href="#DejaVuSans-65" x="165.328125"/>
      <use xlink:href="#DejaVuSans-73" x="226.851562"/>
      <use xlink:href="#DejaVuSans-63" x="278.951172"/>
      <use xlink:href="#DejaVuSans-6f" x="333.931641"/>
      <use xlink:href="#DejaVuSans-70" x="395.113281"/>
      <use xlink:href="#DejaVuSans-65" x="458.589844"/>
     </g>
    </g>
   </g>
  </g>
  <g id="axes_2">
   <g id="patch_8">
    <path d="M 50.87 303.64 
L 450 303.64 
L 450 179.536705 
L 50.87 179.536705 
z
" style="fill: #ffffff"/>
   </g>
   <g id="matplotlib.axis_3">
    <g id="xtick_8">
     <g id="line2d_17">
      <g>
       <use xlink:href="#m890358b471" x="69.012273" y="303.64" style="stroke: #000000; stroke-width: 0.8"/>
      </g>
     </g>
     <g id="text_17">
      <!-- 0 -->
      <g transform="translate(65.831023 318.238437) scale(0.1 -0.1)">
       <use xlink:href="#DejaVuSans-30"/>
      </g>
     </g>
    </g>
    <g id="xtick_9">
     <g id="line2d_18">
      <g>
       <use xlink:href="#m890358b471" x="129.486515" y="303.64" style="stroke: #000000; stroke-width: 0.8"/>
      </g>
     </g>
     <g id="text_18">
      <!-- 10 -->
      <g transform="translate(123.124015 318.238437) scale(0.1 -0.1)">
       <use xlink:href="#DejaVuSans-31"/>
       <use xlink:href="#DejaVuSans-30" x="63.623047"/>
      </g>
     </g>
    </g>
    <g id="xtick_10">
     <g id="line2d_19">
      <g>
       <use xlink:href="#m890358b471" x="189.960758" y="303.64" style="stroke: #000000; stroke-width: 0.8"/>
      </g>
     </g>
     <g id="text_19">
      <!-- 20 -->
      <g transform="translate(183.598258 318.238437) scale(0.1 -0.1)">
       <use xlink:href="#DejaVuSans-32"/>
       <use xlink:href="#DejaVuSans-30" x="63.623047"/>
      </g>
     </g>
    </g>
    <g id="xtick_11">
     <g id="line2d_20">
      <g>
       <use xlink:href="#m890358b471" x="250.435" y="303.64" style="stroke: #000000; stroke-width: 0.8"/>
      </g>
     </g>
     <g id="text_20">
      <!-- 30 -->
      <g transform="translate(244.0725 318.238437) scale(0.1 -0.1)">
       <use xlink:href="#DejaVuSans-33"/>
       <use xlink:href="#DejaVuSans-30" x="63.623047"/>
      </g>
     </g>
    </g>
    <g id="xtick_12">
     <g id="line2d_21">
      <g>
       <use xlink:href="#m890358b471" x="310.909242" y="303.64" style="stroke: #000000; stroke-width: 0.8"/>
      </g>
     </g>
     <g id="text_21">
      <!-- 40 -->
      <g transform="translate(304.546742 318.238437) scale(0.1 -0.1)">
       <use xlink:href="#DejaVuSans-34"/>
       <use xlink:href="#DejaVuSans-30" x="63.623047"/>
      </g>
     </g>
    </g>
    <g id="xtick_13">
     <g id="line2d_22">
      <g>
       <use xlink:href="#m890358b471" x="371.383485" y="303.64" style="stroke: #000000; stroke-width: 0.8"/>
      </g>
     </g>
     <g id="text_22">
      <!-- 50 -->
      <g transform="translate(365.020985 318.238437) scale(0.1 -0.1)">
       <use xlink:href="#DejaVuSans-35"/>
       <use xlink:href="#DejaVuSans-30" x="63.623047"/>
      </g>
     </g>
    </g>
    <g id="xtick_14">
     <g id="line2d_23">
      <g>
       <use xlink:href="#m890358b471" x="431.857727" y="303.64" style="stroke: #000000; stroke-width: 0.8"/>
      </g>
     </g>
     <g id="text_23">
      <!-- 60 -->
      <g transform="translate(425.495227 318.238437) scale(0.1 -0.1)">
       <use xlink:href="#DejaVuSans-36"/>
       <use xlink:href="#DejaVuSans-30" x="63.623047"/>
      </g>
     </g>
    </g>
    <g id="text_24">
     <!-- Time (s) -->
     <g transform="translate(230.106094 331.916562) scale(0.1 -0.1)">
      <use xlink:href="#DejaVuSans-54"/>
      <use xlink:href="#DejaVuSans-69" x="57.958984"/>
      <use xlink:href="#DejaVuSans-6d" x="85.742188"/>
      <use xlink:href="#DejaVuSans-65" x="183.154297"/>
      <use xlink:href="#DejaVuSans-20" x="244.677734"/>
      <use xlink:href="#DejaVuSans-28" x="276.464844"/>
      <use xlink:href="#DejaVuSans-73" x="315.478516"/>
      <use xlink:href="#DejaVuSans-29" x="367.578125"/>
     </g>
    </g>
   </g>
   <g id="matplotlib.axis_4">
    <g id="ytick_6">
     <g id="line2d_24">
      <g>
       <use xlink:href="#m135f8862b7" x="50.87" y="291.338855" style="stroke: #000000; stroke-width: 0.8"/>
      </g>
     </g>
     <g id="text_25">
      <!-- 500 -->
      <g transform="translate(24.7825 295.138073) scale(0.1 -0.1)">
       <use xlink:href="#DejaVuSans-35"/>
       <use xlink:href="#DejaVuSans-30" x="63.623047"/>
       <use xlink:href="#DejaVuSans-30" x="127.246094"/>
      </g>
     </g>
    </g>
    <g id="ytick_7">
     <g id="line2d_25">
      <g>
       <use xlink:href="#m135f8862b7" x="50.87" y="269.545768" style="stroke: #000000; stroke-width: 0.8"/>
      </g>
     </g>
     <g id="text_26">
      <!-- 550 -->
      <g transform="translate(24.7825 273.344987) scale(0.1 -0.1)">
       <use xlink:href="#DejaVuSans-35"/>
       <use xlink:href="#DejaVuSans-35" x="63.623047"/>
       <use xlink:href="#DejaVuSans-30" x="127.246094"/>
      </g>
     </g>
    </g>
    <g id="ytick_8">
     <g id="line2d_26">
      <g>
       <use xlink:href="#m135f8862b7" x="50.87" y="247.752681" style="stroke: #000000; stroke-width: 0.8"/>
      </g>
     </g>
     <g id="text_27">
      <!-- 600 -->
      <g transform="translate(24.7825 251.5519) scale(0.1 -0.1)">
       <use xlink:href="#DejaVuSans-36"/>
       <use xlink:href="#DejaVuSans-30" x="63.623047"/>
       <use xlink:href="#DejaVuSans-30" x="127.246094"/>
      </g>
     </g>
    </g>
    <g id="ytick_9">
     <g id="line2d_27">
      <g>
       <use xlink:href="#m135f8862b7" x="50.87" y="225.959594" style="stroke: #000000; stroke-width: 0.8"/>
      </g>
     </g>
     <g id="text_28">
      <!-- 650 -->
      <g transform="translate(24.7825 229.758813) scale(0.1 -0.1)">
       <use xlink:href="#DejaVuSans-36"/>
       <use xlink:href="#DejaVuSans-35" x="63.623047"/>
       <use xlink:href="#DejaVuSans-30" x="127.246094"/>
      </g>
     </g>
    </g>
    <g id="ytick_10">
     <g id="line2d_28">
      <g>
       <use xlink:href="#m135f8862b7" x="50.87" y="204.166507" style="stroke: #000000; stroke-width: 0.8"/>
      </g>
     </g>
     <g id="text_29">
      <!-- 700 -->
      <g transform="translate(24.7825 207.965726) scale(0.1 -0.1)">
       <defs>
        <path id="DejaVuSans-37" d="M 525 4666 
L 3525 4666 
L 3525 4397 
L 1831 0 
L 1172 0 
L 2766 4134 
L 525 4134 
L 525 4666 
z
" transform="scale(0.015625)"/>
       </defs>
       <use xlink:href="#DejaVuSans-37"/>
       <use xlink:href="#DejaVuSans-30" x="63.623047"/>
       <use xlink:href="#DejaVuSans-30" x="127.246094"/>
      </g>
     </g>
    </g>
    <g id="ytick_11">
     <g id="line2d_29">
      <g>
       <use xlink:href="#m135f8862b7" x="50.87" y="182.37342" style="stroke: #000000; stroke-width: 0.8"/>
      </g>
     </g>
     <g id="text_30">
      <!-- 750 -->
      <g transform="translate(24.7825 186.172639) scale(0.1 -0.1)">
       <use xlink:href="#DejaVuSans-37"/>
       <use xlink:href="#DejaVuSans-35" x="63.623047"/>
       <use xlink:href="#DejaVuSans-30" x="127.246094"/>
      </g>
     </g>
    </g>
    <g id="text_31">
     <!-- Pump state (Raw, ASCII) -->
     <g transform="translate(18.702813 302.203196) rotate(-90) scale(0.1 -0.1)">
      <defs>
       <path id="DejaVuSans-74" d="M 1172 4494 
L 1172 3500 
L 2356 3500 
L 2356 3053 
L 1172 3053 
L 1172 1153 
Q 1172 725 1289 603 
Q 1406 481 1766 481 
L 2356 481 
L 2356 0 
L 1766 0 
Q 1100 0 847 248 
Q 594 497 594 1153 
L 594 3053 
L 172 3053 
L 172 3500 
L 594 3500 
L 594 4494 
L 1172 4494 
z
" transform="scale(0.015625)"/>
       <path id="DejaVuSans-52" d="M 2841 2188 
Q 3044 2119 3236 1894 
Q 3428 1669 3622 1275 
L 4263 0 
L 3584 0 
L 2988 1197 
Q 2756 1666 2539 1819 
Q 2322 1972 1947 1972 
L 1259 1972 
L 1259 0 
L 628 0 
L 628 4666 
L 2053 4666 
Q 2853 4666 3247 4331 
Q 3641 3997 3641 3322 
Q 3641 2881 3436 2590 
Q 3231 2300 2841 2188 
z
M 1259 4147 
L 1259 2491 
L 2053 2491 
Q 2509 2491 2742 2702 
Q 2975 2913 2975 3322 
Q 2975 3731 2742 3939 
Q 2509 4147 2053 4147 
L 1259 4147 
z
" transform="scale(0.015625)"/>
       <path id="DejaVuSans-2c" d="M 750 794 
L 1409 794 
L 1409 256 
L 897 -744 
L 494 -744 
L 750 256 
L 750 794 
z
" transform="scale(0.015625)"/>
       <path id="DejaVuSans-41" d="M 2188 4044 
L 1331 1722 
L 3047 1722 
L 2188 4044 
z
M 1831 4666 
L 2547 4666 
L 4325 0 
L 3669 0 
L 3244 1197 
L 1141 1197 
L 716 0 
L 50 0 
L 1831 4666 
z
" transform="scale(0.015625)"/>
       <path id="DejaVuSans-53" d="M 3425 4513 
L 3425 3897 
Q 3066 4069 2747 4153 
Q 2428 4238 2131 4238 
Q 1616 4238 1336 4038 
Q 1056 3838 1056 3469 
Q 1056 3159 1242 3001 
Q 1428 2844 1947 2747 
L 2328 2669 
Q 3034 2534 3370 2195 
Q 3706 1856 3706 1288 
Q 3706 609 3251 259 
Q 2797 -91 1919 -91 
Q 1588 -91 1214 -16 
Q 841 59 441 206 
L 441 856 
Q 825 641 1194 531 
Q 1563 422 1919 422 
Q 2459 422 2753 634 
Q 3047 847 3047 1241 
Q 3047 1584 2836 1778 
Q 2625 1972 2144 2069 
L 1759 2144 
Q 1053 2284 737 2584 
Q 422 2884 422 3419 
Q 422 4038 858 4394 
Q 1294 4750 2059 4750 
Q 2388 4750 2728 4690 
Q 3069 4631 3425 4513 
z
" transform="scale(0.015625)"/>
       <path id="DejaVuSans-43" d="M 4122 4306 
L 4122 3641 
Q 3803 3938 3442 4084 
Q 3081 4231 2675 4231 
Q 1875 4231 1450 3742 
Q 1025 3253 1025 2328 
Q 1025 1406 1450 917 
Q 1875 428 2675 428 
Q 3081 428 3442 575 
Q 3803 722 4122 1019 
L 4122 359 
Q 3791 134 3420 21 
Q 3050 -91 2638 -91 
Q 1578 -91 968 557 
Q 359 1206 359 2328 
Q 359 3453 968 4101 
Q 1578 4750 2638 4750 
Q 3056 4750 3426 4639 
Q 3797 4528 4122 4306 
z
" transform="scale(0.015625)"/>
       <path id="DejaVuSans-49" d="M 628 4666 
L 1259 4666 
L 1259 0 
L 628 0 
L 628 4666 
z
" transform="scale(0.015625)"/>
      </defs>
      <use xlink:href="#DejaVuSans-50"/>
      <use xlink:href="#DejaVuSans-75" x="58.552734"/>
      <use xlink:href="#DejaVuSans-6d" x="121.931641"/>
      <use xlink:href="#DejaVuSans-70" x="219.34375"/>
      <use xlink:href="#DejaVuSans-20" x="282.820312"/>
      <use xlink:href="#DejaVuSans-73" x="314.607422"/>
      <use xlink:href="#DejaVuSans-74" x="366.707031"/>
      <use xlink:href="#DejaVuSans-61" x="405.916016"/>
      <use xlink:href="#DejaVuSans-74" x="467.195312"/>
      <use xlink:href="#DejaVuSans-65" x="506.404297"/>
      <use xlink:href="#DejaVuSans-20" x="567.927734"/>
      <use xlink:href="#DejaVuSans-28" x="599.714844"/>
      <use xlink:href="#DejaVuSans-52" x="638.728516"/>
      <use xlink:href="#DejaVuSans-61" x="705.960938"/>
      <use xlink:href="#DejaVuSans-77" x="767.240234"/>
      <use xlink:href="#DejaVuSans-2c" x="849.027344"/>
      <use xlink:href="#DejaVuSans-20" x="880.814453"/>
      <use xlink:href="#DejaVuSans-41" x="912.601562"/>
      <use xlink:href="#DejaVuSans-53" x="981.009766"/>
      <use xlink:href="#DejaVuSans-43" x="1044.486328"/>
      <use xlink:href="#DejaVuSans-49" x="1114.310547"/>
      <use xlink:href="#DejaVuSans-49" x="1143.802734"/>
      <use xlink:href="#DejaVuSans-29" x="1173.294922"/>
     </g>
    </g>
   </g>
   <g id="line2d_30">
    <path d="M 69.012273 216.607322 
L 72.652863 216.299899 
L 76.697962 215.869491 
L 80.743062 215.453102 
L 84.383652 215.141503 
L 86.001692 214.947142 
L 96.114442 213.895184 
L 99.350521 213.638732 
L 100.968561 213.426361 
L 111.485821 212.184591 
L 114.317391 212.248864 
L 116.744451 212.289939 
L 134.13838 210.566311 
L 136.96995 209.932311 
L 141.01505 209.214592 
L 150.318779 207.998334 
L 160.836039 207.050846 
L 167.712709 206.450844 
L 172.162318 205.976807 
L 175.802908 205.634056 
L 177.016438 205.568985 
L 179.038988 205.602478 
L 181.870558 205.777552 
L 183.488598 205.659142 
L 188.747228 205.13456 
L 190.769778 204.947063 
L 199.668997 204.082362 
L 202.905077 203.376641 
L 205.736647 202.888185 
L 211.804297 202.092918 
L 214.231357 201.940617 
L 221.917046 201.157162 
L 223.939596 200.993049 
L 227.580186 200.731755 
L 232.434306 200.38073 
L 243.760585 199.525048 
L 248.614705 199.725634 
L 250.637255 199.508075 
L 253.064315 199.284372 
L 254.682355 199.130421 
L 259.940985 198.674713 
L 263.581574 198.468089 
L 264.390594 198.344199 
L 266.008634 198.052259 
L 269.244714 197.434433 
L 272.885304 196.931931 
L 278.143934 196.380108 
L 280.166484 196.283113 
L 281.380014 196.175053 
L 283.402564 196.02714 
L 287.447663 195.730305 
L 288.256683 195.617084 
L 290.279233 195.435306 
L 292.706293 195.274172 
L 295.133353 195.185957 
L 298.773943 194.978987 
L 301.201003 194.764355 
L 304.437083 194.502449 
L 309.695712 194.213222 
L 314.954342 194.298432 
L 316.976892 194.114286 
L 318.999442 193.987736 
L 320.212972 193.885634 
L 323.044542 193.684251 
L 323.853562 193.545064 
L 330.730232 193.08401 
L 336.393371 192.097628 
L 339.629451 191.720904 
L 342.461021 191.462431 
L 353.787301 190.532074 
L 355.405341 190.406881 
L 359.04593 190.080996 
L 363.09103 189.82872 
L 365.9226 189.615578 
L 369.15868 189.368384 
L 371.99025 189.198126 
L 372.79927 189.076471 
L 374.82182 189.086048 
L 380.080449 189.305548 
L 383.721039 189.034332 
L 388.575159 188.62901 
L 391.002219 188.461039 
L 395.047319 188.256782 
L 396.665359 188.006183 
L 399.092419 187.573806 
L 407.991638 186.649728 
L 417.699878 186.036904 
L 423.363018 185.625517 
L 427.408117 185.531662 
L 431.857727 185.177764 
L 431.857727 185.177764 
" clip-path="url(#pfb5f6a411d)" style="fill: none; stroke: #1f77b4; stroke-width: 1.5; stroke-linecap: square"/>
   </g>
   <g id="line2d_31">
    <path d="M 69.012273 297.998941 
L 94.900912 296.065776 
L 96.114442 295.990955 
L 102.182091 295.472957 
L 110.676801 294.950463 
L 115.935431 295.193028 
L 133.32936 293.752242 
L 135.75642 293.306258 
L 138.18348 292.981902 
L 141.82407 292.531076 
L 143.84662 292.355777 
L 147.487209 292.137766 
L 176.611928 290.194957 
L 179.038988 290.331629 
L 180.657028 290.475165 
L 183.488598 290.417557 
L 185.915658 290.259269 
L 188.747228 290.050995 
L 189.960758 289.909934 
L 198.859977 289.395793 
L 202.500567 288.73777 
L 210.995277 287.85623 
L 227.175676 286.963438 
L 229.198226 286.941158 
L 237.692936 286.394309 
L 238.906465 286.301917 
L 242.142545 286.170844 
L 244.974115 286.413981 
L 246.996665 286.57308 
L 249.019215 286.523905 
L 251.041765 286.396823 
L 253.468825 286.306586 
L 254.682355 286.234625 
L 256.300395 286.121562 
L 257.513925 285.981671 
L 259.940985 285.679702 
L 261.963535 285.402393 
L 263.986084 284.915241 
L 266.008634 284.107444 
L 268.435694 283.120451 
L 273.289814 280.975247 
L 273.694324 280.520391 
L 274.503344 280.391287 
L 277.334914 279.139701 
L 279.357464 278.289073 
L 282.998054 276.618917 
L 284.616094 275.810934 
L 293.110803 271.58855 
L 295.133353 270.695465 
L 298.369433 269.002936 
L 307.673163 263.587332 
L 309.291202 262.848969 
L 314.954342 260.466494 
L 316.167872 259.780459 
L 325.471602 254.679834 
L 329.921212 252.293049 
L 342.056511 244.27563 
L 344.888081 242.652721 
L 346.910631 241.594538 
L 352.169261 238.676254 
L 356.61887 236.401281 
L 359.04593 235.320166 
L 365.11358 232.673073 
L 368.34966 231.159874 
L 369.56319 230.647475 
L 373.20378 229.18006 
L 374.41731 228.799958 
L 377.65339 228.192029 
L 379.675939 227.729059 
L 383.316529 226.691839 
L 388.979669 225.366855 
L 391.406729 224.890291 
L 394.642809 224.422399 
L 395.856339 224.042164 
L 400.710459 222.365943 
L 404.755558 221.099193 
L 407.587128 220.256254 
L 415.677328 218.442974 
L 418.913408 217.791337 
L 421.340468 217.331186 
L 425.385568 216.712004 
L 427.003607 216.515568 
L 431.857727 215.741557 
L 431.857727 215.741557 
" clip-path="url(#pfb5f6a411d)" style="fill: none; stroke: #ff7f0e; stroke-width: 1.5; stroke-linecap: square"/>
   </g>
   <g id="patch_9">
    <path d="M 50.87 303.64 
L 50.87 179.536705 
" style="fill: none; stroke: #000000; stroke-width: 0.8; stroke-linejoin: miter; stroke-linecap: square"/>
   </g>
   <g id="patch_10">
    <path d="M 450 303.64 
L 450 179.536705 
" style="fill: none; stroke: #000000; stroke-width: 0.8; stroke-linejoin: miter; stroke-linecap: square"/>
   </g>
   <g id="patch_11">
    <path d="M 50.87 303.64 
L 450 303.64 
" style="fill: none; stroke: #000000; stroke-width: 0.8; stroke-linejoin: miter; stroke-linecap: square"/>
   </g>
   <g id="patch_12">
    <path d="M 50.87 179.536705 
L 450 179.536705 
" style="fill: none; stroke: #000000; stroke-width: 0.8; stroke-linejoin: miter; stroke-linecap: square"/>
   </g>
   <g id="legend_2">
    <g id="patch_13">
     <path d="M 358.985937 298.64 
L 443 298.64 
Q 445 298.64 445 296.64 
L 445 268.28375 
Q 445 266.28375 443 266.28375 
L 358.985937 266.28375 
Q 356.985937 266.28375 356.985937 268.28375 
L 356.985937 296.64 
Q 356.985937 298.64 358.985937 298.64 
z
" style="fill: #ffffff; opacity: 0.8; stroke: #cccccc; stroke-linejoin: miter"/>
    </g>
    <g id="line2d_32">
     <path d="M 360.985937 274.382187 
L 370.985937 274.382187 
L 380.985937 274.382187 
" style="fill: none; stroke: #1f77b4; stroke-width: 1.5; stroke-linecap: square"/>
    </g>
    <g id="text_32">
     <!-- webcam -->
     <g transform="translate(388.985937 277.882187) scale(0.1 -0.1)">
      <use xlink:href="#DejaVuSans-77"/>
      <use xlink:href="#DejaVuSans-65" x="81.787109"/>
      <use xlink:href="#DejaVuSans-62" x="143.310547"/>
      <use xlink:href="#DejaVuSans-63" x="206.787109"/>
      <use xlink:href="#DejaVuSans-61" x="261.767578"/>
      <use xlink:href="#DejaVuSans-6d" x="323.046875"/>
     </g>
    </g>
    <g id="line2d_33">
     <path d="M 360.985937 289.060312 
L 370.985937 289.060312 
L 380.985937 289.060312 
" style="fill: none; stroke: #ff7f0e; stroke-width: 1.5; stroke-linecap: square"/>
    </g>
    <g id="text_33">
     <!-- fibrescope -->
     <g transform="translate(388.985937 292.560312) scale(0.1 -0.1)">
      <use xlink:href="#DejaVuSans-66"/>
      <use xlink:href="#DejaVuSans-69" x="35.205078"/>
      <use xlink:href="#DejaVuSans-62" x="62.988281"/>
      <use xlink:href="#DejaVuSans-72" x="126.464844"/>
      <use xlink:href="#DejaVuSans-65" x="165.328125"/>
      <use xlink:href="#DejaVuSans-73" x="226.851562"/>
      <use xlink:href="#DejaVuSans-63" x="278.951172"/>
      <use xlink:href="#DejaVuSans-6f" x="333.931641"/>
      <use xlink:href="#DejaVuSans-70" x="395.113281"/>
      <use xlink:href="#DejaVuSans-65" x="458.589844"/>
     </g>
    </g>
   </g>
  </g>
 </g>
 <defs>
  <clipPath id="p79471be368">
   <rect x="50.87" y="12.278277" width="399.13" height="124.103295"/>
  </clipPath>
  <clipPath id="pfb5f6a411d">
   <rect x="50.87" y="179.536705" width="399.13" height="124.103295"/>
  </clipPath>
 </defs>
</svg>
