<?xml version="1.0" encoding="utf-8" standalone="no"?>
<!DOCTYPE svg PUBLIC "-//W3C//DTD SVG 1.1//EN"
  "http://www.w3.org/Graphics/SVG/1.1/DTD/svg11.dtd">
<svg xmlns:xlink="http://www.w3.org/1999/xlink" width="460.8pt" height="345.6pt" viewBox="0 0 460.8 345.6" xmlns="http://www.w3.org/2000/svg" version="1.1">
 <metadata>
  <rdf:RDF xmlns:dc="http://purl.org/dc/elements/1.1/" xmlns:cc="http://creativecommons.org/ns#" xmlns:rdf="http://www.w3.org/1999/02/22-rdf-syntax-ns#">
   <cc:Work>
    <dc:type rdf:resource="http://purl.org/dc/dcmitype/StillImage"/>
    <dc:date>2023-12-13T15:15:11.034455</dc:date>
    <dc:format>image/svg+xml</dc:format>
    <dc:creator>
     <cc:Agent>
      <dc:title>Matplotlib v3.7.1, https://matplotlib.org/</dc:title>
     </cc:Agent>
    </dc:creator>
   </cc:Work>
  </rdf:RDF>
 </metadata>
 <defs>
  <style type="text/css">*{stroke-linejoin: round; stroke-linecap: butt}</style>
 </defs>
 <g id="figure_1">
  <g id="patch_1">
   <path d="M 0 345.6 
L 460.8 345.6 
L 460.8 0 
L 0 0 
z
" style="fill: #ffffff"/>
  </g>
  <g id="axes_1">
   <g id="patch_2">
    <path d="M 50.78 136.24 
L 450 136.24 
L 450 10.8 
L 50.78 10.8 
z
" style="fill: #ffffff"/>
   </g>
   <g id="matplotlib.axis_1">
    <g id="xtick_1">
     <g id="line2d_1">
      <defs>
       <path id="m6b2412b11d" d="M 0 0 
L 0 3.5 
" style="stroke: #000000; stroke-width: 0.8"/>
      </defs>
      <g>
       <use xlink:href="#m6b2412b11d" x="68.926364" y="136.24" style="stroke: #000000; stroke-width: 0.8"/>
      </g>
     </g>
     <g id="text_1">
      <!-- 0 -->
      <g transform="translate(65.745114 150.838437) scale(0.1 -0.1)">
       <defs>
        <path id="DejaVuSans-30" d="M 2034 4250 
Q 1547 4250 1301 3770 
Q 1056 3291 1056 2328 
Q 1056 1369 1301 889 
Q 1547 409 2034 409 
Q 2525 409 2770 889 
Q 3016 1369 3016 2328 
Q 3016 3291 2770 3770 
Q 2525 4250 2034 4250 
z
M 2034 4750 
Q 2819 4750 3233 4129 
Q 3647 3509 3647 2328 
Q 3647 1150 3233 529 
Q 2819 -91 2034 -91 
Q 1250 -91 836 529 
Q 422 1150 422 2328 
Q 422 3509 836 4129 
Q 1250 4750 2034 4750 
z
" transform="scale(0.015625)"/>
       </defs>
       <use xlink:href="#DejaVuSans-30"/>
      </g>
     </g>
    </g>
    <g id="xtick_2">
     <g id="line2d_2">
      <g>
       <use xlink:href="#m6b2412b11d" x="129.414242" y="136.24" style="stroke: #000000; stroke-width: 0.8"/>
      </g>
     </g>
     <g id="text_2">
      <!-- 10 -->
      <g transform="translate(123.051742 150.838437) scale(0.1 -0.1)">
       <defs>
        <path id="DejaVuSans-31" d="M 794 531 
L 1825 531 
L 1825 4091 
L 703 3866 
L 703 4441 
L 1819 4666 
L 2450 4666 
L 2450 531 
L 3481 531 
L 3481 0 
L 794 0 
L 794 531 
z
" transform="scale(0.015625)"/>
       </defs>
       <use xlink:href="#DejaVuSans-31"/>
       <use xlink:href="#DejaVuSans-30" x="63.623047"/>
      </g>
     </g>
    </g>
    <g id="xtick_3">
     <g id="line2d_3">
      <g>
       <use xlink:href="#m6b2412b11d" x="189.902121" y="136.24" style="stroke: #000000; stroke-width: 0.8"/>
      </g>
     </g>
     <g id="text_3">
      <!-- 20 -->
      <g transform="translate(183.539621 150.838437) scale(0.1 -0.1)">
       <defs>
        <path id="DejaVuSans-32" d="M 1228 531 
L 3431 531 
L 3431 0 
L 469 0 
L 469 531 
Q 828 903 1448 1529 
Q 2069 2156 2228 2338 
Q 2531 2678 2651 2914 
Q 2772 3150 2772 3378 
Q 2772 3750 2511 3984 
Q 2250 4219 1831 4219 
Q 1534 4219 1204 4116 
Q 875 4013 500 3803 
L 500 4441 
Q 881 4594 1212 4672 
Q 1544 4750 1819 4750 
Q 2544 4750 2975 4387 
Q 3406 4025 3406 3419 
Q 3406 3131 3298 2873 
Q 3191 2616 2906 2266 
Q 2828 2175 2409 1742 
Q 1991 1309 1228 531 
z
" transform="scale(0.015625)"/>
       </defs>
       <use xlink:href="#DejaVuSans-32"/>
       <use xlink:href="#DejaVuSans-30" x="63.623047"/>
      </g>
     </g>
    </g>
    <g id="xtick_4">
     <g id="line2d_4">
      <g>
       <use xlink:href="#m6b2412b11d" x="250.39" y="136.24" style="stroke: #000000; stroke-width: 0.8"/>
      </g>
     </g>
     <g id="text_4">
      <!-- 30 -->
      <g transform="translate(244.0275 150.838437) scale(0.1 -0.1)">
       <defs>
        <path id="DejaVuSans-33" d="M 2597 2516 
Q 3050 2419 3304 2112 
Q 3559 1806 3559 1356 
Q 3559 666 3084 287 
Q 2609 -91 1734 -91 
Q 1441 -91 1130 -33 
Q 819 25 488 141 
L 488 750 
Q 750 597 1062 519 
Q 1375 441 1716 441 
Q 2309 441 2620 675 
Q 2931 909 2931 1356 
Q 2931 1769 2642 2001 
Q 2353 2234 1838 2234 
L 1294 2234 
L 1294 2753 
L 1863 2753 
Q 2328 2753 2575 2939 
Q 2822 3125 2822 3475 
Q 2822 3834 2567 4026 
Q 2313 4219 1838 4219 
Q 1578 4219 1281 4162 
Q 984 4106 628 3988 
L 628 4550 
Q 988 4650 1302 4700 
Q 1616 4750 1894 4750 
Q 2613 4750 3031 4423 
Q 3450 4097 3450 3541 
Q 3450 3153 3228 2886 
Q 3006 2619 2597 2516 
z
" transform="scale(0.015625)"/>
       </defs>
       <use xlink:href="#DejaVuSans-33"/>
       <use xlink:href="#DejaVuSans-30" x="63.623047"/>
      </g>
     </g>
    </g>
    <g id="xtick_5">
     <g id="line2d_5">
      <g>
       <use xlink:href="#m6b2412b11d" x="310.877879" y="136.24" style="stroke: #000000; stroke-width: 0.8"/>
      </g>
     </g>
     <g id="text_5">
      <!-- 40 -->
      <g transform="translate(304.515379 150.838437) scale(0.1 -0.1)">
       <defs>
        <path id="DejaVuSans-34" d="M 2419 4116 
L 825 1625 
L 2419 1625 
L 2419 4116 
z
M 2253 4666 
L 3047 4666 
L 3047 1625 
L 3713 1625 
L 3713 1100 
L 3047 1100 
L 3047 0 
L 2419 0 
L 2419 1100 
L 313 1100 
L 313 1709 
L 2253 4666 
z
" transform="scale(0.015625)"/>
       </defs>
       <use xlink:href="#DejaVuSans-34"/>
       <use xlink:href="#DejaVuSans-30" x="63.623047"/>
      </g>
     </g>
    </g>
    <g id="xtick_6">
     <g id="line2d_6">
      <g>
       <use xlink:href="#m6b2412b11d" x="371.365758" y="136.24" style="stroke: #000000; stroke-width: 0.8"/>
      </g>
     </g>
     <g id="text_6">
      <!-- 50 -->
      <g transform="translate(365.003258 150.838437) scale(0.1 -0.1)">
       <defs>
        <path id="DejaVuSans-35" d="M 691 4666 
L 3169 4666 
L 3169 4134 
L 1269 4134 
L 1269 2991 
Q 1406 3038 1543 3061 
Q 1681 3084 1819 3084 
Q 2600 3084 3056 2656 
Q 3513 2228 3513 1497 
Q 3513 744 3044 326 
Q 2575 -91 1722 -91 
Q 1428 -91 1123 -41 
Q 819 9 494 109 
L 494 744 
Q 775 591 1075 516 
Q 1375 441 1709 441 
Q 2250 441 2565 725 
Q 2881 1009 2881 1497 
Q 2881 1984 2565 2268 
Q 2250 2553 1709 2553 
Q 1456 2553 1204 2497 
Q 953 2441 691 2322 
L 691 4666 
z
" transform="scale(0.015625)"/>
       </defs>
       <use xlink:href="#DejaVuSans-35"/>
       <use xlink:href="#DejaVuSans-30" x="63.623047"/>
      </g>
     </g>
    </g>
    <g id="xtick_7">
     <g id="line2d_7">
      <g>
       <use xlink:href="#m6b2412b11d" x="431.853636" y="136.24" style="stroke: #000000; stroke-width: 0.8"/>
      </g>
     </g>
     <g id="text_7">
      <!-- 60 -->
      <g transform="translate(425.491136 150.838437) scale(0.1 -0.1)">
       <defs>
        <path id="DejaVuSans-36" d="M 2113 2584 
Q 1688 2584 1439 2293 
Q 1191 2003 1191 1497 
Q 1191 994 1439 701 
Q 1688 409 2113 409 
Q 2538 409 2786 701 
Q 3034 994 3034 1497 
Q 3034 2003 2786 2293 
Q 2538 2584 2113 2584 
z
M 3366 4563 
L 3366 3988 
Q 3128 4100 2886 4159 
Q 2644 4219 2406 4219 
Q 1781 4219 1451 3797 
Q 1122 3375 1075 2522 
Q 1259 2794 1537 2939 
Q 1816 3084 2150 3084 
Q 2853 3084 3261 2657 
Q 3669 2231 3669 1497 
Q 3669 778 3244 343 
Q 2819 -91 2113 -91 
Q 1303 -91 875 529 
Q 447 1150 447 2328 
Q 447 3434 972 4092 
Q 1497 4750 2381 4750 
Q 2619 4750 2861 4703 
Q 3103 4656 3366 4563 
z
" transform="scale(0.015625)"/>
       </defs>
       <use xlink:href="#DejaVuSans-36"/>
       <use xlink:href="#DejaVuSans-30" x="63.623047"/>
      </g>
     </g>
    </g>
    <g id="text_8">
     <!-- Time (s) -->
     <g transform="translate(230.061094 164.516562) scale(0.1 -0.1)">
      <defs>
       <path id="DejaVuSans-54" d="M -19 4666 
L 3928 4666 
L 3928 4134 
L 2272 4134 
L 2272 0 
L 1638 0 
L 1638 4134 
L -19 4134 
L -19 4666 
z
" transform="scale(0.015625)"/>
       <path id="DejaVuSans-69" d="M 603 3500 
L 1178 3500 
L 1178 0 
L 603 0 
L 603 3500 
z
M 603 4863 
L 1178 4863 
L 1178 4134 
L 603 4134 
L 603 4863 
z
" transform="scale(0.015625)"/>
       <path id="DejaVuSans-6d" d="M 3328 2828 
Q 3544 3216 3844 3400 
Q 4144 3584 4550 3584 
Q 5097 3584 5394 3201 
Q 5691 2819 5691 2113 
L 5691 0 
L 5113 0 
L 5113 2094 
Q 5113 2597 4934 2840 
Q 4756 3084 4391 3084 
Q 3944 3084 3684 2787 
Q 3425 2491 3425 1978 
L 3425 0 
L 2847 0 
L 2847 2094 
Q 2847 2600 2669 2842 
Q 2491 3084 2119 3084 
Q 1678 3084 1418 2786 
Q 1159 2488 1159 1978 
L 1159 0 
L 581 0 
L 581 3500 
L 1159 3500 
L 1159 2956 
Q 1356 3278 1631 3431 
Q 1906 3584 2284 3584 
Q 2666 3584 2933 3390 
Q 3200 3197 3328 2828 
z
" transform="scale(0.015625)"/>
       <path id="DejaVuSans-65" d="M 3597 1894 
L 3597 1613 
L 953 1613 
Q 991 1019 1311 708 
Q 1631 397 2203 397 
Q 2534 397 2845 478 
Q 3156 559 3463 722 
L 3463 178 
Q 3153 47 2828 -22 
Q 2503 -91 2169 -91 
Q 1331 -91 842 396 
Q 353 884 353 1716 
Q 353 2575 817 3079 
Q 1281 3584 2069 3584 
Q 2775 3584 3186 3129 
Q 3597 2675 3597 1894 
z
M 3022 2063 
Q 3016 2534 2758 2815 
Q 2500 3097 2075 3097 
Q 1594 3097 1305 2825 
Q 1016 2553 972 2059 
L 3022 2063 
z
" transform="scale(0.015625)"/>
       <path id="DejaVuSans-20" transform="scale(0.015625)"/>
       <path id="DejaVuSans-28" d="M 1984 4856 
Q 1566 4138 1362 3434 
Q 1159 2731 1159 2009 
Q 1159 1288 1364 580 
Q 1569 -128 1984 -844 
L 1484 -844 
Q 1016 -109 783 600 
Q 550 1309 550 2009 
Q 550 2706 781 3412 
Q 1013 4119 1484 4856 
L 1984 4856 
z
" transform="scale(0.015625)"/>
       <path id="DejaVuSans-73" d="M 2834 3397 
L 2834 2853 
Q 2591 2978 2328 3040 
Q 2066 3103 1784 3103 
Q 1356 3103 1142 2972 
Q 928 2841 928 2578 
Q 928 2378 1081 2264 
Q 1234 2150 1697 2047 
L 1894 2003 
Q 2506 1872 2764 1633 
Q 3022 1394 3022 966 
Q 3022 478 2636 193 
Q 2250 -91 1575 -91 
Q 1294 -91 989 -36 
Q 684 19 347 128 
L 347 722 
Q 666 556 975 473 
Q 1284 391 1588 391 
Q 1994 391 2212 530 
Q 2431 669 2431 922 
Q 2431 1156 2273 1281 
Q 2116 1406 1581 1522 
L 1381 1569 
Q 847 1681 609 1914 
Q 372 2147 372 2553 
Q 372 3047 722 3315 
Q 1072 3584 1716 3584 
Q 2034 3584 2315 3537 
Q 2597 3491 2834 3397 
z
" transform="scale(0.015625)"/>
       <path id="DejaVuSans-29" d="M 513 4856 
L 1013 4856 
Q 1481 4119 1714 3412 
Q 1947 2706 1947 2009 
Q 1947 1309 1714 600 
Q 1481 -109 1013 -844 
L 513 -844 
Q 928 -128 1133 580 
Q 1338 1288 1338 2009 
Q 1338 2731 1133 3434 
Q 928 4138 513 4856 
z
" transform="scale(0.015625)"/>
      </defs>
      <use xlink:href="#DejaVuSans-54"/>
      <use xlink:href="#DejaVuSans-69" x="57.958984"/>
      <use xlink:href="#DejaVuSans-6d" x="85.742188"/>
      <use xlink:href="#DejaVuSans-65" x="183.154297"/>
      <use xlink:href="#DejaVuSans-20" x="244.677734"/>
      <use xlink:href="#DejaVuSans-28" x="276.464844"/>
      <use xlink:href="#DejaVuSans-73" x="315.478516"/>
      <use xlink:href="#DejaVuSans-29" x="367.578125"/>
     </g>
    </g>
   </g>
   <g id="matplotlib.axis_2">
    <g id="ytick_1">
     <g id="line2d_8">
      <defs>
       <path id="m5e6af8bc6d" d="M 0 0 
L -3.5 0 
" style="stroke: #000000; stroke-width: 0.8"/>
      </defs>
      <g>
       <use xlink:href="#m5e6af8bc6d" x="50.78" y="107.152697" style="stroke: #000000; stroke-width: 0.8"/>
      </g>
     </g>
     <g id="text_9">
      <!-- 1.0 -->
      <g transform="translate(27.876875 110.951915) scale(0.1 -0.1)">
       <defs>
        <path id="DejaVuSans-2e" d="M 684 794 
L 1344 794 
L 1344 0 
L 684 0 
L 684 794 
z
" transform="scale(0.015625)"/>
       </defs>
       <use xlink:href="#DejaVuSans-31"/>
       <use xlink:href="#DejaVuSans-2e" x="63.623047"/>
       <use xlink:href="#DejaVuSans-30" x="95.410156"/>
      </g>
     </g>
    </g>
    <g id="ytick_2">
     <g id="line2d_9">
      <g>
       <use xlink:href="#m5e6af8bc6d" x="50.78" y="74.258827" style="stroke: #000000; stroke-width: 0.8"/>
      </g>
     </g>
     <g id="text_10">
      <!-- 1.5 -->
      <g transform="translate(27.876875 78.058046) scale(0.1 -0.1)">
       <use xlink:href="#DejaVuSans-31"/>
       <use xlink:href="#DejaVuSans-2e" x="63.623047"/>
       <use xlink:href="#DejaVuSans-35" x="95.410156"/>
      </g>
     </g>
    </g>
    <g id="ytick_3">
     <g id="line2d_10">
      <g>
       <use xlink:href="#m5e6af8bc6d" x="50.78" y="41.364958" style="stroke: #000000; stroke-width: 0.8"/>
      </g>
     </g>
     <g id="text_11">
      <!-- 2.0 -->
      <g transform="translate(27.876875 45.164176) scale(0.1 -0.1)">
       <use xlink:href="#DejaVuSans-32"/>
       <use xlink:href="#DejaVuSans-2e" x="63.623047"/>
       <use xlink:href="#DejaVuSans-30" x="95.410156"/>
      </g>
     </g>
    </g>
    <g id="text_12">
     <!-- Pressure (kPa) -->
     <g transform="translate(21.797188 109.104375) rotate(-90) scale(0.1 -0.1)">
      <defs>
       <path id="DejaVuSans-50" d="M 1259 4147 
L 1259 2394 
L 2053 2394 
Q 2494 2394 2734 2622 
Q 2975 2850 2975 3272 
Q 2975 3691 2734 3919 
Q 2494 4147 2053 4147 
L 1259 4147 
z
M 628 4666 
L 2053 4666 
Q 2838 4666 3239 4311 
Q 3641 3956 3641 3272 
Q 3641 2581 3239 2228 
Q 2838 1875 2053 1875 
L 1259 1875 
L 1259 0 
L 628 0 
L 628 4666 
z
" transform="scale(0.015625)"/>
       <path id="DejaVuSans-72" d="M 2631 2963 
Q 2534 3019 2420 3045 
Q 2306 3072 2169 3072 
Q 1681 3072 1420 2755 
Q 1159 2438 1159 1844 
L 1159 0 
L 581 0 
L 581 3500 
L 1159 3500 
L 1159 2956 
Q 1341 3275 1631 3429 
Q 1922 3584 2338 3584 
Q 2397 3584 2469 3576 
Q 2541 3569 2628 3553 
L 2631 2963 
z
" transform="scale(0.015625)"/>
       <path id="DejaVuSans-75" d="M 544 1381 
L 544 3500 
L 1119 3500 
L 1119 1403 
Q 1119 906 1312 657 
Q 1506 409 1894 409 
Q 2359 409 2629 706 
Q 2900 1003 2900 1516 
L 2900 3500 
L 3475 3500 
L 3475 0 
L 2900 0 
L 2900 538 
Q 2691 219 2414 64 
Q 2138 -91 1772 -91 
Q 1169 -91 856 284 
Q 544 659 544 1381 
z
M 1991 3584 
L 1991 3584 
z
" transform="scale(0.015625)"/>
       <path id="DejaVuSans-6b" d="M 581 4863 
L 1159 4863 
L 1159 1991 
L 2875 3500 
L 3609 3500 
L 1753 1863 
L 3688 0 
L 2938 0 
L 1159 1709 
L 1159 0 
L 581 0 
L 581 4863 
z
" transform="scale(0.015625)"/>
       <path id="DejaVuSans-61" d="M 2194 1759 
Q 1497 1759 1228 1600 
Q 959 1441 959 1056 
Q 959 750 1161 570 
Q 1363 391 1709 391 
Q 2188 391 2477 730 
Q 2766 1069 2766 1631 
L 2766 1759 
L 2194 1759 
z
M 3341 1997 
L 3341 0 
L 2766 0 
L 2766 531 
Q 2569 213 2275 61 
Q 1981 -91 1556 -91 
Q 1019 -91 701 211 
Q 384 513 384 1019 
Q 384 1609 779 1909 
Q 1175 2209 1959 2209 
L 2766 2209 
L 2766 2266 
Q 2766 2663 2505 2880 
Q 2244 3097 1772 3097 
Q 1472 3097 1187 3025 
Q 903 2953 641 2809 
L 641 3341 
Q 956 3463 1253 3523 
Q 1550 3584 1831 3584 
Q 2591 3584 2966 3190 
Q 3341 2797 3341 1997 
z
" transform="scale(0.015625)"/>
      </defs>
      <use xlink:href="#DejaVuSans-50"/>
      <use xlink:href="#DejaVuSans-72" x="58.552734"/>
      <use xlink:href="#DejaVuSans-65" x="97.416016"/>
      <use xlink:href="#DejaVuSans-73" x="158.939453"/>
      <use xlink:href="#DejaVuSans-73" x="211.039062"/>
      <use xlink:href="#DejaVuSans-75" x="263.138672"/>
      <use xlink:href="#DejaVuSans-72" x="326.517578"/>
      <use xlink:href="#DejaVuSans-65" x="365.380859"/>
      <use xlink:href="#DejaVuSans-20" x="426.904297"/>
      <use xlink:href="#DejaVuSans-28" x="458.691406"/>
      <use xlink:href="#DejaVuSans-6b" x="497.705078"/>
      <use xlink:href="#DejaVuSans-50" x="555.615234"/>
      <use xlink:href="#DejaVuSans-61" x="611.417969"/>
      <use xlink:href="#DejaVuSans-29" x="672.697266"/>
     </g>
    </g>
   </g>
   <g id="line2d_11">
    <path d="M 68.926364 49.588425 
L 69.330965 49.588425 
L 69.735566 52.158259 
L 70.140167 48.624738 
L 70.544768 47.982279 
L 70.94937 41.557695 
L 71.353971 56.976697 
L 71.758572 38.987862 
L 72.567774 60.831447 
L 72.972376 54.406863 
L 73.376977 45.733675 
L 73.781578 47.339821 
L 74.186179 59.54653 
L 74.59078 53.443175 
L 74.995382 42.521383 
L 75.399983 42.842612 
L 75.804584 40.594008 
L 76.209185 50.552113 
L 76.613786 51.837029 
L 77.018388 54.085634 
L 77.422989 50.552113 
L 77.82759 53.443175 
L 78.232191 40.915237 
L 78.636792 37.381716 
L 79.041394 43.8063 
L 79.445995 56.013009 
L 79.850596 44.769987 
L 80.255197 45.733675 
L 80.659798 57.940384 
L 81.0644 42.842612 
L 81.469001 54.728092 
L 81.873602 47.982279 
L 82.278203 36.418028 
L 82.682804 59.867759 
L 83.087405 56.976697 
L 83.492007 43.48507 
L 83.896608 48.624738 
L 84.301209 61.795134 
L 84.70581 48.303508 
L 85.110411 42.842612 
L 85.515013 50.873342 
L 85.919614 45.733675 
L 86.324215 50.873342 
L 86.728816 45.091216 
L 87.133417 59.54653 
L 87.94262 44.127529 
L 88.347221 47.66105 
L 88.751822 57.297926 
L 89.156423 40.272778 
L 89.561025 46.697362 
L 89.965626 49.909654 
L 90.370227 43.8063 
L 90.774828 47.018592 
L 91.179429 55.69178 
L 91.584031 48.624738 
L 91.988632 58.904072 
L 92.393233 52.800717 
L 92.797834 49.588425 
L 93.202435 53.121946 
L 93.607037 43.8063 
L 94.011638 45.412446 
L 94.416239 57.940384 
L 94.82084 46.376133 
L 95.225441 46.054904 
L 95.630043 46.054904 
L 96.034644 44.127529 
L 96.439245 40.594008 
L 96.843846 50.230883 
L 97.248447 40.272778 
L 97.653049 49.588425 
L 98.05765 47.982279 
L 98.462251 48.303508 
L 98.866852 67.256031 
L 99.271453 48.945967 
L 99.676055 51.837029 
L 100.080656 51.194571 
L 100.485257 39.951549 
L 101.294459 60.188988 
L 101.699061 56.655467 
L 102.103662 49.267196 
L 102.508263 50.873342 
L 102.912864 50.230883 
L 103.317465 62.758822 
L 103.722066 50.230883 
L 104.126668 46.697362 
L 104.531269 49.909654 
L 105.340471 43.8063 
L 105.745072 50.552113 
L 106.149674 49.588425 
L 106.554275 51.194571 
L 106.958876 50.552113 
L 107.363477 49.588425 
L 107.768078 51.194571 
L 108.17268 56.655467 
L 108.577281 49.267196 
L 108.981882 47.66105 
L 109.386483 49.267196 
L 109.791084 53.443175 
L 110.195686 37.702945 
L 110.600287 37.060487 
L 111.004888 33.848195 
L 111.409489 35.77557 
L 111.81409 33.526965 
L 112.218692 35.454341 
L 112.623293 26.138694 
L 113.027894 26.459923 
L 113.837096 30.957132 
L 114.241698 31.920819 
L 114.646299 35.133111 
L 115.0509 41.236466 
L 115.455501 28.387298 
L 115.860102 43.8063 
L 116.264704 48.303508 
L 116.669305 54.728092 
L 117.073906 41.236466 
L 117.478507 44.448758 
L 117.883108 49.909654 
L 118.28771 50.552113 
L 118.692311 53.121946 
L 119.096912 47.982279 
L 119.501513 52.158259 
L 119.906114 46.697362 
L 120.310716 49.267196 
L 120.715317 49.588425 
L 121.119918 44.448758 
L 121.524519 51.5158 
L 121.92912 61.473905 
L 122.333721 62.116364 
L 122.738323 47.339821 
L 123.142924 45.091216 
L 123.547525 53.443175 
L 123.952126 46.376133 
L 124.356727 44.127529 
L 124.761329 50.873342 
L 125.16593 51.837029 
L 125.570531 56.976697 
L 126.379733 42.521383 
L 127.188936 37.702945 
L 127.593537 37.702945 
L 127.998138 43.8063 
L 128.402739 51.837029 
L 128.807341 40.272778 
L 129.211942 42.200154 
L 129.616543 41.557695 
L 130.021144 42.200154 
L 130.425745 43.163841 
L 130.830347 51.194571 
L 131.234948 53.443175 
L 131.639549 62.116364 
L 132.04415 55.049321 
L 132.448751 59.54653 
L 132.853353 62.437593 
L 133.257954 66.292343 
L 133.662555 66.613572 
L 134.067156 65.007426 
L 134.471757 58.904072 
L 134.876359 59.225301 
L 135.28096 57.297926 
L 135.685561 57.940384 
L 136.090162 59.867759 
L 136.494763 46.054904 
L 136.899365 59.225301 
L 137.303966 55.049321 
L 137.708567 68.862177 
L 138.113168 66.613572 
L 138.517769 66.292343 
L 138.922371 51.837029 
L 139.326972 51.5158 
L 139.731573 65.007426 
L 140.136174 49.267196 
L 140.540775 50.552113 
L 140.945377 50.230883 
L 141.349978 65.649885 
L 141.754579 51.194571 
L 142.15918 54.406863 
L 142.563781 55.370551 
L 142.968382 51.5158 
L 143.372984 49.588425 
L 143.777585 43.48507 
L 144.182186 46.697362 
L 144.586787 48.303508 
L 144.991388 42.200154 
L 145.39599 43.8063 
L 145.800591 48.945967 
L 146.205192 38.666633 
L 146.609793 46.697362 
L 147.014394 44.769987 
L 147.418996 42.200154 
L 147.823597 44.769987 
L 148.228198 57.297926 
L 148.632799 64.043739 
L 149.0374 39.63032 
L 149.442002 48.624738 
L 149.846603 51.194571 
L 150.251204 49.909654 
L 150.655805 42.200154 
L 151.060406 47.66105 
L 151.465008 49.267196 
L 151.869609 44.448758 
L 152.27421 43.48507 
L 152.678811 48.945967 
L 153.083412 44.769987 
L 153.892615 48.945967 
L 154.297216 44.769987 
L 154.701817 53.764405 
L 155.106418 49.588425 
L 155.51102 44.127529 
L 156.320222 53.443175 
L 156.724823 45.733675 
L 157.129424 48.945967 
L 157.534026 47.339821 
L 157.938627 46.697362 
L 158.343228 54.406863 
L 158.747829 48.303508 
L 159.15243 45.412446 
L 159.557032 47.018592 
L 159.961633 44.769987 
L 160.366234 41.236466 
L 160.770835 44.127529 
L 161.175436 50.230883 
L 161.580037 59.867759 
L 161.984639 32.242049 
L 162.38924 59.225301 
L 162.793841 44.127529 
L 163.198442 58.904072 
L 163.603043 39.63032 
L 164.007645 47.982279 
L 164.412246 38.345403 
L 164.816847 40.594008 
L 165.221448 52.479488 
L 165.626049 49.267196 
L 166.030651 54.728092 
L 166.435252 48.303508 
L 166.839853 46.376133 
L 167.244454 57.619155 
L 167.649055 51.194571 
L 168.053657 55.69178 
L 168.458258 56.013009 
L 168.862859 46.054904 
L 169.26746 52.158259 
L 169.672061 51.194571 
L 170.076663 51.5158 
L 170.885865 44.448758 
L 171.695067 47.339821 
L 172.099669 46.054904 
L 172.50427 46.376133 
L 172.908871 50.552113 
L 173.313472 48.945967 
L 173.718073 48.624738 
L 174.122675 47.339821 
L 174.527276 56.013009 
L 174.931877 44.769987 
L 175.336478 50.230883 
L 176.145681 33.848195 
L 176.550282 33.848195 
L 176.954883 37.381716 
L 177.359484 29.993444 
L 177.764085 38.666633 
L 178.168687 28.066069 
L 178.573288 35.133111 
L 178.977889 27.102382 
L 179.38249 36.739257 
L 179.787091 25.817465 
L 180.191693 22.605173 
L 180.596294 35.133111 
L 181.000895 33.526965 
L 181.405496 50.230883 
L 181.810097 42.200154 
L 182.6193 48.945967 
L 183.023901 43.48507 
L 183.428502 44.127529 
L 183.833103 47.339821 
L 184.237704 53.443175 
L 185.046907 40.915237 
L 185.451508 46.054904 
L 185.856109 55.049321 
L 186.26071 49.588425 
L 186.665312 47.66105 
L 187.069913 38.987862 
L 187.474514 43.8063 
L 187.879115 45.733675 
L 188.283716 47.018592 
L 188.688318 51.194571 
L 189.092919 58.904072 
L 189.49752 48.303508 
L 189.902121 40.915237 
L 190.711324 51.5158 
L 191.115925 52.158259 
L 191.520526 55.049321 
L 191.925127 48.945967 
L 192.329728 46.376133 
L 192.73433 37.702945 
L 193.138931 47.339821 
L 193.543532 32.242049 
L 193.948133 51.837029 
L 194.352734 41.878924 
L 194.757336 44.127529 
L 195.161937 41.557695 
L 195.566538 33.848195 
L 195.971139 45.412446 
L 196.37574 52.158259 
L 196.780342 34.490653 
L 197.184943 56.013009 
L 197.994145 70.147093 
L 198.398746 60.510218 
L 198.803348 74.965531 
L 199.207949 65.007426 
L 199.61255 59.867759 
L 200.017151 72.716927 
L 200.421752 56.334238 
L 200.826354 57.297926 
L 201.230955 52.158259 
L 201.635556 61.795134 
L 202.040157 53.764405 
L 202.444758 51.194571 
L 202.849359 49.588425 
L 203.253961 55.370551 
L 203.658562 53.121946 
L 204.063163 53.764405 
L 204.467764 48.624738 
L 204.872365 49.267196 
L 205.276967 49.267196 
L 205.681568 49.909654 
L 206.086169 54.085634 
L 206.49077 51.194571 
L 206.895371 52.479488 
L 207.299973 48.945967 
L 207.704574 49.588425 
L 208.109175 56.655467 
L 208.513776 53.443175 
L 208.918377 45.091216 
L 209.322979 50.552113 
L 209.72758 43.8063 
L 210.132181 42.521383 
L 210.536782 42.521383 
L 210.941383 37.060487 
L 211.345985 49.909654 
L 211.750586 42.521383 
L 212.155187 41.557695 
L 212.559788 55.69178 
L 212.964389 38.345403 
L 213.368991 58.582843 
L 214.178193 44.769987 
L 214.582794 47.982279 
L 214.987395 44.448758 
L 215.391997 52.479488 
L 215.796598 46.054904 
L 216.201199 47.66105 
L 216.6058 59.225301 
L 217.010401 40.915237 
L 217.415003 48.945967 
L 217.819604 46.054904 
L 218.224205 49.909654 
L 218.628806 49.267196 
L 219.033407 43.8063 
L 219.438009 47.018592 
L 219.84261 48.303508 
L 220.247211 46.054904 
L 220.651812 46.054904 
L 221.056413 41.878924 
L 221.461014 45.091216 
L 221.865616 41.878924 
L 222.270217 63.72251 
L 222.674818 60.831447 
L 223.079419 63.080051 
L 223.48402 61.473905 
L 224.293223 43.163841 
L 224.697824 42.521383 
L 225.102425 56.334238 
L 225.507026 39.63032 
L 225.911628 41.557695 
L 226.316229 44.769987 
L 226.72083 36.418028 
L 227.125431 44.448758 
L 227.530032 48.624738 
L 227.934634 41.557695 
L 228.339235 50.230883 
L 228.743836 41.878924 
L 229.148437 44.448758 
L 229.553038 38.024174 
L 229.95764 41.878924 
L 230.362241 44.448758 
L 230.766842 43.8063 
L 231.171443 50.230883 
L 231.576044 49.267196 
L 231.980646 49.267196 
L 232.385247 50.552113 
L 232.789848 48.303508 
L 233.194449 40.915237 
L 233.59905 45.091216 
L 234.003652 44.448758 
L 234.408253 50.552113 
L 234.812854 43.163841 
L 235.217455 52.158259 
L 235.622056 48.303508 
L 236.026658 45.733675 
L 236.431259 40.594008 
L 236.83586 40.594008 
L 237.240461 50.873342 
L 237.645062 42.842612 
L 238.049664 44.448758 
L 238.454265 52.158259 
L 238.858866 45.733675 
L 239.263467 49.267196 
L 239.668068 47.982279 
L 240.07267 55.049321 
L 240.477271 52.800717 
L 240.881872 34.490653 
L 241.286473 40.272778 
L 241.691074 30.957132 
L 242.095675 42.521383 
L 242.500277 23.89009 
L 242.904878 24.532548 
L 243.309479 23.56886 
L 243.71408 23.89009 
L 244.118681 23.247631 
L 244.523283 29.350986 
L 245.332485 25.817465 
L 245.737086 29.993444 
L 246.141687 29.672215 
L 246.546289 27.74484 
L 246.95089 30.635903 
L 247.355491 41.557695 
L 247.760092 49.267196 
L 248.164693 40.915237 
L 248.569295 46.054904 
L 248.973896 44.448758 
L 249.783098 48.303508 
L 250.187699 46.697362 
L 250.592301 39.63032 
L 250.996902 48.303508 
L 251.401503 54.085634 
L 251.806104 39.63032 
L 252.210705 45.412446 
L 252.615307 44.127529 
L 253.019908 49.909654 
L 253.424509 53.443175 
L 253.82911 47.982279 
L 254.233711 59.225301 
L 254.638313 44.127529 
L 255.042914 41.236466 
L 255.447515 51.837029 
L 255.852116 50.230883 
L 256.256717 51.837029 
L 256.661319 46.376133 
L 257.06592 45.412446 
L 257.470521 39.951549 
L 257.875122 40.594008 
L 258.279723 55.69178 
L 258.684325 48.624738 
L 259.088926 29.350986 
L 259.493527 27.74484 
L 259.898128 49.909654 
L 260.302729 58.261613 
L 260.70733 58.261613 
L 261.111932 38.666633 
L 261.921134 52.479488 
L 262.325735 56.655467 
L 262.730336 49.267196 
L 263.134938 51.194571 
L 263.539539 65.649885 
L 263.94414 62.116364 
L 264.348741 61.473905 
L 264.753342 58.904072 
L 265.157944 63.40128 
L 265.562545 51.5158 
L 265.967146 50.552113 
L 266.371747 51.194571 
L 266.776348 47.018592 
L 267.18095 48.945967 
L 267.990152 57.297926 
L 268.394753 46.697362 
L 268.799354 54.085634 
L 269.203956 52.479488 
L 269.608557 43.48507 
L 270.013158 60.831447 
L 270.417759 45.733675 
L 270.82236 48.945967 
L 271.226962 50.552113 
L 272.036164 47.018592 
L 272.440765 48.303508 
L 272.845366 54.406863 
L 273.249968 58.261613 
L 273.654569 55.049321 
L 274.05917 50.873342 
L 274.463771 49.267196 
L 274.868372 43.163841 
L 275.272974 41.878924 
L 275.677575 54.406863 
L 276.082176 36.096799 
L 276.486777 34.490653 
L 276.891378 55.049321 
L 277.700581 35.454341 
L 278.105182 63.080051 
L 278.509783 43.8063 
L 278.914384 45.733675 
L 279.318986 41.557695 
L 279.723587 42.200154 
L 280.128188 60.510218 
L 280.532789 66.613572 
L 280.93739 59.225301 
L 281.341991 59.54653 
L 281.746593 60.510218 
L 282.151194 62.437593 
L 283.769599 67.256031 
L 284.1742 67.898489 
L 284.578801 69.504635 
L 285.792605 72.395698 
L 286.197206 73.038156 
L 287.006408 75.286761 
L 287.815611 76.571677 
L 288.624813 78.499052 
L 289.029414 81.068886 
L 289.434015 81.711344 
L 289.838617 80.426428 
L 290.243218 80.105198 
L 291.457021 74.644302 
L 291.861623 75.60799 
L 292.266224 76.250448 
L 292.670825 77.214136 
L 293.075426 76.571677 
L 293.480027 79.783969 
L 293.884629 79.46274 
L 294.28923 80.426428 
L 294.693831 80.105198 
L 295.098432 82.996261 
L 295.503033 83.959949 
L 295.907635 87.172241 
L 296.312236 89.099616 
L 296.716837 90.063303 
L 297.526039 92.954366 
L 297.930641 93.275595 
L 298.335242 95.5242 
L 298.739843 94.881741 
L 299.549045 96.166658 
L 299.953646 96.487887 
L 300.358248 97.130346 
L 300.762849 97.451575 
L 301.16745 98.094033 
L 301.572051 99.700179 
L 301.976652 99.057721 
L 302.381254 99.37895 
L 302.785855 100.021408 
L 303.190456 102.270013 
L 303.595057 100.985096 
L 303.999658 101.627554 
L 305.213462 102.591242 
L 305.618063 102.591242 
L 306.022664 101.306325 
L 306.831867 90.384533 
L 307.236468 84.923636 
L 308.04567 77.214136 
L 308.450272 77.856594 
L 308.854873 75.929219 
L 309.259474 74.644302 
L 309.664075 75.929219 
L 310.068676 75.60799 
L 310.473278 79.141511 
L 310.877879 77.856594 
L 311.28248 81.711344 
L 311.687081 83.31749 
L 312.091682 85.887324 
L 312.900885 94.239283 
L 313.710087 101.627554 
L 314.114688 102.270013 
L 314.51929 103.55493 
L 314.923891 101.948784 
L 315.328492 97.772804 
L 315.733093 101.948784 
L 316.542296 102.591242 
L 316.946897 103.2337 
L 317.351498 103.2337 
L 317.756099 103.876159 
L 319.374504 105.161076 
L 319.779105 107.40968 
L 320.183706 108.694597 
L 320.588307 106.124763 
L 320.992909 107.088451 
L 321.39751 106.767222 
L 321.802111 108.052138 
L 322.206712 106.767222 
L 322.611313 106.445992 
L 323.015915 102.912471 
L 323.420516 97.130346 
L 323.825117 98.094033 
L 324.229718 98.094033 
L 324.634319 99.700179 
L 325.038921 98.094033 
L 325.443522 99.057721 
L 325.848123 100.342638 
L 326.252724 100.985096 
L 327.061927 106.445992 
L 327.466528 102.591242 
L 327.871129 109.979513 
L 328.680331 118.652702 
L 329.489534 126.362202 
L 329.894135 129.895723 
L 330.298736 130.538182 
L 330.703337 130.216953 
L 331.107939 128.610807 
L 331.51254 127.968348 
L 331.917141 127.647119 
L 332.321742 127.968348 
L 333.130945 127.32589 
L 334.749349 127.32589 
L 335.153951 129.253265 
L 335.558552 127.32589 
L 335.963153 127.968348 
L 336.772355 127.32589 
L 337.176957 127.32589 
L 337.581558 129.253265 
L 337.986159 127.32589 
L 338.39076 127.647119 
L 338.795361 126.683431 
L 339.604564 123.47114 
L 340.009165 124.113598 
L 340.413766 120.901306 
L 340.818367 119.616389 
L 341.222968 116.725327 
L 341.62757 118.652702 
L 342.032171 117.689014 
L 342.436772 119.616389 
L 342.841373 116.725327 
L 343.245974 117.367785 
L 343.650576 118.973931 
L 344.864379 121.864994 
L 345.26898 122.186223 
L 345.673582 123.14991 
L 346.078183 126.683431 
L 346.482784 127.647119 
L 347.291986 123.14991 
L 347.696588 124.756056 
L 348.101189 125.077286 
L 348.50579 122.828681 
L 348.910391 124.434827 
L 349.314992 125.077286 
L 349.719594 125.077286 
L 350.124195 126.683431 
L 350.528796 125.398515 
L 350.933397 125.398515 
L 351.337998 114.155493 
L 351.7426 125.719744 
L 352.147201 125.719744 
L 352.551802 127.968348 
L 352.956403 125.719744 
L 353.361004 112.228118 
L 353.765606 129.253265 
L 354.170207 129.253265 
L 354.574808 125.077286 
L 354.979409 122.828681 
L 355.38401 110.621972 
L 355.788612 117.046556 
L 356.193213 111.585659 
L 356.597814 109.658284 
L 357.002415 108.373367 
L 357.407016 109.015826 
L 357.811618 108.694597 
L 358.216219 111.585659 
L 358.62082 109.658284 
L 359.025421 111.585659 
L 359.430022 118.010243 
L 359.834623 104.839846 
L 360.239225 113.191805 
L 360.643826 112.870576 
L 361.048427 114.476722 
L 361.453028 118.010243 
L 361.857629 127.968348 
L 362.262231 117.367785 
L 363.071433 123.14991 
L 363.476034 122.186223 
L 363.880635 128.289577 
L 364.285237 121.543764 
L 364.689838 118.652702 
L 365.094439 118.010243 
L 365.49904 120.580077 
L 365.903641 126.040973 
L 366.712844 111.585659 
L 367.117445 116.404097 
L 367.522046 118.331472 
L 367.926647 118.973931 
L 368.331249 116.082868 
L 368.73585 115.119181 
L 369.140451 115.119181 
L 369.545052 116.404097 
L 369.949653 116.082868 
L 370.354255 118.973931 
L 370.758856 113.513035 
L 371.568058 108.373367 
L 371.972659 95.845429 
L 372.377261 94.560512 
L 373.186463 86.529782 
L 373.591064 83.959949 
L 373.995665 88.135928 
L 374.400267 76.571677 
L 374.804868 81.711344 
L 375.209469 84.923636 
L 375.61407 85.887324 
L 376.018671 86.208553 
L 376.423273 86.851012 
L 377.232475 90.384533 
L 378.041677 100.342638 
L 378.446279 99.057721 
L 378.85088 105.803534 
L 379.255481 103.55493 
L 379.660082 103.876159 
L 380.064683 100.663867 
L 380.469284 103.876159 
L 380.873886 100.021408 
L 381.278487 103.876159 
L 381.683088 100.985096 
L 382.087689 99.057721 
L 382.49229 99.37895 
L 382.896892 91.34822 
L 383.301493 103.2337 
L 383.706094 96.809117 
L 384.110695 97.130346 
L 384.515296 95.202971 
L 384.919898 97.772804 
L 385.324499 91.026991 
L 385.7291 87.814699 
L 386.133701 103.2337 
L 386.538302 101.627554 
L 386.942904 100.663867 
L 387.347505 98.415262 
L 387.752106 91.990679 
L 388.156707 100.342638 
L 388.561308 94.881741 
L 388.96591 78.499052 
L 389.370511 79.141511 
L 389.775112 78.499052 
L 390.584314 80.426428 
L 390.988916 82.353803 
L 391.393517 85.887324 
L 391.798118 93.596825 
L 392.202719 81.711344 
L 392.60732 89.420845 
L 393.011922 92.633137 
L 393.416523 100.985096 
L 393.821124 92.954366 
L 394.225725 106.124763 
L 394.630326 99.700179 
L 395.034928 109.015826 
L 395.439529 107.40968 
L 395.84413 113.834264 
L 396.248731 103.876159 
L 396.653332 102.591242 
L 397.057934 106.767222 
L 397.462535 92.633137 
L 397.867136 104.197388 
L 398.271737 104.197388 
L 398.676338 95.202971 
L 399.080939 99.700179 
L 399.485541 106.124763 
L 399.890142 93.918054 
L 400.294743 96.809117 
L 400.699344 108.373367 
L 401.508547 89.099616 
L 401.913148 88.135928 
L 402.317749 100.021408 
L 402.72235 91.669449 
L 403.126951 91.669449 
L 403.531553 112.549347 
L 404.745356 82.996261 
L 405.149957 87.172241 
L 405.554559 96.487887 
L 406.363761 77.535365 
L 406.768362 85.887324 
L 407.172963 99.057721 
L 407.982166 74.323073 
L 408.386767 67.898489 
L 408.791368 76.250448 
L 409.195969 80.426428 
L 409.600571 79.46274 
L 410.005172 94.560512 
L 410.409773 93.918054 
L 411.623577 90.384533 
L 412.028178 87.172241 
L 412.432779 85.887324 
L 412.83738 80.747657 
L 413.241981 88.135928 
L 413.646583 89.420845 
L 414.051184 93.918054 
L 414.455785 80.426428 
L 414.860386 79.783969 
L 415.264987 81.711344 
L 415.669589 82.032574 
L 416.07419 77.856594 
L 416.478791 69.825864 
L 416.883392 72.716927 
L 418.097196 91.669449 
L 418.501797 78.820282 
L 418.906398 77.856594 
L 419.310999 74.323073 
L 419.7156 74.323073 
L 420.120202 72.395698 
L 420.524803 74.323073 
L 420.929404 82.675032 
L 421.334005 74.644302 
L 421.738606 72.074469 
L 422.143208 59.867759 
L 422.95241 76.571677 
L 423.357011 69.825864 
L 423.761612 59.867759 
L 424.166214 65.007426 
L 424.570815 80.426428 
L 425.380017 59.54653 
L 425.784618 77.535365 
L 426.593821 61.473905 
L 426.998422 83.31749 
L 427.403023 77.214136 
L 427.807624 66.613572 
L 428.212226 82.353803 
L 428.616827 79.141511 
L 429.021428 72.716927 
L 429.426029 92.633137 
L 429.83063 68.540948 
L 430.235232 86.529782 
L 430.639833 68.219718 
L 431.044434 84.923636 
L 431.449035 69.183406 
L 431.853636 80.747657 
L 431.853636 80.747657 
" clip-path="url(#p891554cb83)" style="fill: none; stroke: #1f77b4; stroke-width: 1.5; stroke-linecap: square"/>
   </g>
   <g id="line2d_12">
    <path d="M 68.926364 64.043739 
L 69.330965 64.364968 
L 69.735566 64.043739 
L 70.140167 55.370551 
L 70.544768 50.552113 
L 70.94937 51.837029 
L 71.353971 63.080051 
L 72.163173 44.448758 
L 72.567774 57.940384 
L 72.972376 57.619155 
L 73.376977 68.540948 
L 73.781578 64.686197 
L 74.186179 71.110781 
L 74.59078 49.909654 
L 74.995382 59.867759 
L 75.399983 57.940384 
L 75.804584 59.225301 
L 76.209185 57.297926 
L 76.613786 59.867759 
L 77.018388 52.800717 
L 77.422989 50.873342 
L 77.82759 56.013009 
L 78.232191 43.48507 
L 78.636792 54.728092 
L 79.041394 45.412446 
L 79.445995 46.697362 
L 79.850596 40.915237 
L 80.255197 53.121946 
L 80.659798 50.552113 
L 81.0644 50.873342 
L 81.469001 40.272778 
L 81.873602 50.552113 
L 82.278203 55.049321 
L 82.682804 47.018592 
L 83.087405 51.194571 
L 83.492007 50.873342 
L 83.896608 46.054904 
L 84.301209 56.334238 
L 84.70581 57.619155 
L 85.110411 63.72251 
L 85.515013 56.976697 
L 85.919614 45.412446 
L 86.324215 60.831447 
L 86.728816 61.152676 
L 87.133417 52.479488 
L 87.538019 52.800717 
L 87.94262 52.479488 
L 88.347221 56.976697 
L 88.751822 63.72251 
L 89.561025 48.624738 
L 89.965626 62.437593 
L 90.370227 70.789552 
L 91.179429 45.412446 
L 91.988632 66.613572 
L 92.393233 49.909654 
L 93.202435 59.867759 
L 93.607037 57.940384 
L 94.011638 54.085634 
L 94.416239 58.261613 
L 94.82084 63.72251 
L 95.225441 53.443175 
L 95.630043 66.613572 
L 96.034644 47.018592 
L 96.439245 52.158259 
L 96.843846 51.194571 
L 97.248447 40.915237 
L 97.653049 62.437593 
L 98.05765 48.303508 
L 98.462251 63.40128 
L 98.866852 57.619155 
L 99.271453 44.769987 
L 99.676055 69.504635 
L 100.080656 55.370551 
L 100.485257 54.728092 
L 100.889858 67.57726 
L 101.294459 54.085634 
L 101.699061 59.54653 
L 102.103662 53.121946 
L 102.508263 65.971114 
L 102.912864 51.837029 
L 103.317465 56.976697 
L 103.722066 56.013009 
L 104.531269 51.194571 
L 104.93587 45.733675 
L 105.340471 62.758822 
L 105.745072 51.194571 
L 106.149674 57.940384 
L 106.554275 54.728092 
L 106.958876 48.945967 
L 107.363477 50.552113 
L 107.768078 52.800717 
L 108.17268 61.152676 
L 108.981882 47.018592 
L 109.386483 45.412446 
L 109.791084 47.018592 
L 110.195686 41.557695 
L 110.600287 33.205736 
L 111.409489 43.163841 
L 111.81409 33.848195 
L 112.218692 34.811882 
L 112.623293 35.133111 
L 113.027894 39.309091 
L 113.432495 38.024174 
L 113.837096 41.878924 
L 114.241698 43.163841 
L 114.646299 47.018592 
L 115.0509 47.66105 
L 115.455501 42.842612 
L 115.860102 50.552113 
L 116.264704 70.468323 
L 116.669305 58.582843 
L 117.073906 51.837029 
L 117.478507 51.194571 
L 117.883108 62.437593 
L 118.28771 45.412446 
L 118.692311 38.345403 
L 119.096912 57.297926 
L 119.501513 52.479488 
L 119.906114 45.733675 
L 120.310716 52.479488 
L 120.715317 51.837029 
L 121.119918 49.267196 
L 121.524519 56.976697 
L 121.92912 56.976697 
L 122.333721 46.376133 
L 122.738323 63.72251 
L 123.142924 51.837029 
L 123.547525 63.72251 
L 123.952126 66.613572 
L 124.356727 43.48507 
L 124.761329 71.43201 
L 125.16593 59.54653 
L 125.570531 64.686197 
L 126.379733 46.054904 
L 126.784335 47.339821 
L 127.188936 49.909654 
L 127.593537 49.267196 
L 127.998138 52.158259 
L 128.807341 49.267196 
L 129.211942 67.57726 
L 129.616543 51.194571 
L 130.021144 54.728092 
L 130.425745 43.8063 
L 131.234948 68.219718 
L 131.639549 59.225301 
L 132.04415 59.54653 
L 132.448751 76.250448 
L 132.853353 68.862177 
L 133.257954 64.043739 
L 133.662555 70.468323 
L 134.067156 71.110781 
L 134.471757 68.540948 
L 134.876359 70.147093 
L 135.28096 64.364968 
L 135.685561 56.655467 
L 136.090162 65.649885 
L 136.494763 64.043739 
L 136.899365 65.649885 
L 137.303966 56.655467 
L 137.708567 62.116364 
L 138.113168 63.080051 
L 138.517769 59.54653 
L 138.922371 66.292343 
L 139.326972 59.54653 
L 139.731573 60.510218 
L 140.136174 57.619155 
L 140.945377 57.619155 
L 141.349978 61.152676 
L 141.754579 69.183406 
L 142.15918 61.473905 
L 142.563781 60.831447 
L 142.968382 69.504635 
L 143.372984 54.728092 
L 143.777585 56.655467 
L 144.182186 48.303508 
L 144.586787 55.370551 
L 144.991388 52.158259 
L 145.39599 64.364968 
L 145.800591 48.945967 
L 146.205192 47.66105 
L 146.609793 49.267196 
L 147.014394 48.624738 
L 147.418996 45.733675 
L 147.823597 48.624738 
L 148.228198 62.437593 
L 148.632799 54.085634 
L 149.0374 52.479488 
L 149.442002 57.940384 
L 149.846603 51.194571 
L 150.251204 67.898489 
L 150.655805 50.230883 
L 151.060406 63.72251 
L 151.465008 54.406863 
L 151.869609 48.624738 
L 152.678811 56.013009 
L 153.083412 50.873342 
L 153.488014 57.619155 
L 153.892615 48.624738 
L 154.297216 50.230883 
L 154.701817 47.66105 
L 155.106418 49.909654 
L 155.51102 47.66105 
L 155.915621 53.121946 
L 156.320222 45.733675 
L 157.129424 53.121946 
L 157.534026 47.339821 
L 157.938627 61.152676 
L 158.343228 51.194571 
L 158.747829 51.5158 
L 159.15243 46.697362 
L 159.557032 65.328656 
L 159.961633 49.267196 
L 160.366234 54.728092 
L 160.770835 57.619155 
L 161.175436 62.437593 
L 161.580037 57.940384 
L 161.984639 42.521383 
L 162.38924 50.873342 
L 162.793841 41.557695 
L 163.198442 43.48507 
L 163.603043 61.473905 
L 164.007645 45.412446 
L 164.412246 61.795134 
L 164.816847 50.873342 
L 165.221448 52.479488 
L 165.626049 55.049321 
L 166.030651 51.5158 
L 166.435252 52.479488 
L 166.839853 53.764405 
L 167.649055 48.624738 
L 168.053657 46.376133 
L 168.862859 55.049321 
L 169.26746 47.018592 
L 169.672061 47.339821 
L 170.076663 51.837029 
L 170.481264 50.552113 
L 170.885865 43.8063 
L 171.290466 41.557695 
L 171.695067 53.121946 
L 172.099669 73.680615 
L 172.50427 53.443175 
L 172.908871 54.406863 
L 173.313472 57.297926 
L 173.718073 48.945967 
L 174.122675 53.443175 
L 174.527276 56.655467 
L 174.931877 56.976697 
L 175.336478 44.448758 
L 175.741079 51.5158 
L 176.145681 48.624738 
L 176.550282 28.387298 
L 176.954883 39.951549 
L 177.359484 36.096799 
L 177.764085 35.454341 
L 178.168687 35.454341 
L 178.573288 21.320256 
L 178.977889 37.060487 
L 179.38249 36.418028 
L 179.787091 48.303508 
L 181.000895 38.987862 
L 181.405496 40.915237 
L 181.810097 49.909654 
L 182.214698 46.376133 
L 182.6193 53.764405 
L 183.023901 44.769987 
L 183.428502 48.624738 
L 183.833103 71.753239 
L 184.237704 44.769987 
L 184.642306 70.789552 
L 185.046907 45.412446 
L 185.451508 49.909654 
L 185.856109 47.339821 
L 186.26071 72.074469 
L 186.665312 44.769987 
L 187.069913 44.127529 
L 187.474514 52.800717 
L 187.879115 56.334238 
L 188.688318 47.982279 
L 189.092919 51.194571 
L 189.49752 47.018592 
L 189.902121 48.945967 
L 190.306722 48.945967 
L 190.711324 52.158259 
L 191.115925 39.63032 
L 191.520526 62.116364 
L 191.925127 52.800717 
L 192.329728 60.510218 
L 192.73433 50.552113 
L 193.138931 43.48507 
L 193.543532 38.666633 
L 193.948133 54.085634 
L 194.352734 36.418028 
L 194.757336 39.63032 
L 195.161937 64.686197 
L 195.566538 35.454341 
L 195.971139 58.582843 
L 196.37574 45.733675 
L 196.780342 65.007426 
L 197.184943 53.121946 
L 197.589544 54.085634 
L 197.994145 55.370551 
L 198.398746 57.940384 
L 198.803348 75.60799 
L 199.207949 67.57726 
L 199.61255 76.571677 
L 200.017151 69.504635 
L 200.421752 71.43201 
L 200.826354 80.105198 
L 201.230955 67.898489 
L 201.635556 66.934802 
L 202.040157 70.147093 
L 202.444758 65.007426 
L 202.849359 64.686197 
L 203.253961 53.443175 
L 203.658562 63.080051 
L 204.063163 64.686197 
L 204.467764 72.716927 
L 204.872365 61.795134 
L 205.276967 61.795134 
L 205.681568 72.395698 
L 206.086169 58.582843 
L 206.49077 62.116364 
L 206.895371 59.54653 
L 207.299973 58.261613 
L 207.704574 63.40128 
L 208.109175 60.188988 
L 208.513776 61.795134 
L 208.918377 60.510218 
L 209.322979 56.334238 
L 209.72758 65.328656 
L 210.132181 57.940384 
L 210.536782 53.443175 
L 210.941383 41.557695 
L 211.345985 53.443175 
L 211.750586 50.552113 
L 212.155187 51.837029 
L 212.559788 46.054904 
L 212.964389 47.018592 
L 213.368991 66.613572 
L 213.773592 50.873342 
L 214.178193 46.697362 
L 214.582794 51.5158 
L 214.987395 43.48507 
L 215.391997 56.655467 
L 215.796598 54.728092 
L 216.201199 57.297926 
L 216.6058 57.297926 
L 217.010401 49.588425 
L 217.415003 55.69178 
L 217.819604 54.406863 
L 218.224205 49.267196 
L 218.628806 49.588425 
L 219.033407 50.873342 
L 219.438009 46.697362 
L 219.84261 38.024174 
L 220.247211 60.188988 
L 220.651812 61.152676 
L 221.056413 43.8063 
L 221.461014 52.158259 
L 221.865616 57.940384 
L 222.674818 50.552113 
L 223.079419 50.552113 
L 223.48402 48.945967 
L 223.888622 50.552113 
L 224.293223 51.194571 
L 224.697824 54.406863 
L 225.102425 50.873342 
L 225.507026 45.091216 
L 225.911628 43.8063 
L 226.316229 48.945967 
L 226.72083 39.951549 
L 227.530032 51.837029 
L 227.934634 47.018592 
L 228.743836 53.121946 
L 229.148437 66.292343 
L 229.553038 64.686197 
L 229.95764 47.982279 
L 230.362241 41.236466 
L 230.766842 54.728092 
L 231.171443 52.158259 
L 231.576044 50.873342 
L 231.980646 61.152676 
L 232.385247 47.339821 
L 232.789848 47.982279 
L 233.194449 53.121946 
L 233.59905 52.158259 
L 234.003652 53.443175 
L 234.408253 52.479488 
L 234.812854 45.733675 
L 235.217455 47.339821 
L 235.622056 69.183406 
L 236.026658 56.013009 
L 236.431259 52.158259 
L 236.83586 52.158259 
L 237.240461 69.183406 
L 237.645062 51.194571 
L 238.049664 49.588425 
L 238.454265 51.5158 
L 238.858866 52.479488 
L 239.263467 49.909654 
L 239.668068 63.72251 
L 240.07267 55.049321 
L 240.477271 54.406863 
L 240.881872 66.613572 
L 241.286473 52.158259 
L 241.691074 49.588425 
L 242.095675 42.842612 
L 242.500277 39.951549 
L 242.904878 41.236466 
L 243.309479 38.666633 
L 243.71408 41.557695 
L 244.118681 36.418028 
L 244.523283 35.77557 
L 244.927884 30.957132 
L 245.332485 29.993444 
L 245.737086 34.169424 
L 246.141687 33.848195 
L 246.546289 16.501818 
L 246.95089 37.060487 
L 247.355491 26.459923 
L 247.760092 49.909654 
L 248.164693 39.309091 
L 248.569295 49.267196 
L 248.973896 50.230883 
L 249.378497 47.982279 
L 249.783098 44.769987 
L 250.187699 61.152676 
L 250.996902 46.376133 
L 251.401503 54.085634 
L 251.806104 56.655467 
L 252.210705 46.697362 
L 252.615307 47.339821 
L 253.019908 47.339821 
L 253.424509 44.769987 
L 253.82911 56.334238 
L 254.233711 41.236466 
L 254.638313 51.194571 
L 255.042914 44.448758 
L 255.447515 43.163841 
L 255.852116 51.194571 
L 256.256717 45.091216 
L 256.661319 65.971114 
L 257.06592 58.582843 
L 257.470521 44.769987 
L 257.875122 45.733675 
L 258.279723 49.588425 
L 258.684325 58.582843 
L 259.088926 56.334238 
L 259.493527 51.837029 
L 259.898128 42.842612 
L 260.302729 49.267196 
L 260.70733 37.381716 
L 261.111932 46.376133 
L 261.516533 50.873342 
L 261.921134 30.957132 
L 262.325735 45.733675 
L 263.134938 50.230883 
L 263.539539 48.303508 
L 263.94414 57.940384 
L 264.348741 49.909654 
L 264.753342 53.764405 
L 265.157944 55.370551 
L 265.562545 58.904072 
L 265.967146 54.406863 
L 266.776348 72.716927 
L 267.18095 66.613572 
L 267.585551 82.032574 
L 267.990152 59.54653 
L 268.394753 63.72251 
L 268.799354 56.655467 
L 269.203956 59.867759 
L 269.608557 65.971114 
L 270.417759 57.940384 
L 270.82236 57.619155 
L 271.226962 67.57726 
L 271.631563 58.582843 
L 272.036164 57.619155 
L 272.440765 56.013009 
L 272.845366 61.795134 
L 273.249968 56.976697 
L 273.654569 60.510218 
L 274.463771 59.225301 
L 274.868372 57.619155 
L 275.272974 59.867759 
L 275.677575 48.945967 
L 276.082176 58.261613 
L 276.486777 55.370551 
L 276.891378 53.443175 
L 277.29598 59.225301 
L 277.700581 47.018592 
L 278.105182 45.733675 
L 278.509783 40.915237 
L 278.914384 40.915237 
L 279.318986 40.272778 
L 279.723587 52.800717 
L 280.128188 41.236466 
L 280.532789 63.72251 
L 281.341991 40.272778 
L 281.746593 48.624738 
L 282.151194 51.837029 
L 282.555795 49.909654 
L 282.960396 58.261613 
L 283.364997 48.945967 
L 283.769599 48.945967 
L 284.578801 51.194571 
L 284.983402 48.945967 
L 285.388003 49.267196 
L 285.792605 50.552113 
L 286.197206 47.982279 
L 286.601807 49.267196 
L 287.006408 52.158259 
L 287.815611 47.66105 
L 288.220212 43.163841 
L 288.624813 52.800717 
L 289.029414 43.48507 
L 289.434015 50.230883 
L 289.838617 54.728092 
L 290.243218 55.69178 
L 290.647819 45.733675 
L 291.457021 57.297926 
L 291.861623 53.443175 
L 292.266224 51.5158 
L 292.670825 45.733675 
L 293.075426 43.8063 
L 293.480027 54.085634 
L 293.884629 56.655467 
L 294.28923 45.412446 
L 294.693831 58.582843 
L 295.098432 44.127529 
L 295.503033 38.345403 
L 295.907635 50.230883 
L 296.312236 49.267196 
L 296.716837 44.769987 
L 297.121438 32.242049 
L 297.526039 47.66105 
L 297.930641 54.406863 
L 298.335242 39.951549 
L 298.739843 48.624738 
L 299.144444 53.764405 
L 299.549045 50.230883 
L 299.953646 49.909654 
L 300.358248 54.085634 
L 300.762849 49.588425 
L 301.16745 55.049321 
L 301.572051 53.764405 
L 301.976652 53.764405 
L 302.381254 55.049321 
L 302.785855 49.588425 
L 303.190456 51.5158 
L 303.595057 49.267196 
L 303.999658 48.624738 
L 304.40426 49.909654 
L 304.808861 48.624738 
L 305.213462 46.697362 
L 305.618063 53.443175 
L 306.022664 53.121946 
L 306.427266 46.376133 
L 306.831867 63.40128 
L 307.641069 44.769987 
L 308.04567 56.013009 
L 308.450272 54.728092 
L 308.854873 48.945967 
L 309.259474 35.77557 
L 309.664075 43.48507 
L 310.068676 45.412446 
L 310.473278 44.769987 
L 310.877879 31.278361 
L 311.28248 33.848195 
L 311.687081 33.205736 
L 312.091682 45.091216 
L 312.496284 32.884507 
L 312.900885 32.242049 
L 313.305486 34.490653 
L 313.710087 44.769987 
L 314.114688 39.309091 
L 314.51929 38.024174 
L 314.923891 40.915237 
L 315.733093 56.013009 
L 316.137694 50.230883 
L 316.542296 67.256031 
L 316.946897 49.267196 
L 317.351498 49.588425 
L 317.756099 47.018592 
L 318.1607 49.588425 
L 318.565302 58.261613 
L 318.969903 47.339821 
L 319.374504 48.303508 
L 319.779105 43.163841 
L 320.183706 63.40128 
L 320.992909 38.987862 
L 321.39751 58.261613 
L 321.802111 57.940384 
L 322.206712 50.230883 
L 322.611313 46.376133 
L 323.015915 44.448758 
L 323.420516 50.230883 
L 323.825117 50.230883 
L 324.229718 56.013009 
L 324.634319 63.40128 
L 325.038921 55.370551 
L 325.443522 55.69178 
L 325.848123 45.412446 
L 326.252724 45.412446 
L 326.657325 59.867759 
L 327.061927 54.085634 
L 327.466528 42.521383 
L 327.871129 52.479488 
L 328.27573 39.951549 
L 328.680331 41.878924 
L 329.084933 64.364968 
L 329.489534 51.5158 
L 329.894135 61.795134 
L 330.298736 48.945967 
L 330.703337 58.582843 
L 331.107939 53.443175 
L 331.51254 54.085634 
L 331.917141 69.183406 
L 332.321742 61.152676 
L 332.726343 62.758822 
L 333.130945 74.001844 
L 333.535546 77.535365 
L 333.940147 64.364968 
L 334.344748 73.680615 
L 334.749349 60.831447 
L 335.153951 53.443175 
L 335.558552 61.473905 
L 335.963153 59.54653 
L 336.367754 55.69178 
L 336.772355 46.054904 
L 337.176957 57.619155 
L 337.581558 61.152676 
L 337.986159 54.406863 
L 338.39076 52.158259 
L 339.199963 49.267196 
L 339.604564 59.225301 
L 340.009165 51.194571 
L 340.413766 53.121946 
L 340.818367 60.188988 
L 341.222968 54.406863 
L 342.032171 60.831447 
L 342.436772 51.194571 
L 342.841373 48.624738 
L 343.245974 56.334238 
L 343.650576 54.406863 
L 344.055177 46.697362 
L 344.459778 62.437593 
L 344.864379 60.188988 
L 345.26898 51.194571 
L 345.673582 38.345403 
L 346.078183 46.054904 
L 346.482784 41.557695 
L 347.291986 56.655467 
L 347.696588 48.624738 
L 348.101189 44.769987 
L 348.50579 63.72251 
L 348.910391 52.158259 
L 349.719594 45.733675 
L 350.124195 50.230883 
L 350.528796 49.909654 
L 350.933397 64.686197 
L 351.337998 51.837029 
L 351.7426 57.619155 
L 352.147201 51.837029 
L 352.551802 49.909654 
L 352.956403 56.334238 
L 353.361004 46.054904 
L 353.765606 58.582843 
L 354.170207 54.085634 
L 354.574808 48.303508 
L 354.979409 52.479488 
L 355.38401 47.982279 
L 355.788612 45.733675 
L 356.193213 42.200154 
L 356.597814 65.649885 
L 357.002415 48.945967 
L 357.407016 50.552113 
L 357.811618 59.867759 
L 358.216219 49.909654 
L 358.62082 49.909654 
L 359.025421 48.303508 
L 359.430022 45.091216 
L 360.239225 43.8063 
L 360.643826 45.733675 
L 361.048427 49.588425 
L 361.453028 37.381716 
L 361.857629 40.272778 
L 362.262231 48.303508 
L 362.666832 37.702945 
L 363.071433 55.049321 
L 363.880635 58.904072 
L 364.285237 63.080051 
L 364.689838 48.624738 
L 365.094439 48.624738 
L 365.49904 49.588425 
L 365.903641 51.194571 
L 366.308243 48.945967 
L 366.712844 48.945967 
L 367.117445 62.437593 
L 367.522046 53.764405 
L 367.926647 51.5158 
L 368.331249 52.800717 
L 368.73585 57.940384 
L 369.140451 46.697362 
L 369.545052 51.194571 
L 369.949653 46.054904 
L 370.354255 45.733675 
L 370.758856 50.873342 
L 371.163457 60.831447 
L 371.568058 47.339821 
L 371.972659 44.448758 
L 372.377261 50.230883 
L 372.781862 63.72251 
L 373.186463 46.376133 
L 373.591064 49.588425 
L 373.995665 50.230883 
L 374.400267 50.230883 
L 374.804868 57.297926 
L 375.209469 41.557695 
L 375.61407 45.412446 
L 376.018671 30.635903 
L 376.423273 45.733675 
L 376.827874 31.59959 
L 377.232475 33.526965 
L 377.637076 29.672215 
L 378.041677 29.350986 
L 378.446279 30.635903 
L 378.85088 29.993444 
L 379.255481 28.387298 
L 379.660082 32.242049 
L 380.064683 33.526965 
L 380.469284 34.169424 
L 380.873886 35.133111 
L 381.278487 41.878924 
L 381.683088 43.8063 
L 382.087689 48.303508 
L 382.49229 55.370551 
L 382.896892 47.339821 
L 383.301493 47.66105 
L 383.706094 45.733675 
L 384.515296 50.230883 
L 384.919898 46.697362 
L 385.324499 56.013009 
L 386.133701 40.594008 
L 386.538302 49.909654 
L 386.942904 52.479488 
L 387.347505 52.158259 
L 387.752106 47.018592 
L 388.156707 60.188988 
L 388.561308 50.230883 
L 388.96591 64.364968 
L 389.370511 47.66105 
L 389.775112 59.54653 
L 390.179713 45.412446 
L 390.584314 44.448758 
L 390.988916 47.339821 
L 391.393517 59.867759 
L 391.798118 53.764405 
L 392.60732 52.479488 
L 393.011922 47.339821 
L 393.416523 47.66105 
L 393.821124 42.200154 
L 394.225725 61.152676 
L 395.034928 33.205736 
L 395.84413 60.831447 
L 396.248731 37.060487 
L 396.653332 64.043739 
L 397.057934 50.873342 
L 397.867136 57.940384 
L 398.271737 63.72251 
L 398.676338 59.225301 
L 399.080939 59.867759 
L 399.485541 81.711344 
L 400.294743 64.364968 
L 400.699344 61.473905 
L 401.103945 61.152676 
L 401.508547 71.110781 
L 401.913148 57.297926 
L 402.317749 67.898489 
L 402.72235 67.256031 
L 403.126951 69.825864 
L 403.531553 48.945967 
L 403.936154 54.728092 
L 404.340755 64.364968 
L 404.745356 60.188988 
L 405.149957 60.831447 
L 405.554559 65.971114 
L 405.95916 49.588425 
L 406.363761 62.116364 
L 406.768362 51.837029 
L 407.172963 53.121946 
L 407.577565 56.976697 
L 407.982166 57.619155 
L 408.386767 65.649885 
L 409.195969 48.945967 
L 409.600571 48.945967 
L 410.005172 60.188988 
L 410.409773 62.437593 
L 410.814374 47.66105 
L 411.218975 40.915237 
L 411.623577 36.739257 
L 412.028178 51.5158 
L 412.432779 45.733675 
L 412.83738 46.054904 
L 413.241981 67.256031 
L 413.646583 58.904072 
L 414.051184 60.510218 
L 414.455785 56.013009 
L 414.860386 44.448758 
L 415.264987 47.018592 
L 415.669589 63.080051 
L 416.07419 48.945967 
L 416.478791 49.267196 
L 416.883392 59.225301 
L 417.287993 50.873342 
L 417.692595 45.733675 
L 418.501797 61.473905 
L 418.906398 47.339821 
L 419.310999 46.376133 
L 419.7156 61.473905 
L 420.120202 51.5158 
L 420.524803 46.054904 
L 420.929404 42.200154 
L 421.334005 60.510218 
L 421.738606 47.339821 
L 422.143208 46.054904 
L 422.547809 49.588425 
L 422.95241 40.915237 
L 423.357011 44.769987 
L 423.761612 45.733675 
L 424.166214 54.085634 
L 424.570815 56.976697 
L 424.975416 47.982279 
L 425.380017 51.194571 
L 425.784618 46.054904 
L 426.18922 48.303508 
L 426.593821 58.582843 
L 426.998422 45.733675 
L 427.403023 40.594008 
L 427.807624 40.272778 
L 428.212226 45.091216 
L 428.616827 44.448758 
L 429.021428 57.619155 
L 429.426029 55.370551 
L 429.83063 42.842612 
L 430.235232 49.588425 
L 430.639833 42.200154 
L 431.044434 50.230883 
L 431.449035 47.018592 
L 431.853636 39.951549 
L 431.853636 39.951549 
" clip-path="url(#p891554cb83)" style="fill: none; stroke: #ff7f0e; stroke-width: 1.5; stroke-linecap: square"/>
   </g>
   <g id="patch_3">
    <path d="M 50.78 136.24 
L 50.78 10.8 
" style="fill: none; stroke: #000000; stroke-width: 0.8; stroke-linejoin: miter; stroke-linecap: square"/>
   </g>
   <g id="patch_4">
    <path d="M 450 136.24 
L 450 10.8 
" style="fill: none; stroke: #000000; stroke-width: 0.8; stroke-linejoin: miter; stroke-linecap: square"/>
   </g>
   <g id="patch_5">
    <path d="M 50.78 136.24 
L 450 136.24 
" style="fill: none; stroke: #000000; stroke-width: 0.8; stroke-linejoin: miter; stroke-linecap: square"/>
   </g>
   <g id="patch_6">
    <path d="M 50.78 10.8 
L 450 10.8 
" style="fill: none; stroke: #000000; stroke-width: 0.8; stroke-linejoin: miter; stroke-linecap: square"/>
   </g>
   <g id="legend_1">
    <g id="patch_7">
     <path d="M 57.78 131.24 
L 141.794062 131.24 
Q 143.794062 131.24 143.794062 129.24 
L 143.794062 100.88375 
Q 143.794062 98.88375 141.794062 98.88375 
L 57.78 98.88375 
Q 55.78 98.88375 55.78 100.88375 
L 55.78 129.24 
Q 55.78 131.24 57.78 131.24 
z
" style="fill: #ffffff; opacity: 0.8; stroke: #cccccc; stroke-linejoin: miter"/>
    </g>
    <g id="line2d_13">
     <path d="M 59.78 106.982187 
L 69.78 106.982187 
L 79.78 106.982187 
" style="fill: none; stroke: #1f77b4; stroke-width: 1.5; stroke-linecap: square"/>
    </g>
    <g id="text_13">
     <!-- webcam -->
     <g transform="translate(87.78 110.482187) scale(0.1 -0.1)">
      <defs>
       <path id="DejaVuSans-77" d="M 269 3500 
L 844 3500 
L 1563 769 
L 2278 3500 
L 2956 3500 
L 3675 769 
L 4391 3500 
L 4966 3500 
L 4050 0 
L 3372 0 
L 2619 2869 
L 1863 0 
L 1184 0 
L 269 3500 
z
" transform="scale(0.015625)"/>
       <path id="DejaVuSans-62" d="M 3116 1747 
Q 3116 2381 2855 2742 
Q 2594 3103 2138 3103 
Q 1681 3103 1420 2742 
Q 1159 2381 1159 1747 
Q 1159 1113 1420 752 
Q 1681 391 2138 391 
Q 2594 391 2855 752 
Q 3116 1113 3116 1747 
z
M 1159 2969 
Q 1341 3281 1617 3432 
Q 1894 3584 2278 3584 
Q 2916 3584 3314 3078 
Q 3713 2572 3713 1747 
Q 3713 922 3314 415 
Q 2916 -91 2278 -91 
Q 1894 -91 1617 61 
Q 1341 213 1159 525 
L 1159 0 
L 581 0 
L 581 4863 
L 1159 4863 
L 1159 2969 
z
" transform="scale(0.015625)"/>
       <path id="DejaVuSans-63" d="M 3122 3366 
L 3122 2828 
Q 2878 2963 2633 3030 
Q 2388 3097 2138 3097 
Q 1578 3097 1268 2742 
Q 959 2388 959 1747 
Q 959 1106 1268 751 
Q 1578 397 2138 397 
Q 2388 397 2633 464 
Q 2878 531 3122 666 
L 3122 134 
Q 2881 22 2623 -34 
Q 2366 -91 2075 -91 
Q 1284 -91 818 406 
Q 353 903 353 1747 
Q 353 2603 823 3093 
Q 1294 3584 2113 3584 
Q 2378 3584 2631 3529 
Q 2884 3475 3122 3366 
z
" transform="scale(0.015625)"/>
      </defs>
      <use xlink:href="#DejaVuSans-77"/>
      <use xlink:href="#DejaVuSans-65" x="81.787109"/>
      <use xlink:href="#DejaVuSans-62" x="143.310547"/>
      <use xlink:href="#DejaVuSans-63" x="206.787109"/>
      <use xlink:href="#DejaVuSans-61" x="261.767578"/>
      <use xlink:href="#DejaVuSans-6d" x="323.046875"/>
     </g>
    </g>
    <g id="line2d_14">
     <path d="M 59.78 121.660312 
L 69.78 121.660312 
L 79.78 121.660312 
" style="fill: none; stroke: #ff7f0e; stroke-width: 1.5; stroke-linecap: square"/>
    </g>
    <g id="text_14">
     <!-- fibrescope -->
     <g transform="translate(87.78 125.160312) scale(0.1 -0.1)">
      <defs>
       <path id="DejaVuSans-66" d="M 2375 4863 
L 2375 4384 
L 1825 4384 
Q 1516 4384 1395 4259 
Q 1275 4134 1275 3809 
L 1275 3500 
L 2222 3500 
L 2222 3053 
L 1275 3053 
L 1275 0 
L 697 0 
L 697 3053 
L 147 3053 
L 147 3500 
L 697 3500 
L 697 3744 
Q 697 4328 969 4595 
Q 1241 4863 1831 4863 
L 2375 4863 
z
" transform="scale(0.015625)"/>
       <path id="DejaVuSans-6f" d="M 1959 3097 
Q 1497 3097 1228 2736 
Q 959 2375 959 1747 
Q 959 1119 1226 758 
Q 1494 397 1959 397 
Q 2419 397 2687 759 
Q 2956 1122 2956 1747 
Q 2956 2369 2687 2733 
Q 2419 3097 1959 3097 
z
M 1959 3584 
Q 2709 3584 3137 3096 
Q 3566 2609 3566 1747 
Q 3566 888 3137 398 
Q 2709 -91 1959 -91 
Q 1206 -91 779 398 
Q 353 888 353 1747 
Q 353 2609 779 3096 
Q 1206 3584 1959 3584 
z
" transform="scale(0.015625)"/>
       <path id="DejaVuSans-70" d="M 1159 525 
L 1159 -1331 
L 581 -1331 
L 581 3500 
L 1159 3500 
L 1159 2969 
Q 1341 3281 1617 3432 
Q 1894 3584 2278 3584 
Q 2916 3584 3314 3078 
Q 3713 2572 3713 1747 
Q 3713 922 3314 415 
Q 2916 -91 2278 -91 
Q 1894 -91 1617 61 
Q 1341 213 1159 525 
z
M 3116 1747 
Q 3116 2381 2855 2742 
Q 2594 3103 2138 3103 
Q 1681 3103 1420 2742 
Q 1159 2381 1159 1747 
Q 1159 1113 1420 752 
Q 1681 391 2138 391 
Q 2594 391 2855 752 
Q 3116 1113 3116 1747 
z
" transform="scale(0.015625)"/>
      </defs>
      <use xlink:href="#DejaVuSans-66"/>
      <use xlink:href="#DejaVuSans-69" x="35.205078"/>
      <use xlink:href="#DejaVuSans-62" x="62.988281"/>
      <use xlink:href="#DejaVuSans-72" x="126.464844"/>
      <use xlink:href="#DejaVuSans-65" x="165.328125"/>
      <use xlink:href="#DejaVuSans-73" x="226.851562"/>
      <use xlink:href="#DejaVuSans-63" x="278.951172"/>
      <use xlink:href="#DejaVuSans-6f" x="333.931641"/>
      <use xlink:href="#DejaVuSans-70" x="395.113281"/>
      <use xlink:href="#DejaVuSans-65" x="458.589844"/>
     </g>
    </g>
   </g>
  </g>
  <g id="axes_2">
   <g id="patch_8">
    <path d="M 50.78 303.64 
L 450 303.64 
L 450 178.2 
L 50.78 178.2 
z
" style="fill: #ffffff"/>
   </g>
   <g id="matplotlib.axis_3">
    <g id="xtick_8">
     <g id="line2d_15">
      <g>
       <use xlink:href="#m6b2412b11d" x="68.926364" y="303.64" style="stroke: #000000; stroke-width: 0.8"/>
      </g>
     </g>
     <g id="text_15">
      <!-- 0 -->
      <g transform="translate(65.745114 318.238437) scale(0.1 -0.1)">
       <use xlink:href="#DejaVuSans-30"/>
      </g>
     </g>
    </g>
    <g id="xtick_9">
     <g id="line2d_16">
      <g>
       <use xlink:href="#m6b2412b11d" x="129.414242" y="303.64" style="stroke: #000000; stroke-width: 0.8"/>
      </g>
     </g>
     <g id="text_16">
      <!-- 10 -->
      <g transform="translate(123.051742 318.238437) scale(0.1 -0.1)">
       <use xlink:href="#DejaVuSans-31"/>
       <use xlink:href="#DejaVuSans-30" x="63.623047"/>
      </g>
     </g>
    </g>
    <g id="xtick_10">
     <g id="line2d_17">
      <g>
       <use xlink:href="#m6b2412b11d" x="189.902121" y="303.64" style="stroke: #000000; stroke-width: 0.8"/>
      </g>
     </g>
     <g id="text_17">
      <!-- 20 -->
      <g transform="translate(183.539621 318.238437) scale(0.1 -0.1)">
       <use xlink:href="#DejaVuSans-32"/>
       <use xlink:href="#DejaVuSans-30" x="63.623047"/>
      </g>
     </g>
    </g>
    <g id="xtick_11">
     <g id="line2d_18">
      <g>
       <use xlink:href="#m6b2412b11d" x="250.39" y="303.64" style="stroke: #000000; stroke-width: 0.8"/>
      </g>
     </g>
     <g id="text_18">
      <!-- 30 -->
      <g transform="translate(244.0275 318.238437) scale(0.1 -0.1)">
       <use xlink:href="#DejaVuSans-33"/>
       <use xlink:href="#DejaVuSans-30" x="63.623047"/>
      </g>
     </g>
    </g>
    <g id="xtick_12">
     <g id="line2d_19">
      <g>
       <use xlink:href="#m6b2412b11d" x="310.877879" y="303.64" style="stroke: #000000; stroke-width: 0.8"/>
      </g>
     </g>
     <g id="text_19">
      <!-- 40 -->
      <g transform="translate(304.515379 318.238437) scale(0.1 -0.1)">
       <use xlink:href="#DejaVuSans-34"/>
       <use xlink:href="#DejaVuSans-30" x="63.623047"/>
      </g>
     </g>
    </g>
    <g id="xtick_13">
     <g id="line2d_20">
      <g>
       <use xlink:href="#m6b2412b11d" x="371.365758" y="303.64" style="stroke: #000000; stroke-width: 0.8"/>
      </g>
     </g>
     <g id="text_20">
      <!-- 50 -->
      <g transform="translate(365.003258 318.238437) scale(0.1 -0.1)">
       <use xlink:href="#DejaVuSans-35"/>
       <use xlink:href="#DejaVuSans-30" x="63.623047"/>
      </g>
     </g>
    </g>
    <g id="xtick_14">
     <g id="line2d_21">
      <g>
       <use xlink:href="#m6b2412b11d" x="431.853636" y="303.64" style="stroke: #000000; stroke-width: 0.8"/>
      </g>
     </g>
     <g id="text_21">
      <!-- 60 -->
      <g transform="translate(425.491136 318.238437) scale(0.1 -0.1)">
       <use xlink:href="#DejaVuSans-36"/>
       <use xlink:href="#DejaVuSans-30" x="63.623047"/>
      </g>
     </g>
    </g>
    <g id="text_22">
     <!-- Time (s) -->
     <g transform="translate(230.061094 331.916562) scale(0.1 -0.1)">
      <use xlink:href="#DejaVuSans-54"/>
      <use xlink:href="#DejaVuSans-69" x="57.958984"/>
      <use xlink:href="#DejaVuSans-6d" x="85.742188"/>
      <use xlink:href="#DejaVuSans-65" x="183.154297"/>
      <use xlink:href="#DejaVuSans-20" x="244.677734"/>
      <use xlink:href="#DejaVuSans-28" x="276.464844"/>
      <use xlink:href="#DejaVuSans-73" x="315.478516"/>
      <use xlink:href="#DejaVuSans-29" x="367.578125"/>
     </g>
    </g>
   </g>
   <g id="matplotlib.axis_4">
    <g id="ytick_4">
     <g id="line2d_22">
      <g>
       <use xlink:href="#m5e6af8bc6d" x="50.78" y="287.17737" style="stroke: #000000; stroke-width: 0.8"/>
      </g>
     </g>
     <g id="text_23">
      <!-- 200 -->
      <g transform="translate(24.6925 290.976589) scale(0.1 -0.1)">
       <use xlink:href="#DejaVuSans-32"/>
       <use xlink:href="#DejaVuSans-30" x="63.623047"/>
       <use xlink:href="#DejaVuSans-30" x="127.246094"/>
      </g>
     </g>
    </g>
    <g id="ytick_5">
     <g id="line2d_23">
      <g>
       <use xlink:href="#m5e6af8bc6d" x="50.78" y="262.205077" style="stroke: #000000; stroke-width: 0.8"/>
      </g>
     </g>
     <g id="text_24">
      <!-- 250 -->
      <g transform="translate(24.6925 266.004296) scale(0.1 -0.1)">
       <use xlink:href="#DejaVuSans-32"/>
       <use xlink:href="#DejaVuSans-35" x="63.623047"/>
       <use xlink:href="#DejaVuSans-30" x="127.246094"/>
      </g>
     </g>
    </g>
    <g id="ytick_6">
     <g id="line2d_24">
      <g>
       <use xlink:href="#m5e6af8bc6d" x="50.78" y="237.232784" style="stroke: #000000; stroke-width: 0.8"/>
      </g>
     </g>
     <g id="text_25">
      <!-- 300 -->
      <g transform="translate(24.6925 241.032003) scale(0.1 -0.1)">
       <use xlink:href="#DejaVuSans-33"/>
       <use xlink:href="#DejaVuSans-30" x="63.623047"/>
       <use xlink:href="#DejaVuSans-30" x="127.246094"/>
      </g>
     </g>
    </g>
    <g id="ytick_7">
     <g id="line2d_25">
      <g>
       <use xlink:href="#m5e6af8bc6d" x="50.78" y="212.260491" style="stroke: #000000; stroke-width: 0.8"/>
      </g>
     </g>
     <g id="text_26">
      <!-- 350 -->
      <g transform="translate(24.6925 216.05971) scale(0.1 -0.1)">
       <use xlink:href="#DejaVuSans-33"/>
       <use xlink:href="#DejaVuSans-35" x="63.623047"/>
       <use xlink:href="#DejaVuSans-30" x="127.246094"/>
      </g>
     </g>
    </g>
    <g id="ytick_8">
     <g id="line2d_26">
      <g>
       <use xlink:href="#m5e6af8bc6d" x="50.78" y="187.288198" style="stroke: #000000; stroke-width: 0.8"/>
      </g>
     </g>
     <g id="text_27">
      <!-- 400 -->
      <g transform="translate(24.6925 191.087416) scale(0.1 -0.1)">
       <use xlink:href="#DejaVuSans-34"/>
       <use xlink:href="#DejaVuSans-30" x="63.623047"/>
       <use xlink:href="#DejaVuSans-30" x="127.246094"/>
      </g>
     </g>
    </g>
    <g id="text_28">
     <!-- Pump state (Raw, ASCII) -->
     <g transform="translate(18.612813 301.534844) rotate(-90) scale(0.1 -0.1)">
      <defs>
       <path id="DejaVuSans-74" d="M 1172 4494 
L 1172 3500 
L 2356 3500 
L 2356 3053 
L 1172 3053 
L 1172 1153 
Q 1172 725 1289 603 
Q 1406 481 1766 481 
L 2356 481 
L 2356 0 
L 1766 0 
Q 1100 0 847 248 
Q 594 497 594 1153 
L 594 3053 
L 172 3053 
L 172 3500 
L 594 3500 
L 594 4494 
L 1172 4494 
z
" transform="scale(0.015625)"/>
       <path id="DejaVuSans-52" d="M 2841 2188 
Q 3044 2119 3236 1894 
Q 3428 1669 3622 1275 
L 4263 0 
L 3584 0 
L 2988 1197 
Q 2756 1666 2539 1819 
Q 2322 1972 1947 1972 
L 1259 1972 
L 1259 0 
L 628 0 
L 628 4666 
L 2053 4666 
Q 2853 4666 3247 4331 
Q 3641 3997 3641 3322 
Q 3641 2881 3436 2590 
Q 3231 2300 2841 2188 
z
M 1259 4147 
L 1259 2491 
L 2053 2491 
Q 2509 2491 2742 2702 
Q 2975 2913 2975 3322 
Q 2975 3731 2742 3939 
Q 2509 4147 2053 4147 
L 1259 4147 
z
" transform="scale(0.015625)"/>
       <path id="DejaVuSans-2c" d="M 750 794 
L 1409 794 
L 1409 256 
L 897 -744 
L 494 -744 
L 750 256 
L 750 794 
z
" transform="scale(0.015625)"/>
       <path id="DejaVuSans-41" d="M 2188 4044 
L 1331 1722 
L 3047 1722 
L 2188 4044 
z
M 1831 4666 
L 2547 4666 
L 4325 0 
L 3669 0 
L 3244 1197 
L 1141 1197 
L 716 0 
L 50 0 
L 1831 4666 
z
" transform="scale(0.015625)"/>
       <path id="DejaVuSans-53" d="M 3425 4513 
L 3425 3897 
Q 3066 4069 2747 4153 
Q 2428 4238 2131 4238 
Q 1616 4238 1336 4038 
Q 1056 3838 1056 3469 
Q 1056 3159 1242 3001 
Q 1428 2844 1947 2747 
L 2328 2669 
Q 3034 2534 3370 2195 
Q 3706 1856 3706 1288 
Q 3706 609 3251 259 
Q 2797 -91 1919 -91 
Q 1588 -91 1214 -16 
Q 841 59 441 206 
L 441 856 
Q 825 641 1194 531 
Q 1563 422 1919 422 
Q 2459 422 2753 634 
Q 3047 847 3047 1241 
Q 3047 1584 2836 1778 
Q 2625 1972 2144 2069 
L 1759 2144 
Q 1053 2284 737 2584 
Q 422 2884 422 3419 
Q 422 4038 858 4394 
Q 1294 4750 2059 4750 
Q 2388 4750 2728 4690 
Q 3069 4631 3425 4513 
z
" transform="scale(0.015625)"/>
       <path id="DejaVuSans-43" d="M 4122 4306 
L 4122 3641 
Q 3803 3938 3442 4084 
Q 3081 4231 2675 4231 
Q 1875 4231 1450 3742 
Q 1025 3253 1025 2328 
Q 1025 1406 1450 917 
Q 1875 428 2675 428 
Q 3081 428 3442 575 
Q 3803 722 4122 1019 
L 4122 359 
Q 3791 134 3420 21 
Q 3050 -91 2638 -91 
Q 1578 -91 968 557 
Q 359 1206 359 2328 
Q 359 3453 968 4101 
Q 1578 4750 2638 4750 
Q 3056 4750 3426 4639 
Q 3797 4528 4122 4306 
z
" transform="scale(0.015625)"/>
       <path id="DejaVuSans-49" d="M 628 4666 
L 1259 4666 
L 1259 0 
L 628 0 
L 628 4666 
z
" transform="scale(0.015625)"/>
      </defs>
      <use xlink:href="#DejaVuSans-50"/>
      <use xlink:href="#DejaVuSans-75" x="58.552734"/>
      <use xlink:href="#DejaVuSans-6d" x="121.931641"/>
      <use xlink:href="#DejaVuSans-70" x="219.34375"/>
      <use xlink:href="#DejaVuSans-20" x="282.820312"/>
      <use xlink:href="#DejaVuSans-73" x="314.607422"/>
      <use xlink:href="#DejaVuSans-74" x="366.707031"/>
      <use xlink:href="#DejaVuSans-61" x="405.916016"/>
      <use xlink:href="#DejaVuSans-74" x="467.195312"/>
      <use xlink:href="#DejaVuSans-65" x="506.404297"/>
      <use xlink:href="#DejaVuSans-20" x="567.927734"/>
      <use xlink:href="#DejaVuSans-28" x="599.714844"/>
      <use xlink:href="#DejaVuSans-52" x="638.728516"/>
      <use xlink:href="#DejaVuSans-61" x="705.960938"/>
      <use xlink:href="#DejaVuSans-77" x="767.240234"/>
      <use xlink:href="#DejaVuSans-2c" x="849.027344"/>
      <use xlink:href="#DejaVuSans-20" x="880.814453"/>
      <use xlink:href="#DejaVuSans-41" x="912.601562"/>
      <use xlink:href="#DejaVuSans-53" x="981.009766"/>
      <use xlink:href="#DejaVuSans-43" x="1044.486328"/>
      <use xlink:href="#DejaVuSans-49" x="1114.310547"/>
      <use xlink:href="#DejaVuSans-49" x="1143.802734"/>
      <use xlink:href="#DejaVuSans-29" x="1173.294922"/>
     </g>
    </g>
   </g>
   <g id="line2d_27">
    <path d="M 68.926364 272.23219 
L 70.94937 272.175895 
L 72.567774 271.987497 
L 74.995382 271.778531 
L 77.422989 271.592352 
L 79.445995 271.457431 
L 81.0644 271.33071 
L 97.248447 270.222008 
L 100.889858 269.894437 
L 107.363477 269.334687 
L 110.195686 269.117756 
L 112.623293 269.304622 
L 115.455501 269.529821 
L 117.073906 269.450891 
L 121.524519 269.187198 
L 124.356727 268.979345 
L 132.04415 268.532522 
L 136.090162 267.718301 
L 137.708567 267.470148 
L 141.349978 266.932658 
L 143.777585 266.724484 
L 149.846603 266.287264 
L 152.678811 266.06301 
L 176.954883 264.583336 
L 179.787091 264.818206 
L 181.000895 264.909992 
L 183.833103 264.803497 
L 185.451508 264.67657 
L 189.902121 264.388804 
L 190.711324 264.317639 
L 191.925127 264.191902 
L 194.352734 264.137282 
L 197.589544 264.008191 
L 205.276967 262.894056 
L 210.132181 262.508733 
L 212.964389 262.400211 
L 221.461014 261.901459 
L 224.293223 261.643307 
L 230.362241 261.439668 
L 233.59905 261.168241 
L 239.668068 260.916407 
L 241.691074 260.840418 
L 243.71408 261.004375 
L 247.355491 261.262138 
L 250.996902 261.113301 
L 257.06592 260.779428 
L 262.730336 260.632412 
L 265.562545 260.184957 
L 268.799354 259.810205 
L 275.677575 259.291584 
L 279.318986 259.252687 
L 280.128188 259.159826 
L 283.364997 258.601257 
L 289.029414 257.014882 
L 292.266224 255.962141 
L 296.312236 254.554066 
L 299.144444 253.265472 
L 304.808861 250.388765 
L 306.831867 249.363871 
L 308.854873 248.657136 
L 310.877879 248.06127 
L 312.900885 247.280276 
L 315.328492 246.018126 
L 316.542296 245.349236 
L 327.061927 239.627847 
L 328.27573 238.932939 
L 330.703337 237.1736 
L 333.940147 234.687802 
L 335.153951 233.791701 
L 340.413766 229.860303 
L 344.864379 226.807141 
L 346.078183 225.961232 
L 350.528796 222.717776 
L 356.193213 218.662811 
L 359.025421 216.945326 
L 360.239225 216.194755 
L 363.071433 214.25297 
L 365.903641 212.244045 
L 371.568058 208.605138 
L 373.186463 207.8633 
L 378.85088 205.530333 
L 381.278487 204.229743 
L 385.7291 202.031194 
L 388.561308 200.715942 
L 394.225725 198.437327 
L 395.84413 197.457518 
L 398.271737 196.100914 
L 399.485541 195.48374 
L 403.126951 193.694344 
L 405.149957 192.75863 
L 405.95916 192.395065 
L 408.386767 191.498827 
L 409.600571 191.117765 
L 412.432779 189.877823 
L 416.478791 188.33882 
L 417.692595 187.976338 
L 418.501797 187.636978 
L 422.143208 186.587041 
L 423.761612 186.221358 
L 425.784618 185.738967 
L 431.853636 183.901818 
L 431.853636 183.901818 
" clip-path="url(#p7fec124966)" style="fill: none; stroke: #1f77b4; stroke-width: 1.5; stroke-linecap: square"/>
   </g>
   <g id="line2d_28">
    <path d="M 68.926364 297.938182 
L 73.376977 297.362649 
L 77.82759 296.754955 
L 80.255197 296.572784 
L 85.110411 296.050704 
L 86.728816 295.812298 
L 89.561025 295.477579 
L 95.225441 294.657467 
L 109.386483 292.972873 
L 110.600287 292.971974 
L 115.455501 293.034557 
L 118.28771 292.70877 
L 119.906114 292.583222 
L 130.425745 291.346481 
L 132.448751 291.006541 
L 137.708567 289.790857 
L 147.014394 288.417907 
L 147.823597 288.371274 
L 148.632799 288.225638 
L 175.336478 285.340533 
L 177.764085 285.351065 
L 181.405496 285.480667 
L 185.856109 285.082671 
L 186.665312 284.960881 
L 190.306722 284.681162 
L 194.352734 284.216224 
L 196.37574 284.027964 
L 200.826354 283.157302 
L 210.536782 281.326508 
L 211.750586 281.243318 
L 219.438009 280.441314 
L 221.461014 280.246667 
L 224.293223 279.953261 
L 242.095675 278.246102 
L 245.332485 278.375788 
L 247.355491 278.544401 
L 250.187699 278.384582 
L 253.82911 278.026901 
L 255.447515 277.911924 
L 256.661319 277.75225 
L 264.753342 277.163068 
L 266.371747 276.889773 
L 268.799354 276.334412 
L 272.036164 275.761981 
L 278.914384 274.934774 
L 280.128188 274.858808 
L 282.151194 274.726409 
L 283.769599 274.565623 
L 290.647819 273.90789 
L 291.861623 273.722808 
L 295.098432 273.483229 
L 297.930641 273.375278 
L 306.427266 272.604671 
L 308.04567 272.416168 
L 310.473278 272.313826 
L 314.51929 272.541684 
L 315.733093 272.479086 
L 318.565302 272.20458 
L 321.802111 271.922308 
L 331.51254 270.899342 
L 340.413766 269.414478 
L 344.055177 268.996431 
L 345.673582 268.889174 
L 362.262231 267.582092 
L 363.476034 267.509068 
L 376.827874 266.44818 
L 382.49229 266.736556 
L 399.080939 265.384449 
L 402.317749 264.702985 
L 408.791368 263.796847 
L 414.860386 263.348058 
L 416.07419 263.222732 
L 431.853636 262.19725 
L 431.853636 262.19725 
" clip-path="url(#p7fec124966)" style="fill: none; stroke: #ff7f0e; stroke-width: 1.5; stroke-linecap: square"/>
   </g>
   <g id="patch_9">
    <path d="M 50.78 303.64 
L 50.78 178.2 
" style="fill: none; stroke: #000000; stroke-width: 0.8; stroke-linejoin: miter; stroke-linecap: square"/>
   </g>
   <g id="patch_10">
    <path d="M 450 303.64 
L 450 178.2 
" style="fill: none; stroke: #000000; stroke-width: 0.8; stroke-linejoin: miter; stroke-linecap: square"/>
   </g>
   <g id="patch_11">
    <path d="M 50.78 303.64 
L 450 303.64 
" style="fill: none; stroke: #000000; stroke-width: 0.8; stroke-linejoin: miter; stroke-linecap: square"/>
   </g>
   <g id="patch_12">
    <path d="M 50.78 178.2 
L 450 178.2 
" style="fill: none; stroke: #000000; stroke-width: 0.8; stroke-linejoin: miter; stroke-linecap: square"/>
   </g>
   <g id="legend_2">
    <g id="patch_13">
     <path d="M 57.78 215.55625 
L 141.794062 215.55625 
Q 143.794062 215.55625 143.794062 213.55625 
L 143.794062 185.2 
Q 143.794062 183.2 141.794062 183.2 
L 57.78 183.2 
Q 55.78 183.2 55.78 185.2 
L 55.78 213.55625 
Q 55.78 215.55625 57.78 215.55625 
z
" style="fill: #ffffff; opacity: 0.8; stroke: #cccccc; stroke-linejoin: miter"/>
    </g>
    <g id="line2d_29">
     <path d="M 59.78 191.298437 
L 69.78 191.298437 
L 79.78 191.298437 
" style="fill: none; stroke: #1f77b4; stroke-width: 1.5; stroke-linecap: square"/>
    </g>
    <g id="text_29">
     <!-- webcam -->
     <g transform="translate(87.78 194.798437) scale(0.1 -0.1)">
      <use xlink:href="#DejaVuSans-77"/>
      <use xlink:href="#DejaVuSans-65" x="81.787109"/>
      <use xlink:href="#DejaVuSans-62" x="143.310547"/>
      <use xlink:href="#DejaVuSans-63" x="206.787109"/>
      <use xlink:href="#DejaVuSans-61" x="261.767578"/>
      <use xlink:href="#DejaVuSans-6d" x="323.046875"/>
     </g>
    </g>
    <g id="line2d_30">
     <path d="M 59.78 205.976562 
L 69.78 205.976562 
L 79.78 205.976562 
" style="fill: none; stroke: #ff7f0e; stroke-width: 1.5; stroke-linecap: square"/>
    </g>
    <g id="text_30">
     <!-- fibrescope -->
     <g transform="translate(87.78 209.476562) scale(0.1 -0.1)">
      <use xlink:href="#DejaVuSans-66"/>
      <use xlink:href="#DejaVuSans-69" x="35.205078"/>
      <use xlink:href="#DejaVuSans-62" x="62.988281"/>
      <use xlink:href="#DejaVuSans-72" x="126.464844"/>
      <use xlink:href="#DejaVuSans-65" x="165.328125"/>
      <use xlink:href="#DejaVuSans-73" x="226.851562"/>
      <use xlink:href="#DejaVuSans-63" x="278.951172"/>
      <use xlink:href="#DejaVuSans-6f" x="333.931641"/>
      <use xlink:href="#DejaVuSans-70" x="395.113281"/>
      <use xlink:href="#DejaVuSans-65" x="458.589844"/>
     </g>
    </g>
   </g>
  </g>
 </g>
 <defs>
  <clipPath id="p891554cb83">
   <rect x="50.78" y="10.8" width="399.22" height="125.44"/>
  </clipPath>
  <clipPath id="p7fec124966">
   <rect x="50.78" y="178.2" width="399.22" height="125.44"/>
  </clipPath>
 </defs>
</svg>
